<?xml version="1.0" encoding="utf-8"?>
<!-- Generator: Adobe Illustrator 21.1.0, SVG Export Plug-In . SVG Version: 6.00 Build 0)  -->
<svg version="1.1" id="Capa_1" xmlns="http://www.w3.org/2000/svg" xmlns:xlink="http://www.w3.org/1999/xlink" x="0px" y="0px"
	 viewBox="0 0 512 512" style="enable-background:new 0 0 512 512;" xml:space="preserve">
<style type="text/css">
	.st0{fill:#F0B7B3;}
	.st1{fill:#DA4D43;}
</style>
<path class="st0" d="M391.7,112.2C365,63.4,312.7,32.3,256,32.3c-72.1,0-134.6,50.1-150.4,118.5C53.1,156.4,12,200.5,12,254
	c0,57.2,47,103.7,104.8,103.7h2.2c-2.7-12.1-1.1-25.2,5.5-36.6l16.4-28.5c9-15.7,25.9-25.4,44-25.4c2.5,0,4.9,0.2,7.3,0.5
	c7.5-18.9,26-32,47.2-32h32.9c21.2,0,39.7,13.1,47.2,32c2.4-0.3,4.9-0.5,7.3-0.5c18.1,0,35,9.7,44,25.4l16.4,28.5
	c6.3,11,8,23.5,5.7,35.2c60.3-8.6,106.8-59.9,106.8-121.9C500,172,453.1,119.9,391.7,112.2z"/>
<path class="st1" d="M331.3,387.5c0.4-3.1,1-6.3,1-9.5c0-3.3-0.6-6.4-1-9.5l18.3-13.9c4.1-3.1,5.2-8.7,2.7-13.2l-16.4-28.5
	c-2.6-4.4-8-6.3-12.7-4.3l-21.1,8.9c-5.1-3.9-10.6-7.4-16.7-9.9l-2.8-22.4c-0.7-5.1-5-8.9-10.1-8.9h-32.9c-5.1,0-9.5,3.8-10.1,8.9
	l-2.8,22.4c-6,2.5-11.5,6-16.7,9.9l-21.1-8.9c-4.7-2-10.2-0.2-12.8,4.3l-16.4,28.5c-2.6,4.4-1.4,10.1,2.7,13.2l18.3,13.9
	c-0.4,3.2-1,6.3-1,9.5c0,3.3,0.6,6.4,1,9.5l-18.3,13.9c-4.1,3.1-5.2,8.7-2.7,13.2l16.4,28.5c2.6,4.4,8,6.3,12.7,4.3l21.1-8.9
	c5.1,3.9,10.6,7.4,16.7,9.9l2.8,22.4c0.7,5.1,5,8.9,10.1,8.9h32.9c5.1,0,9.5-3.8,10.1-8.9l2.8-22.4c6-2.5,11.5-6,16.7-9.9l21.1,8.9
	c4.7,2,10.2,0.2,12.8-4.3l16.4-28.5c2.6-4.4,1.4-10.1-2.7-13.2L331.3,387.5z M256,418.7c-22.5,0-40.7-18.2-40.7-40.7
	c0-22.5,18.2-40.7,40.7-40.7s40.7,18.2,40.7,40.7C296.7,400.5,278.5,418.7,256,418.7z"/>
</svg>
