<?xml version="1.0" encoding="utf-8"?>
<!-- Generator: Adobe Illustrator 21.1.0, SVG Export Plug-In . SVG Version: 6.00 Build 0)  -->
<svg version="1.1" id="Capa_1" xmlns="http://www.w3.org/2000/svg" xmlns:xlink="http://www.w3.org/1999/xlink" x="0px" y="0px"
	 viewBox="0 0 512 512" style="enable-background:new 0 0 512 512;" xml:space="preserve">
<style type="text/css">
	.st0{fill:#82C250;}
	.st1{fill:#CDE6B9;}
</style>
<g>
	<g>
		<path class="st0" d="M485.8,256h-46v-15.3c0-42.2-34.3-76.6-76.6-76.6s-76.6,34.4-76.6,76.6V256h-46c-8.5,0-15.3,6.9-15.3,15.3
			v168.5c0,33.8,27.5,61.3,61.3,61.3h153.2c33.8,0,61.3-27.5,61.3-61.3V271.3C501.1,262.9,494.3,256,485.8,256z M409.2,256h-91.9
			v-15.3c0-25.3,20.6-46,46-46c25.3,0,46,20.6,46,46V256z"/>
	</g>
</g>
<g>
	<g>
		<path class="st1" d="M302,133.4h-46v-30.6c0-50.7-41.2-91.9-91.9-91.9s-91.9,41.2-91.9,91.9v30.6h-46c-8.5,0-15.3,6.9-15.3,15.3
			v291.1c0,33.8,27.5,61.3,61.3,61.3h146.5c-14.7-16.3-23.9-37.7-23.9-61.3V271.3c0-25.3,20.6-46,46-46h16.4
			c5.1-35.7,28.1-65.4,59.3-80.7C314.6,138.3,309,133.4,302,133.4z M225.4,133.4H102.8v-30.6c0-33.8,27.5-61.3,61.3-61.3
			s61.3,27.5,61.3,61.3V133.4z"/>
	</g>
</g>
</svg>
