<?xml version="1.0" encoding="utf-8"?>
<!-- Generator: Adobe Illustrator 21.1.0, SVG Export Plug-In . SVG Version: 6.00 Build 0)  -->
<svg version="1.1" id="Capa_1" xmlns="http://www.w3.org/2000/svg" xmlns:xlink="http://www.w3.org/1999/xlink" x="0px" y="0px"
	 viewBox="0 0 512 512" style="enable-background:new 0 0 512 512;" xml:space="preserve">
<style type="text/css">
	.st0{fill:#B377D9;}
	.st1{fill:#E0C8EF;}
</style>
<path class="st0" d="M300.5,325.2c29.8-12.6,53.4-29.7,70.6-51.3c17.2-21.7,25.9-45.2,25.9-70.8c0-25.5-8.6-49.1-25.9-70.8
	c-17.3-21.7-40.8-38.8-70.6-51.3c-29.8-12.6-62.3-18.9-97.3-18.9c-35.1,0-67.5,6.3-97.3,18.9C76,93.6,52.4,110.7,35.2,132.4
	C17.9,154,9.3,177.6,9.3,203.1c0,21.8,6.5,42.4,19.6,61.7c13,19.3,30.9,35.5,53.7,48.7c-1.8,4.4-3.7,8.4-5.6,12.1
	c-1.9,3.7-4.2,7.2-6.9,10.6c-2.7,3.4-4.7,6.1-6.2,8c-1.5,1.9-3.9,4.6-7.2,8.1c-3.3,3.5-5.4,5.8-6.3,6.9c0-0.2-0.4,0.2-1.1,1.2
	c-0.7,1-1.1,1.5-1.2,1.4c-0.1-0.1-0.5,0.4-1.1,1.4c-0.6,1-1,1.5-1,1.5l-0.7,1.4c-0.3,0.6-0.5,1.1-0.5,1.7c-0.1,0.5-0.1,1.1-0.1,1.8
	s0.1,1.2,0.3,1.8c0.4,2.4,1.4,4.3,3.2,5.8c1.7,1.5,3.6,2.2,5.6,2.2h0.8c9.2-1.3,17.1-2.8,23.7-4.4c28.3-7.3,53.8-19.1,76.5-35.2
	c16.5,2.9,32.7,4.4,48.5,4.4C238.2,344.1,270.6,337.8,300.5,325.2z"/>
<path class="st1" d="M483.1,335.4c13-19.2,19.5-39.8,19.5-61.8c0-22.6-6.9-43.7-20.7-63.3c-13.8-19.6-32.5-36-56.2-49
	c4.2,13.8,6.3,27.7,6.3,41.9c0,24.6-6.1,47.9-18.4,69.9c-12.3,22-29.9,41.5-52.9,58.4c-21.3,15.4-45.5,27.3-72.7,35.5
	c-27.2,8.3-55.5,12.4-85.1,12.4c-5.5,0-13.6-0.4-24.2-1.1c36.9,24.2,80.2,36.3,129.9,36.3c15.8,0,31.9-1.5,48.5-4.4
	c22.8,16.2,48.3,27.9,76.5,35.2c6.6,1.7,14.5,3.1,23.7,4.4c2.2,0.2,4.2-0.5,6.1-1.9c1.8-1.5,3-3.5,3.6-6c-0.1-1.1,0-1.7,0.3-1.8
	c0.3-0.1,0.2-0.7-0.1-1.8c-0.4-1.1-0.5-1.7-0.5-1.7l-0.7-1.4c-0.2-0.4-0.5-0.9-1-1.5c-0.5-0.6-0.8-1.1-1.1-1.4
	c-0.3-0.3-0.7-0.7-1.2-1.4c-0.5-0.6-0.9-1.1-1.1-1.2c-0.9-1.1-3-3.4-6.3-6.9c-3.3-3.5-5.7-6.2-7.2-8.1c-1.5-1.9-3.5-4.6-6.2-8
	c-2.7-3.4-5-6.9-6.9-10.6c-1.9-3.7-3.8-7.7-5.6-12.1C452.2,370.8,470.1,354.6,483.1,335.4z"/>
</svg>
