<?xml version="1.0" encoding="utf-8"?>
<!-- Generator: Adobe Illustrator 21.1.0, SVG Export Plug-In . SVG Version: 6.00 Build 0)  -->
<svg version="1.1" id="Layer_1" xmlns="http://www.w3.org/2000/svg" xmlns:xlink="http://www.w3.org/1999/xlink" x="0px" y="0px"
	 viewBox="0 0 512 512" style="enable-background:new 0 0 512 512;" xml:space="preserve">
<style type="text/css">
	.st0{fill:#FBE3B3;}
	.st1{fill:#F5BA42;}
</style>
<g>
	<path class="st0" d="M296.7,113.7c0,56.1-45.5,101.7-101.7,101.7S93.3,169.8,93.3,113.7S138.9,12,195,12S296.7,57.5,296.7,113.7z"
		/>
	<path class="st0" d="M205.2,367.8c0-43.3,17.1-82.7,44.9-111.8H108.6C55.3,256,12,299.3,12,352.6v71.2c0,8.4,6.8,15.2,15.2,15.2
		h194.5C211.2,417.5,205.2,393.4,205.2,367.8z"/>
	<path class="st1" d="M367.8,235.7c-72.9,0-132.2,59.3-132.2,132.2c0,72.9,59.3,132.2,132.2,132.2c72.9,0,132.2-59.3,132.2-132.2
		C500,295,440.7,235.7,367.8,235.7z M412.7,412.7c-4,4-9.2,6-14.4,6s-10.4-2-14.4-6l-30.5-30.5c-3.8-3.8-6-9-6-14.4V317
		c0-11.2,9.1-20.3,20.3-20.3c11.2,0,20.3,9.1,20.3,20.3v42.4l24.5,24.5C420.7,391.9,420.7,404.8,412.7,412.7z"/>
</g>
</svg>
