<?xml version="1.0" encoding="iso-8859-1"?>
<!-- Generator: Adobe Illustrator 16.0.0, SVG Export Plug-In . SVG Version: 6.00 Build 0)  -->
<!DOCTYPE svg PUBLIC "-//W3C//DTD SVG 1.1//EN" "http://www.w3.org/Graphics/SVG/1.1/DTD/svg11.dtd">
<svg version="1.1" id="Capa_1" xmlns="http://www.w3.org/2000/svg" xmlns:xlink="http://www.w3.org/1999/xlink" x="0px" y="0px"
	 width="405.967px" height="405.967px" viewBox="0 0 405.967 405.967" style="enable-background:new 0 0 405.967 405.967;"
	 xml:space="preserve" fill="#888">
<g>
	<g>
		<path d="M119.766,176.44c-1.7,0-2.548,1.074-2.548,3.223c0,1.473,0,2.523,0,3.146c-0.933-1.742-2.439-3.196-4.515-4.354
			c-2.072-1.162-4.219-1.748-6.446-1.748c-4.773,0-8.608,2.175-11.502,6.508c-2.63,3.932-3.943,8.622-3.943,14.069
			c0,5.141,1.183,9.43,3.552,12.875c2.681,3.843,6.342,5.762,10.989,5.762c2.816,0,5.027-0.312,6.638-0.938
			c1.968-0.714,3.73-2.055,5.294-4.022c0,0.629,0.022,1.576,0.065,2.847c0.045,1.279,0.874,1.913,2.482,1.913
			c1.611,0,2.412-0.67,2.412-2.011v-34.182C122.246,177.47,121.418,176.44,119.766,176.44z M114.432,206.936
			c-2.082,3.225-4.826,4.832-8.232,4.832c-3.146,0-5.646-1.571-7.504-4.689c-1.636-2.823-2.456-6.261-2.456-10.327
			s0.82-7.505,2.456-10.321c1.858-3.083,4.359-4.626,7.504-4.626c3.495,0,6.264,1.52,8.3,4.557
			c1.811,2.726,2.719,6.081,2.719,10.052C117.217,200.525,116.29,204.032,114.432,206.936z"/>
		<path d="M153.213,177.916c-1.611,0-2.414,0.826-2.414,2.478v21.649c0,2.905-0.963,5.254-2.882,7.041
			c-1.745,1.562-3.868,2.346-6.368,2.346c-2.413,0-4.47-0.783-6.167-2.346c-1.875-1.703-2.815-4.049-2.815-7.041v-21.65
			c0-1.652-0.826-2.478-2.481-2.478c-1.607,0-2.411,0.826-2.411,2.478v23.263c0,5.136,2.411,8.757,7.238,10.853
			c4.515,1.923,9.026,1.9,13.542-0.064c4.823-2.104,7.238-5.699,7.238-10.788v-23.263
			C155.692,178.742,154.862,177.916,153.213,177.916z"/>
		<path d="M190.112,165.383c-1.722,0-2.583,0.872-2.583,2.625v14.933c-3.253-4.154-6.887-6.233-10.898-6.233
			c-4.813,0-8.668,2.109-11.567,6.317c-2.627,3.806-3.944,8.413-3.944,13.828c0,5.234,1.272,9.668,3.813,13.293
			c2.849,3.983,6.751,5.972,11.698,5.972c4.947,0,8.578-1.831,10.898-5.495v3.149c0,1.564,0.86,2.346,2.583,2.346
			c1.629,0,2.443-0.758,2.443-2.281v-45.835C192.554,166.254,191.741,165.383,190.112,165.383z M185.113,206.602
			c-2.1,3.044-4.916,4.562-8.441,4.562c-3.22,0-5.764-1.499-7.646-4.492c-1.697-2.682-2.544-5.986-2.544-9.918
			c0-4.023,0.871-7.442,2.615-10.258c1.878-3.125,4.401-4.689,7.575-4.689c3.525,0,6.318,1.52,8.375,4.557
			c1.88,2.777,2.817,6.163,2.817,10.187C187.864,200.48,186.946,203.828,185.113,206.602z"/>
		<path d="M201.502,176.706c-1.629,0-2.449,0.833-2.449,2.487v33.441c0,1.697,0.842,2.548,2.514,2.548
			c1.677,0,2.512-0.851,2.512-2.548v-33.441C204.082,177.539,203.224,176.706,201.502,176.706z"/>
		<path d="M201.536,165.383c-2.278,0-3.415,1.074-3.415,3.216c0,0.934,0.301,1.779,0.899,2.51c0.604,0.744,1.42,1.106,2.449,1.106
			c2.412,0,3.623-1.067,3.623-3.215c0-0.935-0.325-1.773-0.973-2.511C203.468,165.745,202.608,165.383,201.536,165.383z"/>
		<path d="M226.402,176.706c-5.138,0-9.204,2.035-12.201,6.101c-2.678,3.667-4.017,8.152-4.017,13.478
			c0,5.312,1.339,9.806,4.017,13.465c2.997,4.108,7.063,6.171,12.201,6.171c5.184,0,9.249-1.99,12.198-5.969
			c2.68-3.577,4.021-7.973,4.021-13.202c0-5.402-1.363-9.983-4.089-13.738C235.496,178.81,231.452,176.706,226.402,176.706z
			 M234.387,207.078c-1.917,2.984-4.586,4.485-8.019,4.485c-3.249,0-5.882-1.651-7.881-4.962c-1.784-3.031-2.672-6.63-2.672-10.79
			c0-4.016,0.847-7.371,2.539-10.052c1.913-3.038,4.588-4.556,8.017-4.556c3.208,0,5.814,1.677,7.818,5.025
			c1.869,3.083,2.804,6.73,2.804,10.923C236.991,201.129,236.125,204.437,234.387,207.078z"/>
		<path d="M251.135,165.383c-2.279,0-3.418,1.074-3.418,3.216c0,0.985,0.323,1.83,0.975,2.548c0.646,0.712,1.505,1.067,2.579,1.067
			c2.279,0,3.418-1.067,3.418-3.215c0-0.935-0.323-1.773-0.972-2.511C253.066,165.745,252.208,165.383,251.135,165.383z"/>
		<path d="M251.169,176.644c-1.676,0-2.517,0.847-2.517,2.549v48.991c0,1.654,0.816,2.48,2.447,2.48c1.722,0,2.582-0.826,2.582-2.48
			v-48.991C253.682,177.489,252.844,176.644,251.169,176.644z"/>
		<path d="M285.319,177.916c-1.611,0-2.415,0.826-2.415,2.478v21.649c0,2.905-0.96,5.254-2.881,7.041
			c-1.745,1.562-3.863,2.346-6.368,2.346c-2.41,0-4.47-0.783-6.164-2.346c-1.88-1.703-2.818-4.049-2.818-7.041v-21.65
			c0-1.652-0.826-2.478-2.478-2.478c-1.611,0-2.413,0.826-2.413,2.478v23.263c0,5.136,2.413,8.757,7.238,10.853
			c4.513,1.923,9.023,1.9,13.54-0.064c4.826-2.104,7.241-5.699,7.241-10.788v-23.263
			C287.801,178.742,286.971,177.916,285.319,177.916z"/>
		<path d="M308.948,176.706c-4.723,0-8.289,1.951-10.693,5.835c0.045-0.49,0.045-1.633,0-3.42c-0.045-1.607-0.905-2.415-2.582-2.415
			c-1.63,0-2.447,0.763-2.447,2.282v33.716c0,1.654,0.815,2.48,2.447,2.48c1.717,0,2.582-0.826,2.582-2.48V192.93
			c0-3.488,1.063-6.252,3.204-8.312c1.87-1.832,4.116-2.751,6.746-2.751c2.227,0,4.118,0.698,5.679,2.077
			c1.646,1.569,2.468,3.648,2.468,6.233v22.526c0,1.654,0.826,2.48,2.482,2.48c1.696,0,2.545-0.826,2.545-2.48v-23.058
			c0-4.061-1.29-7.284-3.88-9.655C315.141,177.801,312.289,176.706,308.948,176.706z"/>
		<path d="M355.662,176.509c-1.63,0-2.445,0.738-2.445,2.211v3.624c-1.023-1.748-2.494-3.121-4.415-4.124
			c-1.916-1.005-3.9-1.514-5.948-1.514c-5.13,0-9.204,2.035-12.236,6.101c-2.718,3.667-4.079,8.134-4.079,13.407
			c0,5.318,1.361,9.831,4.079,13.536c3.032,4.109,7.106,6.171,12.236,6.171c2.14,0,4.121-0.445,5.95-1.341
			c2.098-1.027,3.568-2.413,4.413-4.161c0,9.97-3.454,14.952-10.363,14.952c-2.364,0-4.702-0.515-7.016-1.542
			c-1.473-0.802-2.968-1.609-4.481-2.408c-0.535-0.277-1.025-0.41-1.472-0.41c-1.381,0-2.07,0.781-2.07,2.344
			c0,1.029,0.404,1.9,1.208,2.622c3.44,2.901,7.929,4.359,13.471,4.359c4.868,0,8.716-1.466,11.527-4.398
			c2.817-2.925,4.226-6.827,4.226-11.695v-35.387C358.244,177.292,357.379,176.509,355.662,176.509z M350.803,206.733
			c-1.967,3.223-4.604,4.83-7.908,4.83c-3.31,0-5.944-1.627-7.914-4.892c-1.784-2.903-2.678-6.439-2.678-10.585
			c0-4.067,0.871-7.488,2.613-10.258c1.969-3.089,4.626-4.625,7.979-4.625c3.35,0,6.01,1.569,7.974,4.69
			c1.743,2.82,2.616,6.278,2.616,10.396C353.485,200.39,352.587,203.877,350.803,206.733z"/>
		<path d="M366.18,165.383c-1.628,0-2.445,0.852-2.445,2.548v44.705c0,1.697,0.842,2.549,2.515,2.549
			c1.672,0,2.513-0.852,2.513-2.549v-44.705C368.764,166.234,367.904,165.383,366.18,165.383z"/>
		<path d="M403.278,206.064c-0.54,0-1.412,0.498-2.625,1.475c-1.658,1.297-2.909,2.167-3.76,2.621
			c-1.75,0.982-3.538,1.465-5.375,1.465c-3.048,0-5.75-1.331-8.098-4.015c-2.352-2.68-3.527-5.603-3.527-8.781h24.326
			c1.166,0,1.748-1.811,1.748-5.426c0-5.141-1.384-9.223-4.154-12.233c-2.771-3.019-6.545-4.525-11.326-4.525
			c-5.052,0-9.074,2.053-12.064,6.165c-2.771,3.712-4.157,8.222-4.157,13.542c0,5.357,1.41,9.85,4.224,13.472
			c3.221,4.111,7.574,6.164,13.07,6.164c5.989,0,10.568-2.008,13.738-6.03c0.313-0.355,0.473-0.806,0.473-1.338
			c0-0.625-0.249-1.207-0.741-1.744C404.531,206.341,403.947,206.064,403.278,206.064z M383.319,184.416
			c2.019-2.053,4.439-3.083,7.264-3.083c2.821,0,5.197,1.029,7.126,3.083c2.151,2.28,3.231,5.39,3.231,9.322h-21.045
			C379.98,189.85,381.124,186.741,383.319,184.416z"/>
		<path d="M71.618,201.007V167.62c0-3.03-2.463-5.484-5.488-5.484H5.488c-3.025,0-5.488,2.453-5.488,5.484v60.645
			c0,3.021,2.462,5.483,5.488,5.483h9.678c0.994,0.883,2.034,1.721,3.12,2.511c6.831,4.956,14.86,7.573,23.226,7.573h0.004
			c2.093,0,4.216-0.164,6.304-0.497c6.978-1.107,13.228-4.475,17.948-9.588h0.363c3.024,0,5.488-2.46,5.488-5.484v-3.561
			c2.256-5.308,2.989-11.157,2.064-16.992C73.308,205.353,72.601,203.104,71.618,201.007z M8.113,219.48l2.494,0.134l-1.381,2.116
			C8.825,220.991,8.459,220.241,8.113,219.48z M20.019,233.982c-0.017-0.015-0.039-0.025-0.055-0.031
			c-0.874-0.641-1.706-1.308-2.513-2.01l3.158-1.111L20.019,233.982z M32.238,239.766l2.08-2.413l1.087,3.105
			C34.335,240.272,33.283,240.037,32.238,239.766z M48.745,240.267l1.22-3.426l2.126,2.504
			C51,239.715,49.888,240.026,48.745,240.267z M65.17,230.045l-2.247,2.36l-1.054-3.597l3.583,0.864
			C65.361,229.799,65.265,229.927,65.17,230.045z M66.181,228.682l-5.964-1.448l1.824,6.207c-2.574,2.364-5.55,4.22-8.804,5.485
			l-3.686-4.325l-2.101,5.902c-0.025,0.006-0.054,0.006-0.08,0.012c-1.94,0.314-3.911,0.464-5.854,0.464h-0.004
			c-1.629,0-3.24-0.132-4.839-0.342l-1.929-5.531l-3.721,4.316c-3.514-1.056-6.865-2.648-9.973-4.752l1.046-5.573l-5.615,1.975
			c-2.612-2.427-4.833-5.197-6.619-8.229l2.78-4.256l-5.045-0.282c-1.103-2.654-1.903-5.471-2.367-8.382
			c-2.616-16.47,3.456-32.853,16.251-43.91l3.038-2.287h25.975l-7.871,2.287c-18.019,5.224-29.793,23.227-26.778,42.227
			c1.092,6.876,4.797,12.912,10.435,17.005c4.49,3.259,9.763,4.981,15.263,4.981c1.375,0,2.768-0.109,4.138-0.331
			c7.971-1.257,14.789-8.979,14.889-16.852c0.044-3.502-1.224-6.66-3.67-9.136c-3.148-3.187-8.14-5.093-13.35-5.093
			c-2.31,0-4.54,0.364-6.634,1.086c-0.479,0.165-0.96,0.254-1.386,0.254c-1.193,0-1.494-0.629-1.632-1.237
			c-0.366-1.641,1.713-3.711,2.393-4.394c0.193-0.189,0.371-0.374,0.527-0.545c2.485-2.193,5.529-3.629,8.808-4.15
			c5.795-0.916,11.667,0.49,16.414,3.941c4.769,3.456,7.902,8.565,8.824,14.386C72.015,215.409,70.346,222.668,66.181,228.682z"/>
		<path d="M44.502,190.948c-1.789,0-3.24,1.454-3.24,3.24c0,1.792,1.452,3.247,3.24,3.247c1.789,0,3.241-1.454,3.241-3.247
			C47.744,192.403,46.291,190.948,44.502,190.948z M44.502,196.293c-1.159,0-2.101-0.942-2.101-2.104
			c0-1.157,0.941-2.098,2.101-2.098c1.161,0,2.101,0.939,2.101,2.098C46.603,195.351,45.662,196.293,44.502,196.293z"/>
	</g>
</g>
<g>
</g>
<g>
</g>
<g>
</g>
<g>
</g>
<g>
</g>
<g>
</g>
<g>
</g>
<g>
</g>
<g>
</g>
<g>
</g>
<g>
</g>
<g>
</g>
<g>
</g>
<g>
</g>
<g>
</g>
</svg>
