<?xml version="1.0" encoding="iso-8859-1"?>
<!-- Generator: Adobe Illustrator 16.0.0, SVG Export Plug-In . SVG Version: 6.00 Build 0)  -->
<!DOCTYPE svg PUBLIC "-//W3C//DTD SVG 1.1//EN" "http://www.w3.org/Graphics/SVG/1.1/DTD/svg11.dtd">
<svg version="1.1" id="Capa_1" xmlns="http://www.w3.org/2000/svg" xmlns:xlink="http://www.w3.org/1999/xlink" x="0px" y="0px"
	 width="427.226px" height="427.226px" viewBox="0 0 427.226 427.226" style="enable-background:new 0 0 427.226 427.226;"
	 xml:space="preserve" fill="#888">
<g>
	<g>
		<path d="M83.102,209.844c-2.279-2.377-4.919-4.302-7.696-6.036c-0.254-0.159-0.342-0.33-0.406-0.623
			c-0.426-1.919-0.254-3.864-0.261-5.795c-0.025-3.971,0.013-7.949-0.025-11.921c-0.038-2.935-2.275-5.172-5.211-5.325
			c-0.178-0.006-0.356-0.006-0.534-0.006c-9.9,0-19.795-0.007-29.688,0.012c-1.042,0-2.01-0.305-2.999-0.521
			c-3.552-0.762-6.977-1.938-10.423-3.05c-0.895-0.292-1.816-0.501-2.718-0.743c-0.23,0-0.463,0-0.693,0
			c0.059,0.127,0.083,0.279,0.172,0.394c0.939,1.188,1.893,2.364,2.846,3.552c0.076,0.096,0.152,0.197,0.268,0.356
			c-0.215,0-0.357,0-0.508,0c-5.197,0-10.408-0.007-15.619,0c-2.822,0-5.04,1.836-5.503,4.55c-0.064,0.356-0.076,0.712-0.076,1.074
			c0,4.518-0.006,9.029,0.007,13.547c0,0.33-0.09,0.515-0.381,0.654c-0.418,0.197-0.82,0.438-1.213,0.711
			c0.508-0.031,1.021-0.07,1.587-0.108c0,0.152,0,0.28,0,0.4c0,1.697-0.006,3.4,0,5.097c0.007,0.254-0.075,0.412-0.284,0.559
			c-0.731,0.502-1.451,1.004-2.154,1.519c-0.545,0.407-1.062,0.832-1.587,1.246c0,0.051,0,0.102,0,0.16
			c1.2,0.235,2.403,0.489,3.603,0.718c0.335,0.063,0.433,0.223,0.433,0.565c-0.008,6.385-0.008,12.771-0.008,19.161
			c0,5.1-0.006,10.211,0,15.321c0,2.724,1.793,4.912,4.437,5.411c0.356,0.069,0.738,0.104,1.106,0.104c19.864,0,39.729,0,59.606,0
			c3.127,0,5.491-2.262,5.541-5.383c0.051-3.105,0.013-6.207,0.013-9.312c0-3.698,0-7.4,0-11.107c0-0.152,0-0.3,0-0.471
			c1.279,0.255,2.339,0.803,3.147,1.76c1.327,1.562,2.638,3.146,3.954,4.727c0.667,0.813,1.321,1.646,1.994,2.466
			c0.196,0.236,0.426,0.419,0.662,0.649c0.07-0.091,0.113-0.114,0.133-0.159c1.081-2.331,2.206-4.6,3.229-6.97
			c0.452-1.044,0.774-2.212,1.004-3.336c0.292-1.443,0.008-2.897-0.325-4.316C87.652,215.671,85.707,212.558,83.102,209.844z
			 M86.154,225.422c-0.369,1.887-0.725,3.773-1.571,5.558c-0.125-0.274-0.247-0.558-0.386-0.825
			c-0.968-1.897-2.211-3.609-3.508-5.292c-1.194-1.55-2.732-2.621-4.398-3.559c-3.312-1.87-6.833-3.268-10.391-4.581
			c-0.063-0.023-0.139-0.029-0.223-0.008c2.244,1.221,4.488,2.441,6.737,3.654c-0.02,0.045-0.038,0.099-0.058,0.135
			c-1.264-0.344-2.547-0.656-3.8-1.041c-1.964-0.591-1.367-0.312-5.872-1.668c-8.166-2.225-9.469-0.749-9.469-0.749
			c7.861,0.819,9.412,2.446,13.465,4.541c-0.202,0.534-0.394,1.058-0.584,1.578c-0.292,0.795-0.58,1.582-0.889,2.365
			c-0.191,0.497-0.165,0.958,0.019,1.454c1.622,4.228,3.313,8.457,4.92,12.691c0.089,0.237,0.14,0.498,0.157,0.744v7.273
			c-0.012,0.148-0.012,0.305-0.075,0.453c0,0.015-0.021,0.021-0.025,0.031c-0.711,0.846-1.601,1.035-2.701,1.035
			c-13.179-0.036-26.358-0.021-39.531-0.014c-6.298,0-12.595-0.008-18.887-0.014c-0.317,0-0.647-0.012-0.953-0.064
			c-1.474-0.247-2.345-1.288-2.439-2.949c-0.032-0.713,0-1.429,0-2.147c0-0.096,0.038-0.196,0.083-0.284
			c1.621-3.151,2.879-6.455,4.124-9.76c0.096-0.248,0.191-0.499,0.267-0.76c-1.118,2.077-2.708,3.762-4.397,5.348
			c-0.052-0.009-0.096-0.022-0.141-0.032c0.07-1.048,0.083-2.105,0.23-3.147c0.572-4.104,1.182-8.209,1.779-12.312
			c0-0.025-0.014-0.045-0.038-0.152c-0.625,2.061-1.235,4.057-1.839,6.043c-0.02,0-0.044-0.006-0.068-0.006c0-0.196,0-0.393,0-0.585
			c0-3.821-0.007-7.64,0-11.459c0-0.235,0.05-0.481,0.152-0.691c0.865-1.906,1.756-3.799,2.631-5.693
			c0.24-0.509,0.064-0.985-0.483-1.111c-0.89-0.197-1.779-0.344-2.67-0.49c-0.572-0.096-1.144-0.147-1.817-0.229
			c0.216-0.14,0.356-0.229,0.497-0.324c4.46-2.961,8.439-6.462,11.947-10.517c0.178-0.203,0.514-0.408,0.33-0.744
			c-0.172-0.318-0.547-0.273-0.835-0.209c-1.131,0.24-2.253,0.515-3.378,0.801c-0.542,0.133-1.063,0.324-1.622,0.433
			c3.908-3.311,7.816-6.627,11.769-9.982c-3.394-2.351-6.753-4.677-10.117-7.009c0.015-0.039,0.025-0.064,0.039-0.095
			c6.527,1.15,13.052,2.293,19.675,3.451c-2.034-2.2-3.999-4.321-6.024-6.507c0.165,0.038,0.254,0.057,0.329,0.082
			c6.706,2.23,13.395,4.48,20.108,6.679c6.416,2.104,12.505,4.893,18.059,8.776c2.242,1.562,4.275,3.362,5.859,5.618
			c0.781,1.118,1.397,2.313,1.676,3.666c0.021,0.109-0.039,0.312-0.119,0.355c-0.546,0.305-0.923,0.762-1.214,1.297
			c-0.521,0.978-0.781,2.021-0.737,3.126c0.024,0.617-0.203,0.934-0.826,0.934c-0.508,0-1.022-0.058-1.512-0.177
			c-0.649-0.166-1.283-0.407-1.927-0.623c-0.108-0.031-0.202-0.069-0.311-0.102c1.41,0.909,2.846,1.729,4.548,1.881
			c0.738,0.063,1.488,0.006,2.085-0.54c0.197-0.178,0.274-0.35,0.166-0.629c-0.305-0.813-0.09-1.525,0.521-2.135
			c0.216-0.216,0.394-0.26,0.687-0.089c2.872,1.722,5.528,3.712,7.878,6.101c1.372,1.385,2.585,2.886,3.603,4.556
			C86.292,219.458,86.75,222.339,86.154,225.422z"/>
		<path d="M48.158,204.577c-1.042-0.165-2.084-0.363-3.12-0.579c-0.254-0.051-0.374-0.006-0.521,0.203
			c-0.369,0.527-0.916,0.687-1.526,0.572c-0.559-0.103-1.042-0.426-1.093-0.986c-0.044-0.565-0.369-0.629-0.762-0.724
			c-0.125-0.025-0.253-0.058-0.369-0.108c-0.19-0.083-0.317-0.025-0.458,0.133c-0.901,1.055-1.258,2.262-0.953,3.634
			c0.446,2.021,2.376,3.438,4.626,3.438c0.012,0.032,0.02,0.07,0.025,0.103c0.654-0.159,1.333-0.254,1.942-0.503
			c1.972-0.787,3.046-2.707,2.695-4.683C48.597,204.773,48.495,204.633,48.158,204.577z"/>
		<path d="M112.753,202.937c1.378,0,2.757,0.388,4.118,1.175c1.362,0.781,2.249,1.169,2.65,1.169c0.802,0,1.468-0.273,2.01-0.838
			c0.541-0.553,0.805-1.195,0.805-1.913c0-0.89-0.382-1.646-1.144-2.275c-0.94-0.801-2.301-1.455-4.086-1.945
			c-1.519-0.4-2.866-0.604-4.021-0.604c-5.318,0-9.545,2.06-12.671,6.169c-2.859,3.749-4.284,8.293-4.284,13.606
			s1.406,9.787,4.221,13.401c3.17,4.073,7.46,6.1,12.869,6.1c3.349,0,5.903-0.714,7.645-2.142c0.846-0.719,1.272-1.565,1.272-2.548
			c0-1.57-0.826-2.346-2.478-2.346c-0.319,0-1.296,0.283-2.949,0.841c-1.652,0.557-3.062,0.834-4.22,0.834
			c-3.534,0-6.304-1.431-8.312-4.291c-1.792-2.54-2.681-5.718-2.681-9.52c0-3.972,0.953-7.372,2.877-10.188
			C106.474,204.5,109.264,202.937,112.753,202.937z"/>
		<path d="M139.226,197.708c-5.142,0-9.207,2.034-12.201,6.1c-2.68,3.667-4.021,8.159-4.021,13.471
			c0,5.317,1.341,9.812,4.021,13.474c2.994,4.11,7.059,6.164,12.201,6.164c5.187,0,9.255-1.983,12.203-5.962
			c2.68-3.579,4.015-7.974,4.015-13.204c0-5.408-1.361-9.99-4.093-13.739C148.312,199.805,144.273,197.708,139.226,197.708z
			 M147.207,228.068c-1.918,2.993-4.586,4.492-8.018,4.492c-3.247,0-5.88-1.652-7.879-4.964c-1.787-3.038-2.675-6.633-2.675-10.789
			c0-4.022,0.846-7.372,2.537-10.052c1.92-3.038,4.587-4.556,8.02-4.556c3.208,0,5.814,1.677,7.815,5.026
			c1.875,3.082,2.807,6.724,2.807,10.924C149.812,222.126,148.949,225.438,147.207,228.068z"/>
		<path d="M189.529,186.382c-1.721,0-2.58,0.877-2.58,2.619v14.939c-3.254-4.156-6.888-6.233-10.905-6.233
			c-4.811,0-8.667,2.103-11.567,6.311c-2.625,3.806-3.94,8.42-3.94,13.833c0,5.236,1.272,9.672,3.813,13.295
			c2.847,3.978,6.749,5.972,11.694,5.972c4.957,0,8.577-1.829,10.905-5.493v3.149c0,1.562,0.857,2.344,2.58,2.344
			c1.627,0,2.448-0.759,2.448-2.279v-45.837C191.976,187.253,191.155,186.382,189.529,186.382z M184.534,227.599
			c-2.097,3.037-4.919,4.562-8.444,4.562c-3.215,0-5.764-1.499-7.645-4.491c-1.69-2.682-2.542-5.985-2.542-9.92
			c0-4.021,0.871-7.44,2.612-10.255c1.875-3.126,4.405-4.689,7.574-4.689c3.527,0,6.322,1.519,8.381,4.562
			c1.869,2.765,2.81,6.165,2.81,10.179C187.281,221.479,186.364,224.828,184.534,227.599z"/>
		<path d="M229.238,214.398c0-5.141-1.384-9.22-4.155-12.239c-2.771-3.013-6.543-4.518-11.33-4.518
			c-5.046,0-9.067,2.052-12.061,6.164c-2.769,3.711-4.155,8.223-4.155,13.535c0,5.362,1.411,9.856,4.22,13.478
			c3.222,4.11,7.574,6.164,13.072,6.164c5.992,0,10.567-2.009,13.743-6.03c0.312-0.356,0.469-0.803,0.469-1.341
			c0-0.623-0.251-1.205-0.743-1.741c-0.49-0.54-1.072-0.805-1.747-0.805c-0.535,0-1.41,0.496-2.619,1.475
			c-1.668,1.293-2.911,2.173-3.762,2.619c-1.754,0.977-3.546,1.473-5.376,1.473c-3.05,0-5.751-1.347-8.099-4.028
			c-2.354-2.676-3.529-5.605-3.529-8.774h24.327C228.66,219.826,229.238,218.017,229.238,214.398z M203.167,214.738
			c0.089-3.888,1.236-6.998,3.431-9.322c2.017-2.053,4.438-3.083,7.259-3.083c2.828,0,5.205,1.029,7.131,3.083
			c2.146,2.281,3.227,5.389,3.227,9.322H203.167z"/>
		<path d="M250.152,202.937c1.384,0,2.755,0.388,4.118,1.175c1.365,0.781,2.248,1.169,2.648,1.169c0.804,0,1.481-0.273,2.015-0.838
			c0.537-0.553,0.804-1.195,0.804-1.913c0-0.89-0.381-1.646-1.14-2.275c-0.934-0.801-2.307-1.455-4.087-1.945
			c-1.524-0.4-2.858-0.604-4.028-0.604c-5.312,0-9.53,2.06-12.661,6.169c-2.854,3.749-4.291,8.293-4.291,13.606
			s1.41,9.787,4.22,13.401c3.178,4.073,7.461,6.1,12.875,6.1c3.349,0,5.897-0.714,7.639-2.142c0.849-0.719,1.27-1.565,1.27-2.548
			c0-1.57-0.825-2.346-2.478-2.346c-0.312,0-1.296,0.283-2.948,0.841c-1.651,0.557-3.063,0.834-4.22,0.834
			c-3.535,0-6.307-1.431-8.312-4.291c-1.79-2.54-2.68-5.718-2.68-9.52c0-3.972,0.963-7.372,2.885-10.188
			C243.874,204.5,246.67,202.937,250.152,202.937z"/>
		<path d="M289.626,197.44c-1.69,0-2.539,1.074-2.539,3.222c0,1.468,0,2.517,0,3.146c-0.939-1.742-2.439-3.197-4.517-4.353
			c-2.073-1.164-4.22-1.748-6.451-1.748c-4.765,0-8.604,2.173-11.501,6.5c-2.625,3.934-3.941,8.629-3.941,14.083
			c0,5.136,1.187,9.425,3.553,12.869c2.682,3.838,6.344,5.757,10.996,5.757c2.813,0,5.025-0.305,6.633-0.934
			c1.965-0.714,3.729-2.055,5.294-4.024c0,0.629,0.024,1.579,0.069,2.854c0.044,1.271,0.87,1.906,2.478,1.906
			s2.415-0.669,2.415-2.016v-34.182C292.11,198.469,291.284,197.44,289.626,197.44z M284.296,227.937
			c-2.079,3.223-4.828,4.829-8.229,4.829c-3.147,0-5.645-1.562-7.506-4.695c-1.64-2.815-2.459-6.252-2.459-10.317
			c0-4.068,0.819-7.507,2.459-10.321c1.861-3.082,4.36-4.626,7.506-4.626c3.493,0,6.258,1.519,8.299,4.562
			c1.811,2.72,2.72,6.069,2.72,10.052C287.085,221.53,286.151,225.031,284.296,227.937z"/>
		<path d="M313.259,197.708c-4.722,0-8.286,1.945-10.697,5.833c0.045-0.496,0.045-1.633,0-3.419
			c-0.051-1.607-0.899-2.415-2.58-2.415c-1.634,0-2.447,0.762-2.447,2.281v33.717c0,1.646,0.812,2.48,2.447,2.48
			c1.716,0,2.58-0.835,2.58-2.48V213.93c0-3.489,1.068-6.259,3.202-8.312c1.876-1.831,4.118-2.745,6.751-2.745
			c2.224,0,4.117,0.693,5.672,2.072c1.644,1.563,2.47,3.647,2.47,6.233v22.525c0,1.644,0.826,2.478,2.482,2.478
			c1.703,0,2.545-0.834,2.545-2.478v-23.059c0-4.066-1.288-7.282-3.876-9.653C319.454,198.8,316.602,197.708,313.259,197.708z"/>
		<path d="M356.922,198.979c-1.393,0-2.332,0.673-2.822,2.008l-9.442,26.809l-8.547-26.479c-0.496-1.557-1.459-2.338-2.905-2.338
			c-1.568,0-2.35,0.826-2.35,2.484c0,0.49,0.104,1.022,0.329,1.607l11.273,31.277l-4.921,13.153
			c-0.172,0.543-0.255,1.029-0.255,1.475c0,1.616,0.763,2.415,2.278,2.415c1.386,0,2.353-0.757,2.886-2.269l16.561-46.319
			c0.216-0.527,0.327-1.01,0.327-1.449C359.336,199.772,358.528,198.979,356.922,198.979z"/>
		<path d="M377.765,197.708c-5.135,0-9.202,2.034-12.194,6.1c-2.682,3.667-4.022,8.159-4.022,13.471
			c0,5.317,1.341,9.812,4.022,13.474c2.992,4.11,7.06,6.164,12.194,6.164c5.187,0,9.253-1.983,12.201-5.962
			c2.682-3.579,4.028-7.974,4.028-13.204c0-5.408-1.373-9.99-4.092-13.739C386.865,199.805,382.816,197.708,377.765,197.708z
			 M385.752,228.068c-1.912,2.993-4.588,4.492-8.01,4.492c-3.253,0-5.884-1.652-7.886-4.964c-1.786-3.038-2.675-6.633-2.675-10.789
			c0-4.022,0.846-7.372,2.541-10.052c1.912-3.038,4.586-4.556,8.02-4.556c3.2,0,5.805,1.677,7.816,5.026
			c1.868,3.082,2.8,6.724,2.8,10.924C388.358,222.126,387.488,225.438,385.752,228.068z"/>
		<path d="M423.358,200.992c-2.36-2.191-5.221-3.285-8.562-3.285c-4.714,0-8.286,1.945-10.689,5.833
			c0.045-0.496,0.045-1.633,0-3.419c-0.051-1.607-0.903-2.415-2.579-2.415c-1.634,0-2.45,0.762-2.45,2.281v33.718
			c0,1.644,0.814,2.478,2.45,2.478c1.713,0,2.579-0.834,2.579-2.478v-19.777c0-3.488,1.068-6.258,3.202-8.311
			c1.868-1.831,4.118-2.745,6.749-2.745c2.228,0,4.117,0.693,5.674,2.072c1.646,1.564,2.473,3.647,2.473,6.234v22.525
			c0,1.644,0.827,2.478,2.479,2.478c1.697,0,2.541-0.834,2.541-2.478v-23.059C427.228,206.579,425.946,203.363,423.358,200.992z"/>
	</g>
</g>
<g>
</g>
<g>
</g>
<g>
</g>
<g>
</g>
<g>
</g>
<g>
</g>
<g>
</g>
<g>
</g>
<g>
</g>
<g>
</g>
<g>
</g>
<g>
</g>
<g>
</g>
<g>
</g>
<g>
</g>
</svg>
