<?xml version="1.0" encoding="iso-8859-1"?>
<!-- Generator: Adobe Illustrator 16.0.0, SVG Export Plug-In . SVG Version: 6.00 Build 0)  -->
<!DOCTYPE svg PUBLIC "-//W3C//DTD SVG 1.1//EN" "http://www.w3.org/Graphics/SVG/1.1/DTD/svg11.dtd">
<svg version="1.1" id="Capa_1" xmlns="http://www.w3.org/2000/svg" xmlns:xlink="http://www.w3.org/1999/xlink" x="0px" y="0px"
	 width="436.353px" height="436.353px" viewBox="0 0 436.353 436.353" style="enable-background:new 0 0 436.353 436.353;"
	 xml:space="preserve" fill="#888">
<g>
	<g>
		<path style="fill:#888;" d="M146.967,170.644c-1.634,0-2.447,0.743-2.447,2.218v3.615c-1.026-1.741-2.497-3.112-4.414-4.117
			c-1.916-1.01-3.898-1.512-5.948-1.512c-5.128,0-9.207,2.033-12.238,6.105c-2.717,3.663-4.076,8.128-4.076,13.403
			c0,5.317,1.359,9.832,4.076,13.536c3.031,4.118,7.11,6.163,12.238,6.163c2.136,0,4.121-0.444,5.951-1.334
			c2.095-1.029,3.562-2.415,4.411-4.154c0,9.962-3.453,14.949-10.362,14.949c-2.36,0-4.702-0.515-7.018-1.544
			c-1.472-0.802-2.966-1.601-4.48-2.408c-0.538-0.269-1.026-0.403-1.472-0.403c-1.381,0-2.071,0.783-2.071,2.346
			c0,1.023,0.401,1.9,1.208,2.616c3.437,2.9,7.93,4.352,13.472,4.352c4.871,0,8.712-1.46,11.527-4.385
			c2.814-2.93,4.223-6.826,4.223-11.697v-35.393C149.547,171.432,148.687,170.644,146.967,170.644z M142.108,200.878
			c-1.971,3.217-4.604,4.824-7.912,4.824c-3.305,0-5.942-1.632-7.908-4.891c-1.79-2.905-2.683-6.431-2.683-10.588
			c0-4.067,0.875-7.486,2.616-10.256c1.963-3.083,4.626-4.626,7.975-4.626c3.353,0,6.008,1.562,7.979,4.689
			c1.74,2.816,2.614,6.285,2.614,10.391C144.79,194.531,143.894,198.019,142.108,200.878z"/>
		<path style="fill:#888;" d="M168.649,170.778c-2.726,0-5.63,2.484-8.712,7.445v-4.757c0-1.794-0.803-2.688-2.411-2.688
			c-1.656,0-2.482,0.946-2.482,2.82v33.108c0,1.658,0.826,2.486,2.482,2.486c1.607,0,2.411-0.828,2.411-2.486v-17.595
			c0-3.934,1.071-6.888,3.219-8.859c1.026-0.941,2.972-1.944,5.831-3.024c2.145-0.802,3.219-1.767,3.219-2.886
			c0-1.029-0.347-1.882-1.043-2.555C170.47,171.12,169.633,170.778,168.649,170.778z"/>
		<path style="fill:#888;" d="M201.426,170.581c-1.7,0-2.551,1.074-2.551,3.215c0,1.481,0,2.53,0,3.157
			c-0.934-1.746-2.438-3.196-4.512-4.358c-2.072-1.164-4.22-1.749-6.45-1.749c-4.769,0-8.602,2.173-11.499,6.5
			c-2.631,3.933-3.946,8.63-3.946,14.075c0,5.143,1.185,9.44,3.552,12.869c2.681,3.845,6.346,5.764,10.994,5.764
			c2.815,0,5.026-0.305,6.638-0.931c1.963-0.716,3.73-2.059,5.297-4.026c0,0.629,0.019,1.577,0.063,2.85
			c0.044,1.273,0.871,1.906,2.482,1.906c1.607,0,2.414-0.665,2.414-2.014V173.66C203.906,171.611,203.078,170.581,201.426,170.581z
			 M196.088,201.083c-2.078,3.208-4.824,4.823-8.229,4.823c-3.146,0-5.646-1.564-7.501-4.688c-1.64-2.815-2.459-6.26-2.459-10.327
			c0-4.066,0.82-7.505,2.459-10.319c1.855-3.083,4.356-4.625,7.501-4.625c3.493,0,6.263,1.518,8.296,4.555
			c1.814,2.726,2.72,6.081,2.72,10.053C198.874,194.671,197.948,198.173,196.088,201.083z"/>
		<path style="fill:#888;" d="M224.855,170.778c-3.653,0-7.152,2.147-10.495,6.438v-3.686c0-1.832-0.826-2.751-2.482-2.751
			c-1.697,0-2.545,0.833-2.545,2.478v48.937c0,1.651,0.814,2.479,2.448,2.479c1.719,0,2.582-0.818,2.582-2.471V204.77
			c3.164,3.616,6.664,5.426,10.496,5.426c5.169,0,9.253-2.015,12.239-6.043c2.668-3.629,4.01-8.077,4.01-13.364
			c0-5.363-1.361-9.958-4.077-13.764C233.997,172.862,229.94,170.778,224.855,170.778z M232.599,200.999
			c-1.913,3.23-4.496,4.837-7.746,4.837c-3.255,0-5.859-1.631-7.823-4.898c-1.782-2.909-2.669-6.449-2.669-10.612
			c0-4.125,0.867-7.574,2.606-10.346c1.915-3.141,4.543-4.703,7.886-4.703c3.294,0,5.9,1.584,7.812,4.765
			c1.693,2.822,2.539,6.293,2.539,10.417C235.207,194.626,234.336,198.134,232.599,200.999z"/>
		<path style="fill:#888;" d="M269.926,174.266c-2.459-2.23-5.405-3.349-8.849-3.349c-4.29,0-7.706,1.697-10.254,5.091v-13.86
			c0-1.748-0.83-2.625-2.482-2.625c-1.606,0-2.415,0.871-2.415,2.619v44.698c0,1.652,0.809,2.484,2.415,2.484
			c1.652,0,2.482-0.832,2.482-2.478v-21.047c0-3.221,0.96-5.789,2.882-7.706c1.744-1.706,3.842-2.548,6.301-2.548
			c2.458,0,4.535,0.844,6.23,2.548c1.881,1.875,2.818,4.449,2.818,7.706v21.047c0,1.646,0.804,2.478,2.411,2.478
			c1.653,0,2.479-0.832,2.479-2.478v-23.195C273.946,179.808,272.607,176.681,269.926,174.266z"/>
		<path style="fill:#888;" d="M282.594,159.523c-2.281,0-3.42,1.067-3.42,3.215c0,0.941,0.3,1.773,0.905,2.517
			c0.604,0.729,1.419,1.106,2.449,1.106c2.409,0,3.619-1.073,3.619-3.216c0-0.939-0.324-1.778-0.973-2.517
			C284.526,159.892,283.665,159.523,282.594,159.523z"/>
		<path style="fill:#888;" d="M282.556,170.846c-1.627,0-2.441,0.826-2.441,2.479v33.45c0,1.697,0.834,2.546,2.515,2.546
			c1.67,0,2.513-0.849,2.513-2.546v-33.45C285.142,171.672,284.277,170.846,282.556,170.846z"/>
		<path style="fill:#888;" d="M307.863,176.084c1.386,0,2.757,0.38,4.12,1.168c1.364,0.781,2.246,1.176,2.647,1.176
			c0.804,0,1.475-0.283,2.013-0.844c0.539-0.561,0.803-1.196,0.803-1.906c0-0.897-0.383-1.662-1.138-2.278
			c-0.941-0.804-2.301-1.454-4.089-1.949c-1.524-0.401-2.86-0.604-4.022-0.604c-5.32,0-9.54,2.061-12.669,6.172
			c-2.858,3.754-4.289,8.286-4.289,13.605c0,5.319,1.411,9.788,4.221,13.401c3.174,4.073,7.467,6.1,12.869,6.1
			c3.354,0,5.9-0.714,7.643-2.144c0.848-0.717,1.274-1.562,1.274-2.546c0-1.564-0.827-2.346-2.479-2.346
			c-0.313,0-1.297,0.28-2.95,0.832c-1.653,0.567-3.061,0.846-4.224,0.846c-3.525,0-6.301-1.43-8.311-4.297
			c-1.786-2.541-2.678-5.719-2.678-9.514c0-3.977,0.961-7.377,2.883-10.185C301.581,177.641,304.374,176.084,307.863,176.084z"/>
		<path style="fill:#888;" d="M334.135,170.778c-2.723,0-5.628,2.484-8.71,7.445v-4.757c0-1.794-0.803-2.688-2.415-2.688
			c-1.652,0-2.48,0.946-2.48,2.82v33.108c0,1.658,0.828,2.486,2.48,2.486c1.612,0,2.415-0.828,2.415-2.486v-17.595
			c0-3.934,1.07-6.888,3.216-8.859c1.025-0.941,2.972-1.944,5.829-3.024c2.149-0.802,3.22-1.767,3.22-2.886
			c0-1.029-0.346-1.882-1.037-2.555C335.956,171.12,335.118,170.778,334.135,170.778z"/>
		<path style="fill:#888;" d="M344.792,159.523c-2.279,0-3.418,1.067-3.418,3.215c0,0.941,0.301,1.773,0.903,2.517
			c0.606,0.729,1.42,1.106,2.452,1.106c2.408,0,3.618-1.073,3.618-3.216c0-0.939-0.325-1.778-0.977-2.517
			C346.724,159.892,345.864,159.523,344.792,159.523z"/>
		<path style="fill:#888;" d="M344.757,170.846c-1.627,0-2.446,0.826-2.446,2.479v33.45c0,1.697,0.839,2.546,2.513,2.546
			c1.677,0,2.513-0.849,2.513-2.546v-33.45C347.336,171.672,346.476,170.846,344.757,170.846z"/>
		<path style="fill:#888;" d="M378.9,171.991c-1.347,0-2.336,0.954-2.964,2.873l-8.914,25.965l-8.479-25.894
			c-0.584-1.965-1.59-2.942-3.024-2.942c-1.387,0-2.083,0.761-2.083,2.301c0,0.369,0.067,0.762,0.199,1.182l10.659,31.773
			c0.49,1.386,1.38,2.077,2.681,2.077c1.471,0,2.455-0.691,2.945-2.077l10.926-31.835c0.136-0.364,0.202-0.717,0.202-1.072
			C381.054,172.766,380.336,171.991,378.9,171.991z"/>
		<path style="fill:#888;" d="M414.899,187.541c0-5.142-1.381-9.214-4.151-12.233c-2.77-3.011-6.546-4.529-11.324-4.529
			c-5.055,0-9.074,2.058-12.064,6.175c-2.773,3.706-4.159,8.218-4.159,13.536c0,5.362,1.409,9.851,4.227,13.473
			c3.219,4.111,7.572,6.165,13.068,6.165c5.989,0,10.567-2.009,13.737-6.03c0.315-0.356,0.475-0.802,0.475-1.341
			c0-0.629-0.248-1.206-0.741-1.741c-0.494-0.542-1.078-0.806-1.749-0.806c-0.542,0-1.411,0.497-2.624,1.475
			c-1.658,1.302-2.913,2.167-3.763,2.61c-1.746,0.985-3.537,1.482-5.377,1.482c-3.044,0-5.744-1.34-8.096-4.021
			c-2.354-2.68-3.529-5.605-3.529-8.784h24.326C414.321,192.967,414.899,191.156,414.899,187.541z M388.827,187.878
			c0.091-3.889,1.232-6.997,3.432-9.322c2.015-2.053,4.438-3.083,7.26-3.083c2.825,0,5.202,1.029,7.127,3.083
			c2.15,2.28,3.231,5.387,3.231,9.322H388.827z"/>
		<path style="fill:#888;" d="M435.311,171.788c-0.694-0.667-1.535-1.009-2.513-1.009c-2.727,0-5.632,2.484-8.716,7.445v-4.757
			c0-1.794-0.803-2.688-2.413-2.688c-1.652,0-2.479,0.946-2.479,2.82v33.108c0,1.658,0.826,2.486,2.479,2.486
			c1.61,0,2.413-0.828,2.413-2.486v-17.595c0-3.934,1.074-6.888,3.219-8.859c1.029-0.941,2.971-1.944,5.834-3.024
			c2.144-0.802,3.218-1.767,3.218-2.886C436.35,173.314,436.002,172.461,435.311,171.788z"/>
		<path style="fill:#888;" d="M91.109,168.305l-0.13-0.065c0.121,6.445,1.083,35.219,8.547,18.932
			C99.526,187.172,94.01,193.768,91.109,168.305z"/>
		<path style="fill:#888;" d="M99.459,161.651H38.818c-2.716,0-4.916,2.204-4.916,4.92v60.64c0,1.038,0.336,1.99,0.89,2.786
			c-3.025,1.733-6.275,2.565-9.832,2.565h-0.003c-5.795,0-12.684-2.015-21.675-6.335l-3.092-1.488l-0.181,3.42
			c-0.017,0.318-0.347,7.886,5.461,14.012c5.131,5.406,13.186,7.906,24.112,7.398c-0.075,5.336,0.59,17.435,7.53,25.324l1.7,1.937
			l1.716-1.92c0.276-0.312,6.735-7.759,12.08-32.964c5.395-2.184,19.124-9.821,19.124-9.821h27.724c2.713,0,4.916-2.196,4.916-4.914
			v-60.64C104.375,163.856,102.173,161.651,99.459,161.651z M60.22,170.422l12.449-1.17c-6.812,6.476-13.611,23.175-13.611,23.175
			l-0.257-0.865l-0.083-0.267l-0.034-0.286l-0.499-3.965l-0.572-4.524l-0.057-0.452l0.06-0.445l0.534-3.939l-0.441-3.521
			l-0.375-2.968L60.22,170.422z M102.66,190.051c-1.96,1.64-5.379,5.815-6.419,8.73c-9.042,25.318-46.048,39.215-46.414,39.355
			l-1.185,0.438l-0.251,1.237c-3.501,17.004-7.508,25.775-9.678,29.601c-5.557-8.872-4.474-21.941-4.46-22.089l0.24-2.713
			l-2.712,0.237c-10.628,0.915-18.42-1.042-22.942-5.771c-2.219-2.314-3.286-4.941-3.798-7.012c7.879,3.445,14.282,5.07,19.918,5.07
			h0.003c14.189,0,23.985-10.215,32.757-34.134c1.543-4.213,3.362-8.276,5.456-12.195c0,0,12.149-27.106,24.399-27.788
			c5.09-0.185,6.616,0.284,6.616,0.284c5.188,0.827,8.474,4.072,8.474,9.068L102.66,190.051z"/>
	</g>
</g>
<g>
</g>
<g>
</g>
<g>
</g>
<g>
</g>
<g>
</g>
<g>
</g>
<g>
</g>
<g>
</g>
<g>
</g>
<g>
</g>
<g>
</g>
<g>
</g>
<g>
</g>
<g>
</g>
<g>
</g>
</svg>
