<?xml version="1.0" encoding="iso-8859-1"?>
<!-- Generator: Adobe Illustrator 16.0.0, SVG Export Plug-In . SVG Version: 6.00 Build 0)  -->
<!DOCTYPE svg PUBLIC "-//W3C//DTD SVG 1.1//EN" "http://www.w3.org/Graphics/SVG/1.1/DTD/svg11.dtd">
<svg version="1.1" id="Capa_1" xmlns="http://www.w3.org/2000/svg" xmlns:xlink="http://www.w3.org/1999/xlink" x="0px" y="0px"
	 width="415.898px" height="415.897px" viewBox="0 0 415.898 415.897" style="enable-background:new 0 0 415.898 415.897;"
	 xml:space="preserve" fill="#888">
<g>
	<g>
		<path style="fill:#888;" d="M126.044,183.256c-3.8,0-7.436,2.23-10.909,6.691v-3.832c0-1.906-0.86-2.859-2.577-2.859
			c-1.766,0-2.647,0.858-2.647,2.574v50.854c0,1.716,0.846,2.574,2.542,2.574c1.789,0,2.681-0.854,2.681-2.565v-18.118
			c3.289,3.761,6.926,5.643,10.909,5.643c5.373,0,9.611-2.098,12.715-6.285c2.78-3.762,4.169-8.396,4.169-13.883
			c0-5.579-1.414-10.346-4.239-14.304C135.54,185.422,131.323,183.256,126.044,183.256z M134.086,214.659
			c-1.988,3.35-4.673,5.027-8.051,5.027c-3.381,0-6.088-1.696-8.125-5.1c-1.852-3.022-2.777-6.705-2.777-11.032
			c0-4.277,0.902-7.861,2.708-10.745c1.989-3.26,4.722-4.886,8.194-4.886c3.425,0,6.132,1.652,8.125,4.957
			c1.758,2.931,2.637,6.533,2.637,10.823C136.798,208.032,135.897,211.688,134.086,214.659z"/>
		<path style="fill:#888;" d="M172.877,186.877c-2.554-2.32-5.618-3.482-9.192-3.482c-4.457,0-8.009,1.766-10.656,5.293v-14.406
			c0-1.817-0.86-2.726-2.58-2.726c-1.669,0-2.506,0.902-2.506,2.72v46.453c0,1.72,0.839,2.581,2.506,2.581
			c1.719,0,2.58-0.858,2.58-2.575v-21.878c0-3.336,0.995-6.012,2.993-8.007c1.812-1.76,3.994-2.644,6.549-2.644
			c2.554,0,4.711,0.884,6.478,2.644c1.951,1.95,2.924,4.62,2.924,8.007v21.878c0,1.715,0.836,2.575,2.51,2.575
			c1.715,0,2.577-0.858,2.577-2.575v-24.102C177.056,192.635,175.663,189.387,172.877,186.877z"/>
		<path style="fill:#888;" d="M199.342,183.325c-5.337,0-9.563,2.117-12.674,6.343c-2.786,3.812-4.182,8.471-4.182,13.998
			c0,5.532,1.396,10.192,4.182,13.999c3.111,4.277,7.337,6.407,12.674,6.407c5.389,0,9.614-2.062,12.682-6.197
			c2.783-3.711,4.18-8.286,4.18-13.726c0-5.619-1.416-10.373-4.251-14.279C208.793,185.512,204.591,183.325,199.342,183.325z
			 M207.642,214.881c-1.989,3.109-4.769,4.666-8.33,4.666c-3.381,0-6.111-1.716-8.194-5.152c-1.852-3.159-2.777-6.895-2.777-11.217
			c0-4.176,0.88-7.659,2.637-10.448c1.989-3.158,4.766-4.741,8.333-4.741c3.333,0,6.042,1.748,8.123,5.223
			c1.943,3.21,2.918,6.997,2.918,11.363C210.35,208.704,209.447,212.143,207.642,214.881z"/>
		<path style="fill:#888;" d="M232.083,184.724c-1.766,0-2.902,0-3.411,0v-10.574c0-1.729-0.871-2.592-2.611-2.592
			c-1.741,0-2.614,0.864-2.614,2.592v10.574h-3.623c-1.577-0.051-2.366,0.718-2.366,2.294c0,1.583,0.837,2.37,2.503,2.37h3.486
			v31.347c0,1.715,0.847,2.575,2.54,2.575c1.788,0,2.684-0.858,2.684-2.575v-31.347h3.552c1.716,0,2.578-0.775,2.578-2.332
			C234.798,185.499,233.893,184.724,232.083,184.724z"/>
		<path style="fill:#888;" d="M252.976,183.325c-5.338,0-9.565,2.117-12.675,6.343c-2.786,3.812-4.184,8.471-4.184,13.998
			c0,5.532,1.397,10.192,4.184,13.999c3.109,4.277,7.337,6.407,12.675,6.407c5.389,0,9.613-2.062,12.682-6.197
			c2.786-3.711,4.178-8.286,4.178-13.726c0-5.619-1.415-10.373-4.251-14.279C262.424,185.512,258.225,183.325,252.976,183.325z
			 M261.275,214.881c-1.992,3.109-4.767,4.666-8.331,4.666c-3.38,0-6.109-1.716-8.193-5.152c-1.851-3.159-2.777-6.895-2.777-11.217
			c0-4.176,0.882-7.659,2.637-10.448c1.988-3.158,4.769-4.741,8.334-4.741c3.333,0,6.041,1.748,8.121,5.223
			c1.945,3.21,2.923,6.997,2.923,11.363C263.986,208.704,263.08,212.143,261.275,214.881z"/>
		<path style="fill:#888;" d="M305.255,171.557c-1.793,0-2.68,0.909-2.68,2.726v15.524c-3.384-4.321-7.158-6.482-11.327-6.482
			c-5.004,0-9.01,2.192-12.02,6.56c-2.732,3.958-4.101,8.75-4.101,14.381c0,5.438,1.32,10.041,3.961,13.807
			c2.964,4.146,7.017,6.217,12.159,6.217c5.142,0,8.916-1.906,11.327-5.712v3.274c0,1.627,0.891,2.439,2.68,2.439
			c1.693,0,2.54-0.794,2.54-2.375v-47.639C307.796,172.459,306.949,171.557,305.255,171.557z M300.066,214.393
			c-2.188,3.158-5.11,4.736-8.78,4.736c-3.343,0-5.988-1.551-7.938-4.666c-1.767-2.789-2.647-6.223-2.647-10.312
			c0-4.174,0.903-7.726,2.715-10.651c1.947-3.253,4.574-4.875,7.87-4.875c3.668,0,6.573,1.577,8.705,4.728
			c1.951,2.885,2.927,6.412,2.927,10.594C302.918,208.032,301.969,211.516,300.066,214.393z"/>
		<path style="fill:#888;" d="M340.114,184.584c-1.671,0-2.506,0.857-2.506,2.574v22.496c0,3.022-0.997,5.465-2.993,7.319
			c-1.812,1.627-4.015,2.44-6.618,2.44c-2.504,0-4.645-0.813-6.406-2.44c-1.951-1.767-2.929-4.207-2.929-7.319v-22.496
			c0-1.716-0.857-2.574-2.578-2.574c-1.67,0-2.505,0.857-2.505,2.574v24.172c0,5.339,2.505,9.1,7.521,11.279
			c4.692,1.995,9.382,1.977,14.074-0.068c5.014-2.181,7.521-5.917,7.521-11.211v-24.172
			C342.69,185.441,341.832,184.584,340.114,184.584z"/>
		<path style="fill:#888;" d="M364.67,183.325c-4.909,0-8.614,2.021-11.114,6.062c0.048-0.508,0.048-1.697,0-3.552
			c-0.048-1.671-0.94-2.51-2.682-2.51c-1.696,0-2.539,0.79-2.539,2.37v35.04c0,1.715,0.846,2.575,2.539,2.575
			c1.791,0,2.682-0.858,2.682-2.575v-20.549c0-3.624,1.111-6.501,3.333-8.637c1.94-1.906,4.278-2.859,7.009-2.859
			c2.312,0,4.28,0.724,5.898,2.161c1.714,1.627,2.566,3.787,2.566,6.475v23.412c0,1.714,0.858,2.574,2.578,2.574
			c1.768,0,2.651-0.859,2.651-2.574v-23.965c0-4.226-1.344-7.569-4.028-10.027C371.105,184.469,368.143,183.325,364.67,183.325z"/>
		<path style="fill:#888;" d="M413.105,213.84c-0.559,0-1.468,0.508-2.726,1.532c-1.721,1.341-3.023,2.249-3.911,2.714
			c-1.81,1.021-3.675,1.531-5.584,1.531c-3.168,0-5.97-1.392-8.417-4.181c-2.445-2.783-3.665-5.82-3.665-9.119h25.281
			c1.211,0,1.814-1.883,1.814-5.65c0-5.337-1.444-9.576-4.318-12.709c-2.882-3.132-6.806-4.702-11.775-4.702
			c-5.246,0-9.428,2.142-12.534,6.412c-2.88,3.85-4.321,8.54-4.321,14.07c0,5.573,1.465,10.236,4.391,13.998
			c3.346,4.274,7.875,6.41,13.581,6.41c6.227,0,10.985-2.099,14.283-6.271c0.326-0.372,0.486-0.834,0.486-1.392
			c0-0.647-0.257-1.258-0.765-1.811C414.408,214.113,413.801,213.84,413.105,213.84z M392.364,191.338
			c2.1-2.135,4.615-3.202,7.549-3.202c2.935,0,5.403,1.066,7.405,3.202c2.235,2.37,3.354,5.599,3.354,9.685h-21.869
			C388.891,196.98,390.082,193.754,392.364,191.338z"/>
		<path style="fill:#888;" d="M97.597,184.082c-2.817,1.315-7.696,7.436-7.696,7.436c-0.511-0.159-1.223-0.249-2.04-0.286
			v-18.531c0-2.821-2.287-5.109-5.108-5.109H59.059c-0.206-1.137-0.46-2.142-0.781-2.765c0,0,5.21-5.839,6.034-8.838
			c0,0-0.178-2.142-8.175,9.017l-0.007,2.586H19.734c-2.822,0-5.109,2.288-5.109,5.109v13.371l-3.889,1.53
			c0,0-0.428,1.551,3.889,0.776v18.358c-4.292,4.989-10.517,12.329-11.177,13.7C2.432,222.541,1.31,230.642,0,232.435
			c0,0,2.256,1.177,5.274-11.61l9.351-9.493v24.39c0,2.822,2.288,5.108,5.109,5.108h35.503l-10.876,12.916
			c-12.451,4.194-11.069,6.329-11.069,6.329c1.659-1.469,9.621-3.342,11.629-4.549c1.535-0.915,10.634-10.339,14.806-14.696h17.492
			c0.388,0.54,0.826,0.335,0.826,0.335l0.072-0.335h4.636c2.821,0,5.108-2.286,5.108-5.108v-41.675l2.218-0.388
			C99.738,183.898,97.597,184.082,97.597,184.082z M66.663,169.192c2.931-0.146,4.308-0.254,4.489,2.033
			c0,0-4.381-0.667-7.552,1.156C63.599,172.383,63.723,169.333,66.663,169.192z M25.928,223.791
			c-0.79-0.661-1.253-1.154-1.253-1.154c-0.239-0.536-0.456-1.057-0.668-1.578c-0.607-1.066-1.023-2.134-1.186-3.17
			c-8.962-26.671,12.499-33.355,25.413-35.993c0.24,1.677,1.426,7.854,6.275,12.881l-0.302-0.237l-22.725,34.645
			C29.548,227.591,27.537,225.736,25.928,223.791z M38.37,234.187c0,0-3.172-1.964-6.658-4.815l27.15-31.157
			c3.641,2.181,8.5,3.635,15.006,3.501c0,0,0.025,0.445,0.058,0.191C73.913,214.914,72.473,242.919,38.37,234.187z M75.58,199.727
			c-23.826,0.489-25.691-20.258-25.691-20.258c10.075-3.114,15.725,1.124,19.562,3.933C77.464,189.28,75.58,199.727,75.58,199.727z
			 M78.568,187.431c-1.029,3.572,2.792-1.125-15.518-11.806l0.203-0.502c0,0,6.815-2.205,11.918,1.875
			C79.664,180.592,79.594,183.86,78.568,187.431z M81.733,185.359c1.147-3.47-0.381-7.632-0.381-7.632
			c2.282-0.28,2.444,1.088,2.895,3.991C84.696,184.622,81.733,185.359,81.733,185.359z"/>
	</g>
</g>
<g>
</g>
<g>
</g>
<g>
</g>
<g>
</g>
<g>
</g>
<g>
</g>
<g>
</g>
<g>
</g>
<g>
</g>
<g>
</g>
<g>
</g>
<g>
</g>
<g>
</g>
<g>
</g>
<g>
</g>
</svg>
