<?xml version="1.0" encoding="utf-8"?>
<!-- Generator: Adobe Illustrator 21.1.0, SVG Export Plug-In . SVG Version: 6.00 Build 0)  -->
<svg version="1.1" id="Layer_1" xmlns="http://www.w3.org/2000/svg" xmlns:xlink="http://www.w3.org/1999/xlink" x="0px" y="0px"
	 viewBox="0 0 512 432.1" style="enable-background:new 0 0 512 432.1;" xml:space="preserve">
<style type="text/css">
	.Drop_x0020_Shadow{fill:none;}
	.Outer_x0020_Glow_x0020_5_x0020_pt{fill:none;}
	.Jive_GS{fill:#A6D0E4;}
	.st0{fill:#5793CE;}
	.st1{fill:#C4D9E8;}
	.st2{fill:#D4ECFF;}
	.st3{fill:#173D7A;}
	.st4{fill:#FFFFFF;}
	.st5{fill:#396CAA;}
	.st6{fill:#D3D0CF;}
	.st7{fill:#F2F2F2;}
	.st8{fill:#FFC2B0;}
	.st9{fill:#EA9C92;}
	.st10{fill:#274F89;}
</style>
<g>
	
		<rect x="431.3" y="375.2" transform="matrix(0.2483 0.9687 -0.9687 0.2483 693.364 -133.7652)" class="st0" width="3.2" height="9.3"/>
	
		<rect x="426.7" y="379.7" transform="matrix(0.2482 0.9687 -0.9687 0.2482 694.2827 -125.9424)" class="st0" width="3.2" height="9.3"/>
	
		<rect x="422.1" y="384.2" transform="matrix(0.2482 0.9687 -0.9687 0.2482 695.162 -118.1399)" class="st0" width="3.2" height="9.3"/>
	
		<rect x="417.5" y="388.6" transform="matrix(0.2483 0.9687 -0.9687 0.2483 696.029 -110.3443)" class="st0" width="3.2" height="9.3"/>
</g>
<g>
	<path class="st1" d="M238.8,101.1l-84.4,49.5c-21.4-6.6-48.6-4.5-66.6,6c-21.9,12.8-21.7,33.4,0.3,45.9c5,2.8,10.6,5,16.6,6.5
		c4.2,1.1,8.7,1.8,13.2,2.3c17.5,1.7,36.3-1.4,49.8-9.3c16.4-9.6,20.4-23.5,12.2-35.2l11.6-6.8l-0.3-7.4l12.3-0.1l-0.3-6.9l12.3-0.1
		l-0.3-6.9l12.3-0.1l-0.3-6.9l12.3-0.1l-0.3-6.9l13.1-0.1l4-2.3l4.4-18.2L238.8,101.1z M120.1,195.9c-5.7,3.3-15,3.4-20.7,0.1
		c-5.7-3.3-5.8-8.6-0.1-12c5.7-3.3,15-3.4,20.7-0.1C125.7,187.2,125.8,192.5,120.1,195.9z"/>
	<path class="st1" d="M285,414.3l-113.8-65.4c-7.7-4.4-6.7-12.2,2.1-17.3l110.5-63.8c8.8-5.1,22.2-5.7,29.9-1.2L427.5,332
		c7.7,4.4,6.7,12.2-2.1,17.3l-110.5,63.8C306,418.2,292.6,418.7,285,414.3z"/>
	<g>
		<g>
			<path class="st0" d="M418.4,265.9l-19.7-11.4l72.5-41.9c3.4-2,3.4-5.2,0-7.2l-74.1-42.8c-3.4-2-9-2-12.4,0l-72.5,41.9l-19.7-11.4
				l72.5-41.9c14.3-8.2,37.5-8.2,51.8,0l74.1,42.8c14.3,8.2,14.3,21.7,0,29.9L418.4,265.9z"/>
		</g>
		<g>
			<path class="st2" d="M450.1,270.9c0-10.5-6.4-22.7-14.3-27.3l-131.4-75.9c-3.5-2-6.8-2.2-9.3-0.8l0,0l-156.9,91.2L290,372.5
				l154.6-89.7c0.5-0.2,0.9-0.5,1.4-0.8l0,0l0,0C448.5,280,450.1,276.2,450.1,270.9z"/>
			<path class="st3" d="M290,372.5l154.6-89.7c0.5-0.2,0.9-0.5,1.4-0.8l0,0l0,0c2.6-2,4.2-5.8,4.2-11c0-5-1.5-10.4-3.8-15.2
				L270.1,357.5L290,372.5z"/>
			<path class="st0" d="M280.1,372.1l-131.4-75.9c-7.9-4.6-14.3-16.8-14.3-27.3l0,0c0-10.5,6.4-15.4,14.3-10.8L280.1,334
				c7.9,4.6,14.3,16.8,14.3,27.3l0,0C294.4,371.8,288,376.7,280.1,372.1z"/>
		</g>
		<path class="st4" d="M260.4,346.5l-15.8-9.1c-1.6-0.9-2.8-3.3-2.8-5.4l0,0c0-2.1,1.3-3.1,2.8-2.2l15.8,9.1
			c1.6,0.9,2.8,3.3,2.8,5.4l0,0C263.3,346.5,262,347.4,260.4,346.5z"/>
	</g>
	<g>
		<g>
			<polygon class="st5" points="141.8,79.3 168.8,94.7 196.3,78.5 196.3,71.5 196,71.6 196,71.1 208.3,71 208.2,64.1 220.2,64 
				220.1,57.1 232.1,57 232.1,50.1 244.1,50 244,43.1 256.9,43 260.9,40.6 265.3,22.5 265.2,15.4 263.1,22.2 243.6,19.6 			"/>
			<g>
				<g>
					<g>
						<g>
							<g>
								<polygon class="st2" points="168.7,87.6 196.3,71.5 195.9,64.1 208.2,64 207.9,57.1 220.1,57 219.8,50 232.1,50 231.8,43 
									244,43 243.7,36 256.8,35.9 260.8,33.6 265.2,15.4 243.5,12.5 141.7,72.3 								"/>
							</g>
						</g>
						<g>
							<g>
								<path class="st5" d="M187.1,76.9c-2.8-3.9-6.9-7.6-12.5-10.8c-3.9-2.2-8.3-4-12.9-5.5l-19.9,11.7l27,15.3L187.1,76.9z"/>
							</g>
						</g>
						<g>
							<g>
								<polygon class="st0" points="264.4,18.5 265.2,15.4 261.6,14.9 175.5,65.4 180,68 								"/>
							</g>
						</g>
						<g>
							<g>
								<polygon class="st6" points="76.5,101.5 76.2,91.5 79.4,98.3 								"/>
							</g>
						</g>
						<path class="st5" d="M93.1,124c22.1,12.5,57.7,12.3,79.6-0.6c11-6.4,16.4-14.8,16.3-23.2l0,0l-0.3-10.6l-1.8,2
							c-2.5-5.2-7.4-10.1-14.5-14.2C150.3,65,114.7,65.2,92.8,78C70.9,90.9,71.1,111.5,93.1,124z M125,105.3c5.7,3.3,5.8,8.6,0.1,12
							c-5.7,3.3-15,3.4-20.7,0.1c-5.7-3.3-5.8-8.6-0.1-12C110,102.1,119.3,102,125,105.3z"/>
						<g>
							<g>
								<path class="st7" d="M92.8,114c22.1,12.5,57.7,12.3,79.6-0.6c21.9-12.8,21.7-33.4-0.3-45.9C150,55,114.4,55.2,92.5,68.1
									C70.6,80.9,70.8,101.5,92.8,114z M124.7,95.3c5.7,3.3,5.8,8.6,0.1,12c-5.7,3.3-15,3.4-20.7,0.1c-5.7-3.3-5.8-8.6-0.1-12
									C109.7,92.1,119,92,124.7,95.3z"/>
							</g>
						</g>
						<path class="st0" d="M118.4,119.5c-4.9,0.8-10.2,0.1-14-2.1c-4.1-2.3-5.3-5.8-3.5-8.7l-10-7.9c0,0-5.2-5.9-10.4-11.7
							c-8,11.8-3.8,25.6,12.7,35c7.3,4.1,15.4,6.5,24.7,7.8L118.4,119.5z"/>
						<g>
							<g>
								<path class="st2" d="M92.8,114c5,2.8,10.6,5,16.6,6.5c4.2,1.1,8.7,1.8,13.2,2.3c17.5,1.7,36.3-1.4,49.8-9.3
									c21.9-12.8,21.7-33.4-0.3-45.9C150,55,114.4,55.2,92.5,68.1C70.6,80.9,70.8,101.5,92.8,114z M124.7,95.3
									c5.7,3.3,5.8,8.6,0.1,12c-5.7,3.3-15,3.4-20.7,0.1c-5.7-3.3-5.8-8.6-0.1-12C109.7,92.1,119,92,124.7,95.3z"/>
							</g>
						</g>
						<g>
							<g>
								<g>
									<path class="st5" d="M82.4,91.2c1.1-6.4,5.8-12.7,14.3-17.6c19.5-11.4,51.2-11.6,70.8-0.5c9.8,5.5,14.7,12.8,14.8,20.2
										c1.4-8.3-3.5-16.9-14.6-23.3c-19.6-11.2-51.3-10.9-70.8,0.5C87.1,76.3,82.3,83.8,82.4,91.2z"/>
								</g>
							</g>
						</g>
					</g>
					<g>
						<g>
							<g>
								<g>
									<path class="st5" d="M69.2,182.2c-4,0-7.7-0.9-11-2.8c-7.9-4.5-12.3-13.5-12.4-25.4c-0.2-21.7,14.9-48.2,33.6-59.2
										c10.2-6,20.2-6.9,28.1-2.4c3.4,1.9,6.1,4.7,8.2,8.2c2.7,4.7,4.2,10.5,4.2,17.2C120,139.4,105,166,86.3,177
										C80.4,180.4,74.5,182.2,69.2,182.2z M96.5,97.5c-4,0-8.4,1.4-13.1,4.1c-16.5,9.7-29.8,33.2-29.7,52.3
										c0.1,8.9,3,15.5,8.4,18.5c5.3,3,12.5,2.2,20.2-2.3c16.5-9.7,29.8-33.2,29.7-52.3c0-5.3-1.1-9.8-3.1-13.2l0,0
										c-1.3-2.3-3.1-4.1-5.3-5.3C101.5,98.1,99.1,97.5,96.5,97.5z"/>
								</g>
							</g>
						</g>
					</g>
				</g>
			</g>
		</g>
		<path class="st2" d="M106.8,115.1l15.7,3.8l2.3-11.7c-5.7,3.3-15,3.4-20.7,0.1L106.8,115.1z"/>
		<path class="st2" d="M92.8,114c5,2.8,10.6,5,16.6,6.5c4.2,1.1,8.7,1.8,13.2,2.3c17.5,1.7,36.3-1.4,49.8-9.3l-64-1.4L92.8,114z"/>
		<path class="st5" d="M116.5,122.1c0,0-6.8-1.1-13.9-3.6v9.8c3.4,1.2,9,2.9,13.7,3.5C131,133.8,116.5,122.1,116.5,122.1z"/>
	</g>
	<path class="st0" d="M106.3,119.7c-2.9-0.9-6.1-2-9-3.3c-8.6-4,2.3,10.8,2.3,10.8s2.9,1.2,6.8,2.3V119.7z"/>
</g>
<polygon class="st0" points="266.8,292.1 238.8,310.2 225.1,307.9 258.4,291.9 "/>
<path class="st3" d="M232.9,383.2c0,0-8.1-4.1-13,2c-5,6.1-12,20.3-12.2,30c-0.2,9.7,7.6,9,12.3,6.7c4.7-2.3,18.3-22.1,19.1-26
	c0.8-3.9-1-9.1-2.3-10.2C235.5,384.8,232.9,383.2,232.9,383.2z"/>
<path class="st0" d="M234.7,381.3l0.4,8.4c0.1,1.8-0.8,3.5-2.4,4.3c-1.4,0.8-3.5,1.4-6.2,1c-6.1-1-6.6-2.7-7-11.1
	C219,375.5,234.7,381.3,234.7,381.3z"/>
<g>
	<path class="st3" d="M203.4,367.2c0,0-8.1-4.1-13,2c-5,6.1-12,20.3-12.2,30c-0.2,9.7,7.6,9,12.3,6.7c4.7-2.3,18.3-22.1,19.1-26
		c0.8-3.9-1-9.1-2.3-10.2S203.4,367.2,203.4,367.2z"/>
	<path class="st0" d="M205.2,365.2l0.4,8.4c0.1,1.8-0.8,3.5-2.4,4.3c-1.4,0.8-3.5,1.4-6.2,1c-6.1-1-6.6-2.7-7-11.1
		C189.5,359.5,205.2,365.2,205.2,365.2z"/>
	<path class="st2" d="M277.1,211.9c-2.4-38.8-42,5.7-42,5.7l-27.1,26.6l-24.4,26.8c-4.8,5.2-7,12.3-6.1,19.4l9.9,75.3
		c0.5,3.7,3.7,6.5,7.4,6.4c1.1,0,2.3-0.1,3.7-0.3c8.8-1.4,8.2-9.8,8.2-9.8l-1.8-70.4l51.3-30.9C256.1,260.7,279.5,250.7,277.1,211.9
		z"/>
</g>
<path class="st0" d="M224.3,278.3l-7.3-2.7c-0.2,0-12.4,11.8-12.3,16l5.5,1.8L224,280L224.3,278.3z"/>
<path class="st0" d="M266.8,292.1c0,0,30.5-17.4,34.2-24.7c1.4-2.9,3.7-5.8-5.2-10.2l-40.7,29l1.8,10L266.8,292.1z"/>
<path class="st2" d="M306.6,226.9c-2.5-38.8-42,5.7-42,5.7l-27.1,26.6L213,286c-4.8,5.2-7,12.3-6.1,19.4l9.9,75.3
	c0.5,3.7,3.7,6.5,7.4,6.4c1.1,0,2.3-0.1,3.7-0.3c8.8-1.4,8.2-9.8,8.2-9.8l-1.8-70.4l51.3-30.9C285.6,275.7,308.9,262.4,306.6,226.9z
	"/>
<path class="st0" d="M283.1,102.1c30.1,12.5,29.5,30.2,29.5,30.2s-5.9,65.2-3.9,108.7c0.8,18.2-96.6,19.6-82.1-29
	c17.1-57.2,10.7-103.5,18.7-110.5C253.4,94.5,275.4,98.8,283.1,102.1z"/>
<ellipse transform="matrix(0.2494 -0.9684 0.9684 0.2494 98.1517 354.5555)" class="st8" cx="277.8" cy="114" rx="11.4" ry="15.5"/>
<path class="st4" d="M280,127.1c-1.8,0-3.6-0.2-5.4-0.7c-4.3-1.1-8-3.4-10.5-6.5c-2.6-3.2-3.5-6.8-2.7-10.2
	c1.8-6.9,10.6-10.6,19.6-8.2c4.3,1.1,8,3.4,10.5,6.5c2.6,3.2,3.5,6.8,2.7,10.2C292.8,123.7,286.9,127.1,280,127.1z M275.5,103.7
	c-5.6,0-10.3,2.6-11.3,6.8c-0.6,2.5,0.1,5.2,2.1,7.7c2.1,2.6,5.3,4.5,9,5.5c7.5,1.9,14.7-0.8,16.1-6.2c0.6-2.5-0.1-5.2-2.1-7.7
	c-2.1-2.6-5.3-4.5-9-5.5C278.7,103.9,277.1,103.7,275.5,103.7z"/>
<path class="st8" d="M271.1,100.7c0,0,0.3,1.2-0.3,10.7c-0.2,3,10.3,5.8,13,3.1c2.7-2.7,1.6-5.5,2.3-15.7
	C286.8,88.6,271.1,100.7,271.1,100.7z"/>
<path class="st9" d="M286.1,98.8c0,0-2.6,9.5-15.3,13.1l0.2-8.6L286.1,98.8z"/>
<ellipse transform="matrix(0.9682 -0.2503 0.2503 0.9682 -11.518 70.6023)" class="st8" cx="271.8" cy="80.6" rx="23.1" ry="23.1"/>
<path class="st9" d="M277.1,81.4c0,0-12.7,5.5-21.6,5.5c-8.8,0.1-6.9-7.3-6.9-7.3l26.2-3.8L277.1,81.4z"/>
<path class="st3" d="M252.9,82.9c0,0,11.1-4.7,20.8-2.7c2.3,0.5,4.4,1.7,5.9,3.5c0.5,0.6,1.1,1.1,1.8,1.3c1.7,0.4,4.6-6.8,7.9-6.9
	c3.4-0.2,5.6,2.2,2.8,6.6c-2.8,4.4-1.8,9.3-0.6,10c1.3,0.7,14.7-9.6,2.8-33c-11.8-23.5-41.9-10.8-46.6-6.1c0,0-4.9,4.3-8.9,0.5
	C238.9,56,234.4,89.7,252.9,82.9z"/>
<path class="st8" d="M295.7,179.9v17.6c0,2-0.8,3.9-2.3,5.3l-36.2,33l4.1,6.3l47.8-34.6c2.2-1.6,3.7-4.1,4-6.8l3.2-30.7L295.7,179.9
	z"/>
<path class="st0" d="M310.1,123.5c0,0,11,16.5,15.1,59.9c0,0-18.7,6.1-29.4,2.6C285.1,182.6,310.1,123.5,310.1,123.5z"/>
<path class="st5" d="M293.7,144.4c0,0-4.3,23-4.5,33.8c-0.1,3,1.7,5.7,4.5,6.7l0,0V144.4z"/>
<g>
	<path class="st3" d="M284.4,258.7l-8-1.1l-51.6-29.8c-1.7-1-4.5-0.8-6.5,0.3l-36.6,21.1l-4.8-0.6v4.8l0,0c0,0.6,0.3,1.2,1.1,1.7
		l58.5,33.8c1.7,1,4.5,0.8,6.5-0.3l39.8-23c1.1-0.6,1.6-1.4,1.6-2.2h0V258.7z"/>
	<path class="st5" d="M245.6,239.9l-3.7-2.1h-40.3l-19.9,11.5l-4.8-0.6v4.8l0,0c0,0.6,0.3,1.2,1.1,1.7l58.5,33.8
		c0.9,0.5,2.1,0.7,3.3,0.6L245.6,239.9z"/>
	<path class="st0" d="M179.1,248.9l-2.1-0.3v4.8l0,0c0,0.6,0.3,1.2,1.1,1.7l1,0.6V248.9z"/>
	<path class="st10" d="M237.1,289.1c1.6,0.6,3.8,0.5,5.5-0.3v-8.2h-5.5V289.1z"/>
	<path class="st4" d="M236.5,284L178,250.3c-1.7-1-1.4-2.6,0.5-3.7l39.8-23c1.9-1.1,4.8-1.2,6.5-0.3l58.5,33.8
		c1.7,1,1.4,2.6-0.5,3.7l-39.8,23C241,284.9,238.2,285,236.5,284z"/>
	<path class="st2" d="M235.5,278.9l-48.6-28.1c-1.4-0.8-1.2-2.2,0.4-3.1l21.3-12c1.6-0.9,4-1,5.4-0.2l48.6,28.1
		c1.4,0.8,1.2,2.2-0.4,3.1l-21.3,12C239.3,279.6,236.9,279.7,235.5,278.9z"/>
</g>
<path class="st8" d="M220.6,222.4l-0.6,4c-0.5,3.4-0.4,6.9,0.3,10.3l0.7,3.6c0.4,2,2,3.6,4,3.9l0,0c1.6,0.3,3.1-0.8,3.2-2.4l1-8.6
	c0,0,2.2,2.9,3.3,2.9c1.1,0-1.2-8.6-3.6-13.5C226.4,217.8,220.6,222.4,220.6,222.4z"/>
<path class="st8" d="M240.4,158.3l-6.3,12.4c-1.5,2.9-2.4,6.1-2.6,9.4l-2.7,42.5l-8.3-0.2l-3.7-47.7c-0.1-1.5,0-3,0.2-4.4l4.3-24.2
	L240.4,158.3z"/>
<g>
	<path class="st3" d="M234.5,287.3l-4.9-6.4L178.1,251c-1.7-1-3-3.5-3-5.7l0-42.2l-3-3.9l2.8-1.6l0,0c0.5-0.3,1.2-0.3,2,0.1
		l58.4,33.8c1.7,1,3,3.5,3,5.7l0,46c0,1.2-0.4,2.1-1.1,2.5h0L234.5,287.3z"/>
	<path class="st5" d="M198.9,263.1l-3.7-2.1L175.1,226l0-22.9l-3-3.9l2.8-1.6l0,0c0.5-0.3,1.2-0.3,2,0.1l58.4,33.8
		c0.9,0.5,1.7,1.5,2.2,2.6L198.9,263.1z"/>
	<path class="st0" d="M173.5,200.9l-1.3-1.7l2.8-1.6l0,0c0.5-0.3,1.2-0.3,2,0.1l1,0.6L173.5,200.9z"/>
	<path class="st10" d="M235.9,231.9c1.3,1.1,2.3,3.1,2.4,4.9l-5.7,3.3l-2.7-4.8L235.9,231.9z"/>
	<path class="st0" d="M232.6,233.2l-58.4-33.8c-1.7-1-3,0.1-3,2.3l0,46c0,2.2,1.3,4.8,3,5.7l58.4,33.8c1.7,1,3-0.1,3-2.3l0-46
		C235.6,236.7,234.3,234.1,232.6,233.2z"/>
</g>
<path class="st8" d="M261.3,242.1l-0.9,1.9c-1.1,2.2-2.8,4.1-4.9,5.4l-5.8,3.6c-1.8,1.1-4.1,1.2-5.9,0.1c-0.1,0-0.1-0.1-0.2-0.1
	c-1.8-1.2-2-3.8-0.5-5.4l6.1-6.2c0,0-3.4,2.6-4.4,1.6c-0.7-0.8,3.3-4.5,6.4-4.7c3.1-0.1,6.1-2.5,6.1-2.5L261.3,242.1z"/>
<path class="st0" d="M246,101.4c0,0-22.2,24.2-31.2,46.4c0,0,7.6,13.7,26.2,19.1S246,101.4,246,101.4z"/>
<path class="st5" d="M236.8,165.4l3.6-34.8l-8.5,32.6C233.4,164,235.1,164.8,236.8,165.4z"/>
<path class="st4" d="M262.6,96.5l-6-1.6c0,0,2.9,4.5,7,5.6c4.2,1.1,4.8-2.4,4.8-2.4L262.6,96.5z"/>
<path class="st2" d="M149.2,43c-9.2,0-16.7-7.5-16.7-16.7c0-9.2,7.5-16.7,16.7-16.7s16.7,7.5,16.7,16.7
	C165.9,35.5,158.4,43,149.2,43z M149.2,13.2c-7.2,0-13.1,5.9-13.1,13.1c0,7.2,5.9,13.1,13.1,13.1c7.2,0,13.1-5.9,13.1-13.1
	C162.3,19.1,156.4,13.2,149.2,13.2z"/>
<path class="st0" d="M98.4,378.1l-8.1-16.4l16.4-8.1l8.1,16.4L98.4,378.1z M95.3,363.3l4.8,9.8l9.8-4.8l-4.8-9.8L95.3,363.3z"/>
<path class="st0" d="M336.2,124.1l-8.1-16.4l16.4-8.1l8.1,16.4L336.2,124.1z M333.1,109.4l4.8,9.8l9.8-4.8l-4.8-9.8L333.1,109.4z"/>
<rect x="70.3" y="279.6" transform="matrix(0.8974 -0.4412 0.4412 0.8974 -117.5496 61.9847)" class="st0" width="8.4" height="8.4"/>
<path class="st0" d="M371.6,35.2L326.9,9.3c-0.9-0.5-1.7-0.5-2.3-0.2c0,0,0,0,0,0l-4.3,2.5c0,0,1.9,0.7,3.1,1.1v32.6
	c0,2.7,1.6,5.7,3.6,6.9l42.8,24.7v3.8l4.4-2.5l0,0c0.7-0.5,1.2-1.4,1.2-2.9V42.1C375.2,39.4,373.6,36.3,371.6,35.2z"/>
<path class="st2" d="M367.2,80.6l-44.8-25.8c-2-1.1-3.6-4.2-3.6-6.9V14.6c0-2.7,1.6-3.9,3.6-2.7l44.8,25.8c2,1.1,3.6,4.2,3.6,6.9
	v33.3C370.8,80.6,369.2,81.8,367.2,80.6z"/>
<g>
	<path class="st4" d="M337.5,43.3c0,1.9-1.4,2.7-3,1.7c-1.7-1-3-3.3-3-5.2s1.4-2.7,3-1.7C336.2,39.1,337.5,41.4,337.5,43.3z"/>
	<path class="st4" d="M346.7,48.6c0,1.9-1.4,2.7-3,1.7c-1.7-1-3-3.3-3-5.2c0-1.9,1.4-2.7,3-1.7C345.3,44.3,346.7,46.7,346.7,48.6z"
		/>
	<path class="st4" d="M355.8,53.9c0,1.9-1.4,2.7-3,1.7c-1.7-1-3-3.3-3-5.2s1.4-2.7,3-1.7C354.5,49.6,355.8,52,355.8,53.9z"/>
</g>
<g>
	<g>
		<path class="st0" d="M62.2,318.4l-43.9-25.4c-0.9-0.5-1.7-0.5-2.3-0.2c0,0,0,0,0,0l-4.3,2.5c0,0,1.9,0.7,3,1.1v32
			c0,2.6,1.6,5.6,3.5,6.8l42,24.2v3.8l4.3-2.5l0,0c0.7-0.4,1.2-1.4,1.2-2.8v-32.7C65.7,322.6,64.1,319.5,62.2,318.4z"/>
		<path class="st2" d="M57.8,363l-43.9-25.4c-2-1.1-3.5-4.1-3.5-6.8v-32.7c0-2.6,1.6-3.8,3.5-2.7l43.9,25.4c2,1.1,3.5,4.1,3.5,6.8
			v32.7C61.3,362.9,59.8,364.1,57.8,363z"/>
	</g>
	<g>
		<path class="st4" d="M28.7,326.4c0,1.9-1.3,2.7-3,1.7c-1.6-0.9-3-3.2-3-5.1c0-1.9,1.3-2.7,3-1.7C27.3,322.2,28.7,324.5,28.7,326.4
			z"/>
		<path class="st4" d="M37.6,331.6c0,1.9-1.3,2.7-3,1.7c-1.6-0.9-3-3.2-3-5.1c0-1.9,1.3-2.7,3-1.7C36.3,327.4,37.6,329.7,37.6,331.6
			z"/>
		<path class="st4" d="M46.6,336.8c0,1.9-1.3,2.7-3,1.7c-1.6-0.9-3-3.2-3-5.1c0-1.9,1.3-2.7,3-1.7C45.3,332.6,46.6,334.9,46.6,336.8
			z"/>
	</g>
</g>
</svg>
