<?xml version="1.0" encoding="iso-8859-1"?>
<!-- Generator: Adobe Illustrator 16.0.0, SVG Export Plug-In . SVG Version: 6.00 Build 0)  -->
<!DOCTYPE svg PUBLIC "-//W3C//DTD SVG 1.1//EN" "http://www.w3.org/Graphics/SVG/1.1/DTD/svg11.dtd">
<svg version="1.1" id="Capa_1" xmlns="http://www.w3.org/2000/svg" xmlns:xlink="http://www.w3.org/1999/xlink" x="0px" y="0px"
	 width="433.311px" height="433.312px" viewBox="0 0 433.311 433.312" style="enable-background:new 0 0 433.311 433.312;"
	 xml:space="preserve" fill="#888">
<g>
	<g>
		<path d="M109.431,200.024c-1.697,0-2.794,0-3.282,0v-10.175c0-1.659-0.839-2.492-2.514-2.492c-1.677,0-2.513,0.833-2.513,2.492
			v10.175h-3.489c-1.516-0.037-2.278,0.7-2.278,2.21c0,1.527,0.806,2.28,2.415,2.28h3.352v30.164c0,1.656,0.813,2.482,2.444,2.482
			c1.722,0,2.583-0.826,2.583-2.482v-30.16h3.418c1.652,0,2.479-0.745,2.479-2.244S111.174,200.024,109.431,200.024z"/>
		<path d="M140.463,202.108c-2.455-2.236-5.407-3.356-8.846-3.356c-4.289,0-7.708,1.697-10.256,5.099v-13.867
			c0-1.748-0.826-2.625-2.478-2.625c-1.608,0-2.415,0.877-2.415,2.618v44.697c0,1.662,0.806,2.488,2.415,2.488
			c1.652,0,2.478-0.826,2.478-2.479v-21.045c0-3.224,0.959-5.791,2.882-7.716c1.745-1.69,3.844-2.54,6.301-2.54
			c2.455,0,4.536,0.848,6.233,2.54c1.878,1.883,2.815,4.449,2.815,7.716v21.045c0,1.653,0.803,2.479,2.415,2.479
			c1.649,0,2.478-0.826,2.478-2.479v-23.195C144.486,207.648,143.145,204.519,140.463,202.108z"/>
		<path d="M181.416,215.377c0-5.137-1.386-9.216-4.153-12.235c-2.774-3.017-6.548-4.524-11.331-4.524
			c-5.052,0-9.071,2.053-12.063,6.17c-2.774,3.708-4.156,8.225-4.156,13.538c0,5.359,1.408,9.854,4.223,13.471
			c3.218,4.118,7.574,6.165,13.072,6.165c5.985,0,10.564-2.009,13.737-6.03c0.313-0.356,0.471-0.803,0.471-1.341
			c0-0.623-0.248-1.205-0.74-1.741c-0.493-0.534-1.074-0.805-1.748-0.805c-0.537,0-1.411,0.497-2.622,1.479
			c-1.656,1.289-2.914,2.169-3.762,2.613c-1.748,0.984-3.539,1.475-5.376,1.475c-3.046,0-5.744-1.338-8.098-4.02
			c-2.352-2.682-3.527-5.605-3.527-8.786h24.328C180.833,220.804,181.416,218.992,181.416,215.377z M155.343,215.714
			c0.088-3.885,1.23-6.997,3.428-9.316c2.018-2.06,4.438-3.081,7.264-3.081c2.825,0,5.198,1.021,7.127,3.081
			c2.15,2.281,3.228,5.385,3.228,9.316H155.343z"/>
		<path d="M231.01,201.777c-2.409-2.104-5.318-3.158-8.706-3.158c-5.057,0-8.985,2.144-11.794,6.438
			c-2.325-4.295-5.707-6.438-10.13-6.438c-3.977,0-7.237,1.766-9.783,5.293v-2.382c0.045-1.937-0.769-2.911-2.446-2.911
			c-1.629,0-2.447,0.984-2.447,2.949v32.979c0,1.654,0.826,2.48,2.481,2.48c1.608,0,2.412-0.835,2.412-2.486v-20.221
			c0-3.214,0.981-5.821,2.946-7.79c1.792-1.742,3.915-2.619,6.367-2.619c2.148,0,3.959,0.718,5.434,2.154
			c1.607,1.607,2.415,3.804,2.415,6.575v21.899c0,1.651,0.82,2.483,2.478,2.483c1.607,0,2.408-0.817,2.408-2.478v-20.127
			c0-3.254,1.013-5.867,3.019-7.824c1.786-1.785,3.907-2.681,6.375-2.681c2.141,0,3.927,0.744,5.357,2.212
			c1.606,1.613,2.415,3.825,2.415,6.641v21.85c0,1.613,0.846,2.413,2.547,2.413c1.652,0,2.478-0.806,2.478-2.422V210.52
			C234.835,206.938,233.566,204.027,231.01,201.777z"/>
		<path d="M271.769,215.377c0-5.137-1.385-9.216-4.156-12.235c-2.771-3.017-6.545-4.524-11.324-4.524
			c-5.056,0-9.073,2.053-12.072,6.17c-2.771,3.708-4.156,8.225-4.156,13.538c0,5.359,1.409,9.854,4.231,13.471
			c3.208,4.118,7.568,6.165,13.065,6.165c5.985,0,10.562-2.009,13.737-6.03c0.313-0.356,0.47-0.803,0.47-1.341
			c0-0.623-0.248-1.205-0.736-1.741c-0.497-0.534-1.08-0.805-1.748-0.805c-0.543,0-1.412,0.497-2.626,1.479
			c-1.654,1.289-2.912,2.169-3.76,2.613c-1.742,0.984-3.54,1.475-5.376,1.475c-3.052,0-5.745-1.338-8.097-4.02
			c-2.351-2.682-3.532-5.605-3.532-8.786h24.324C271.183,220.804,271.769,218.992,271.769,215.377z M245.689,215.714
			c0.09-3.885,1.233-6.997,3.433-9.316c2.02-2.06,4.435-3.081,7.263-3.081c2.83,0,5.204,1.021,7.125,3.081
			c2.152,2.281,3.229,5.385,3.229,9.316H245.689z"/>
		<path d="M289.459,187.359h-4.358c-3.617,0-5.428,2.06-5.428,6.164v6.438h-3.151c-1.831,0-2.744,0.858-2.744,2.581
			c0,1.587,0.913,2.376,2.744,2.376h3.151v29.758c0,1.66,0.802,2.486,2.415,2.486c1.652,0,2.478-0.826,2.478-2.486v-29.761h4.15
			c1.925,0,2.888-0.833,2.888-2.501c0-1.639-0.916-2.452-2.755-2.452c-2.143,0-3.577,0-4.287,0v-4.689
			c0-1.704,0.379-2.727,1.144-3.089c0.401-0.171,1.654-0.26,3.75-0.26c1.976,0,2.95-0.743,2.95-2.217
			C292.41,188.141,291.431,187.359,289.459,187.359z"/>
		<path d="M309.908,198.684c-5.145,0-9.218,2.04-12.204,6.104c-2.676,3.663-4.017,8.152-4.017,13.476
			c0,5.314,1.341,9.805,4.017,13.473c2.986,4.109,7.054,6.164,12.204,6.164c5.181,0,9.247-1.981,12.195-5.967
			c2.678-3.58,4.019-7.976,4.019-13.2c0-5.405-1.359-9.991-4.092-13.744C318.997,200.787,314.954,198.684,309.908,198.684z
			 M317.889,229.052c-1.918,2.992-4.583,4.491-8.016,4.491c-3.253,0-5.88-1.658-7.88-4.964c-1.786-3.038-2.671-6.633-2.671-10.789
			c0-4.021,0.845-7.378,2.537-10.052c1.918-3.044,4.588-4.562,8.02-4.562c3.209,0,5.807,1.676,7.814,5.025
			c1.87,3.082,2.808,6.73,2.808,10.931C320.496,223.104,319.625,226.414,317.889,229.052z"/>
		<path d="M344.82,198.621c-2.718,0-5.629,2.478-8.711,7.444v-4.76c0-1.785-0.8-2.682-2.409-2.682c-1.652,0-2.484,0.933-2.484,2.816
			v33.114c0,1.652,0.832,2.479,2.484,2.479c1.609,0,2.409-0.826,2.409-2.487v-17.592c0-3.938,1.074-6.894,3.223-8.866
			c1.029-0.938,2.97-1.943,5.837-3.017c2.14-0.806,3.214-1.773,3.214-2.892c0-1.029-0.35-1.88-1.041-2.545
			C346.645,198.957,345.807,198.621,344.82,198.621z"/>
		<path d="M380.546,215.377c0-5.137-1.386-9.216-4.156-12.235c-2.768-3.017-6.543-4.524-11.32-4.524
			c-5.048,0-9.078,2.053-12.062,6.17c-2.77,3.708-4.154,8.225-4.154,13.538c0,5.359,1.403,9.854,4.219,13.471
			c3.217,4.118,7.575,6.165,13.072,6.165c5.985,0,10.569-2.009,13.739-6.03c0.311-0.356,0.468-0.803,0.468-1.341
			c0-0.623-0.246-1.205-0.745-1.741c-0.49-0.534-1.063-0.805-1.741-0.805c-0.539,0-1.41,0.497-2.625,1.479
			c-1.66,1.289-2.909,2.169-3.762,2.613c-1.747,0.984-3.537,1.475-5.375,1.475c-3.043,0-5.745-1.338-8.095-4.02
			c-2.358-2.682-3.528-5.605-3.528-8.786h24.327C379.968,220.804,380.546,218.992,380.546,215.377z M354.48,215.714
			c0.09-3.885,1.227-6.997,3.422-9.316c2.019-2.06,4.445-3.081,7.268-3.081s5.198,1.021,7.131,3.081
			c2.148,2.281,3.227,5.385,3.227,9.316H354.48z"/>
		<path d="M406.824,218.021c-1.029-0.673-4.38-2.324-10.053-4.97c-3.617-1.662-5.434-3.203-5.434-4.632
			c0-3.184,1.717-4.771,5.168-4.771c3.615,0,7.212,1.162,10.784,3.475c0.544,0.325,1.05,0.477,1.544,0.477
			c1.423,0,2.141-0.87,2.141-2.611c0-0.934-0.362-1.716-1.074-2.346c-3.17-2.636-7.167-3.958-11.997-3.958
			c-3.444,0-6.228,0.804-8.374,2.412c-2.452,1.838-3.687,4.493-3.687,7.981c0,3.083,1.786,5.675,5.362,7.772
			c3.305,1.526,6.635,3.037,9.99,4.558c3.521,1.696,5.287,3.579,5.287,5.628c0,3.978-2.145,5.968-6.433,5.968
			c-2.104,0-4.271-0.477-6.507-1.437c-2.231-0.967-3.773-2.019-4.622-3.19c-0.539-0.714-1.117-1.063-1.739-1.063
			c-0.631,0-1.177,0.325-1.646,0.966c-0.47,0.648-0.699,1.378-0.699,2.181c0,0.804,0.237,1.498,0.736,2.084
			c3.037,3.527,7.391,5.294,13.065,5.294c3.754,0,6.901-0.94,9.45-2.828c2.777-2.105,4.162-4.989,4.162-8.659
			C412.256,223.212,410.439,220.435,406.824,218.021z"/>
		<path d="M430.685,200.024c-1.703,0-2.796,0-3.284,0v-10.175c0-1.659-0.834-2.492-2.509-2.492c-1.678,0-2.517,0.833-2.517,2.492
			v10.175h-3.483c-1.527-0.037-2.28,0.7-2.28,2.21c0,1.527,0.806,2.28,2.409,2.28h3.354v30.164c0,1.656,0.813,2.482,2.447,2.482
			c1.722,0,2.584-0.826,2.584-2.482v-30.16h3.418c1.654,0,2.486-0.745,2.486-2.244C433.305,200.774,432.426,200.024,430.685,200.024
			z"/>
		<path d="M84.953,218.759c-0.017-0.021-0.031-0.027-0.048-0.054c-1.742-1.859-4.443-2.686-8.753-2.686
			c-1.554,0-3.651,0.108-5.708,0.33l0.028-34.677c0-2.713-2.201-4.921-4.918-4.921H4.916C2.2,176.751,0,178.957,0,181.673v60.635
			c0,2.719,2.199,4.92,4.916,4.92h16.277c0.325,0.5,0.662,0.99,1.043,1.454c4.296,5.223,11.81,7.878,22.332,7.878
			c8.02,0,16.307-1.489,21.794-2.471l2.008-0.359c6.666-1.154,10.301-2.626,12.572-5.038c0.978-0.368,2.236-1.021,2.726-2.026
			c0.261-0.541,0.292-1.131,0.089-1.674c-0.165-0.441-0.457-0.79-0.815-1.074c0.257-0.364,0.476-0.723,0.663-1.093
			c0.798-0.395,1.618-0.96,1.99-1.724c0.26-0.532,0.292-1.131,0.085-1.674c-0.212-0.565-0.642-0.984-1.163-1.311
			c-0.02-0.344-0.045-0.678-0.089-1.011c0.121-0.186,0.229-0.369,0.333-0.552c1.218-0.427,2.987-1.253,3.639-2.594
			c0.318-0.647,0.356-1.369,0.105-2.03c-0.438-1.179-1.618-1.849-2.86-2.25c0.028-0.152,0.085-0.3,0.213-0.425
			c0.274-0.508,0.661-1.034,0.984-1.608c1.468-0.551,3.419-1.54,4.16-3.067c0.391-0.796,0.438-1.681,0.133-2.497
			C90.268,219.767,87.084,219.013,84.953,218.759z M83.666,227.576l-7.528,1.117l7.223,0.803c0.566,1.733,1.032,4.982-1.941,7.766
			c0,0,0.035,0.075,0.085,0.204l-5.938,0.787l6.292,0.61c0.146,0.99,0.108,2.293-0.627,3.514l-4.95,1.442l4.01-0.108
			c-0.017,0.781-0.769,4.104-12.291,6.105c-13.128,2.279-49.95,10.273-44.244-18.555c5.713-28.832,36.539-41.385,42.816-41.385
			v27.756c-3.403,0.541-6.421,1.132-9.078,1.722c-2.945-0.401-9.951-1.191-13.61-0.075l8.341,1.392
			c-7.512,2.061-10.769,3.888-10.769,3.888c8.732-2.531,18.544-4.043,23.1-4.666c7.747-0.857,16.297-0.306,18.002,1.518
			C85.482,224.533,84.549,226.58,83.666,227.576z"/>
	</g>
</g>
<g>
</g>
<g>
</g>
<g>
</g>
<g>
</g>
<g>
</g>
<g>
</g>
<g>
</g>
<g>
</g>
<g>
</g>
<g>
</g>
<g>
</g>
<g>
</g>
<g>
</g>
<g>
</g>
<g>
</g>
</svg>
