<?xml version="1.0" encoding="iso-8859-1"?>
<!-- Generator: Adobe Illustrator 16.0.0, SVG Export Plug-In . SVG Version: 6.00 Build 0)  -->
<!DOCTYPE svg PUBLIC "-//W3C//DTD SVG 1.1//EN" "http://www.w3.org/Graphics/SVG/1.1/DTD/svg11.dtd">
<svg version="1.1" id="Capa_1" xmlns="http://www.w3.org/2000/svg" xmlns:xlink="http://www.w3.org/1999/xlink" x="0px" y="0px"
	 width="363.755px" height="363.756px" viewBox="0 0 363.755 363.756" style="enable-background:new 0 0 363.755 363.756;"
	 xml:space="preserve" fill="#888">
<g>
	<g>
		<path d="M127.741,166.695c-1.347,0-2.331,0.959-2.961,2.879l-8.91,25.967l-8.477-25.896c-0.585-1.963-1.595-2.949-3.024-2.949
			c-1.392,0-2.084,0.769-2.084,2.3c0,0.375,0.064,0.769,0.196,1.188l10.656,31.773c0.496,1.378,1.385,2.071,2.681,2.071
			c1.475,0,2.459-0.693,2.949-2.071l10.929-31.837c0.134-0.362,0.203-0.718,0.203-1.074
			C129.902,167.484,129.178,166.695,127.741,166.695z"/>
		<path d="M137.77,165.558c-1.627,0-2.441,0.826-2.441,2.485v33.443c0,1.698,0.84,2.541,2.511,2.541
			c1.677,0,2.509-0.846,2.509-2.541v-33.443C140.35,166.384,139.491,165.558,137.77,165.558z"/>
		<path d="M137.806,154.232c-2.28,0-3.417,1.074-3.417,3.216c0,0.933,0.304,1.772,0.902,2.51c0.604,0.737,1.423,1.105,2.447,1.105
			c2.413,0,3.622-1.067,3.622-3.208c0-0.947-0.324-1.779-0.972-2.517C139.738,154.601,138.875,154.232,137.806,154.232z"/>
		<path d="M175.439,154.232c-1.715,0-2.58,0.871-2.58,2.625v14.933c-3.254-4.155-6.888-6.233-10.891-6.233
			c-4.817,0-8.674,2.103-11.572,6.311c-2.625,3.806-3.946,8.42-3.946,13.833c0,5.234,1.271,9.663,3.812,13.295
			c2.854,3.983,6.755,5.973,11.706,5.973c4.943,0,8.572-1.831,10.891-5.491v3.147c0,1.564,0.864,2.346,2.58,2.346
			c1.627,0,2.447-0.759,2.447-2.281v-45.844C177.885,155.103,177.065,154.232,175.439,154.232z M170.443,195.449
			c-2.097,3.044-4.912,4.562-8.439,4.562c-3.222,0-5.77-1.499-7.645-4.492c-1.697-2.682-2.547-5.986-2.547-9.918
			c0-4.024,0.877-7.438,2.618-10.259c1.875-3.126,4.398-4.697,7.574-4.697c3.527,0,6.316,1.526,8.376,4.564
			c1.881,2.771,2.809,6.163,2.809,10.186C173.19,189.329,172.275,192.686,170.443,195.449z"/>
		<path d="M215.156,182.244c0-5.136-1.385-9.216-4.156-12.226c-2.77-3.018-6.545-4.531-11.33-4.531c-5.052,0-9.067,2.06-12.067,6.17
			c-2.771,3.712-4.155,8.223-4.155,13.542c0,5.362,1.41,9.849,4.229,13.475c3.222,4.107,7.573,6.162,13.071,6.162
			c5.985,0,10.562-2.009,13.737-6.03c0.313-0.355,0.471-0.806,0.471-1.341c0-0.622-0.248-1.204-0.737-1.741
			c-0.495-0.541-1.08-0.806-1.754-0.806c-0.537,0-1.411,0.497-2.621,1.475c-1.652,1.297-2.91,2.167-3.759,2.612
			c-1.751,0.985-3.539,1.474-5.376,1.474c-3.05,0-5.748-1.341-8.096-4.015c-2.351-2.68-3.533-5.61-3.533-8.783h24.331
			C214.572,187.675,215.156,185.867,215.156,182.244z M189.077,182.583c0.089-3.89,1.233-6.992,3.432-9.317
			c2.019-2.053,4.435-3.082,7.27-3.082c2.824,0,5.191,1.029,7.119,3.082c2.151,2.281,3.234,5.39,3.234,9.317H189.077z"/>
		<path d="M235.662,165.558c-5.141,0-9.208,2.033-12.194,6.1c-2.679,3.667-4.028,8.152-4.028,13.473
			c0,5.319,1.35,9.812,4.028,13.477c2.986,4.11,7.054,6.165,12.194,6.165c5.188,0,9.252-1.99,12.201-5.968
			c2.682-3.577,4.022-7.974,4.022-13.205c0-5.407-1.366-9.982-4.093-13.744C244.755,167.66,240.713,165.558,235.662,165.558z
			 M243.65,195.925c-1.919,2.985-4.585,4.487-8.017,4.487c-3.253,0-5.881-1.652-7.88-4.963c-1.792-3.038-2.681-6.634-2.681-10.785
			c0-4.022,0.851-7.378,2.541-10.055c1.919-3.043,4.586-4.561,8.02-4.561c3.199,0,5.805,1.676,7.815,5.024
			c1.869,3.089,2.807,6.724,2.807,10.924C246.255,189.979,245.385,193.282,243.65,195.925z"/>
		<path d="M280.976,168.977c-2.455-2.238-5.41-3.355-8.852-3.355c-4.286,0-7.705,1.703-10.25,5.102v-13.866
			c0-1.754-0.826-2.625-2.484-2.625c-1.608,0-2.409,0.871-2.409,2.611v44.706c0,1.658,0.804,2.478,2.409,2.478
			c1.658,0,2.484-0.819,2.484-2.478v-21.041c0-3.222,0.953-5.791,2.873-7.714c1.75-1.697,3.85-2.541,6.307-2.541
			c2.456,0,4.535,0.845,6.236,2.541c1.869,1.881,2.81,4.448,2.81,7.714v21.041c0,1.658,0.807,2.478,2.414,2.478
			c1.652,0,2.479-0.819,2.479-2.478v-23.188C284.993,174.517,283.658,171.392,280.976,168.977z"/>
		<path d="M293.641,154.232c-2.278,0-3.425,1.074-3.425,3.216c0,0.933,0.305,1.772,0.915,2.51c0.598,0.737,1.411,1.105,2.441,1.105
			c2.413,0,3.624-1.067,3.624-3.208c0-0.947-0.331-1.779-0.973-2.517C295.573,154.601,294.715,154.232,293.641,154.232z"/>
		<path d="M293.61,165.558c-1.637,0-2.452,0.826-2.452,2.485v33.443c0,1.698,0.839,2.541,2.517,2.541
			c1.676,0,2.517-0.846,2.517-2.541v-33.443C296.19,166.384,295.325,165.558,293.61,165.558z"/>
		<path d="M327.747,166.695c-1.348,0-2.332,0.959-2.961,2.879l-8.912,25.967l-8.478-25.896c-0.584-1.963-1.602-2.949-3.031-2.949
			c-1.385,0-2.078,0.769-2.078,2.3c0,0.375,0.065,0.769,0.197,1.188l10.655,31.773c0.498,1.378,1.385,2.071,2.682,2.071
			c1.474,0,2.452-0.693,2.947-2.071l10.931-31.837c0.127-0.362,0.195-0.718,0.195-1.074
			C329.9,167.484,329.183,166.695,327.747,166.695z"/>
		<path d="M361.058,194.916c-0.534,0-1.41,0.498-2.619,1.475c-1.651,1.296-2.91,2.167-3.762,2.612
			c-1.747,0.985-3.537,1.474-5.373,1.474c-3.054,0-5.747-1.341-8.095-4.015c-2.353-2.679-3.534-5.612-3.534-8.781H362
			c1.17,0,1.755-1.811,1.755-5.436c0-5.135-1.384-9.215-4.153-12.225c-2.771-3.018-6.545-4.531-11.33-4.531
			c-5.055,0-9.068,2.06-12.067,6.171c-2.771,3.711-4.156,8.223-4.156,13.542c0,5.362,1.41,9.849,4.226,13.473
			c3.224,4.11,7.575,6.164,13.071,6.164c5.986,0,10.569-2.009,13.739-6.03c0.311-0.355,0.47-0.806,0.47-1.341
			c0-0.622-0.241-1.206-0.736-1.741C362.315,195.182,361.731,194.916,361.058,194.916z M341.104,173.264
			c2.019-2.053,4.436-3.082,7.264-3.082c2.82,0,5.198,1.029,7.123,3.082c2.16,2.281,3.231,5.39,3.231,9.316h-21.047
			C337.761,178.691,338.905,175.59,341.104,173.264z"/>
		<path d="M82.562,146.899h-1.671c-0.408-0.572-0.858-1.125-1.367-1.627c-2.353-2.357-5.479-3.654-8.809-3.654
			c-3.126,0-6.062,1.156-8.362,3.247c-1.467-1.366-3.229-2.624-5.242-3.692c-4.848-2.567-10.06-3.386-13.923-2.199
			c-2.07,0.642-3.628,1.843-4.486,3.476c-0.699,1.302-0.902,2.829-0.623,4.448H21.924c-2.718,0-4.918,2.206-4.918,4.919v28.353
			c-0.451-0.051-0.908-0.081-1.367-0.081c-3.329,0-6.455,1.302-8.813,3.659c-2.351,2.354-3.647,5.479-3.647,8.802
			c0,3.125,1.156,6.075,3.247,8.367c-1.367,1.469-2.625,3.229-3.692,5.242c-2.567,4.849-3.387,10.051-2.198,13.923
			c0.642,2.077,1.843,3.626,3.476,4.491c1.627,0.855,3.589,0.978,5.663,0.334c3.52-1.079,7.009-4.188,9.544-8.396
			c0.774,0.53,1.69,0.852,2.707,0.852h60.637c2.718,0,4.918-2.198,4.918-4.919v-60.629
			C87.479,149.105,85.281,146.899,82.562,146.899z M70.239,143.665c2.904,0,5.649,1.131,7.702,3.191
			c2.06,2.059,3.196,4.798,3.196,7.708c0,1.017-0.152,2.009-0.418,2.954l-13.44-13.439C68.23,143.812,69.223,143.665,70.239,143.665
			z M77.185,163.021l-0.775,0.781l-5.458-5.458c0.634,0.114,1.289,0.331,1.943,0.673C74.438,159.837,75.912,161.236,77.185,163.021z
			 M74.465,157.627c-0.209-0.126-0.419-0.273-0.629-0.389c-1.659-0.87-3.323-1.175-4.886-0.896l-1.804-1.811
			c0.14-1.862-0.438-3.882-1.639-5.859L74.465,157.627z M65.74,161.222c0.203-0.38,0.432-0.73,0.68-1.048l6.799,6.805l-1.957,1.963
			c-0.051,0.051-0.114,0.096-0.166,0.152l-6.062-6.062C65.226,162.387,65.453,161.776,65.74,161.222z M61.983,147.402
			c1.45,1.602,2.466,3.292,2.91,4.886l-3.895-3.896L61.983,147.402z M63.637,157.398c-0.611,0.541-1.373,0.973-2.301,1.258
			c-0.179,0.05-0.369,0.083-0.546,0.127l-5.083-5.083c0.05-0.051,0.088-0.108,0.14-0.16l1.97-1.963L63.637,157.398z M40.481,143.393
			c0.604-1.149,1.748-2.008,3.304-2.484c3.318-1.029,8.057-0.236,12.387,2.045c1.797,0.947,3.386,2.097,4.714,3.337l-6.622,6.621
			c-1.36,1.36-2.357,2.987-2.954,4.759c-0.795-0.311-1.583-0.654-2.359-1.067c-4.327-2.287-7.645-5.763-8.668-9.08
			C39.8,145.972,39.869,144.543,40.481,143.393z M54.246,158.605c-0.381-0.096-0.775-0.203-1.157-0.319
			c0.064-0.215,0.121-0.431,0.191-0.647L54.246,158.605z M20.577,190.378c0.82-1.543,2.218-3.018,4.004-4.289l0.775,0.775
			l-5.452,5.458C20.019,191.688,20.235,191.039,20.577,190.378z M24.594,198.239c-0.647-0.192-1.265-0.418-1.804-0.707
			c-0.394-0.202-0.737-0.432-1.049-0.672l6.807-6.806l1.957,1.957c0.051,0.052,0.095,0.113,0.152,0.165L24.594,198.239z
			 M33.077,196.117c0.247,0.699,0.413,1.437,0.515,2.173c-1.067,0.241-2.129,0.396-3.165,0.477L33.077,196.117z M17.902,194.324
			l-1.81,1.803c-1.862-0.146-3.884,0.439-5.859,1.64l8.954-8.954c-0.127,0.201-0.273,0.407-0.388,0.622
			C17.921,191.091,17.622,192.769,17.902,194.324z M13.841,198.381l-3.888,3.893l-0.991-0.983
			C10.563,199.833,12.254,198.823,13.841,198.381z M5.638,195.996c-0.268-0.952-0.413-1.942-0.413-2.961
			c0-2.903,1.131-5.644,3.191-7.704s4.792-3.195,7.702-3.195c1.017,0,2.008,0.152,2.961,0.412L5.638,195.996z M18.162,214.322
			c-2.287,4.327-5.764,7.652-9.08,8.667c-1.557,0.482-2.98,0.412-4.131-0.196c-1.15-0.604-2.008-1.75-2.492-3.298
			c-1.022-3.323-0.235-8.064,2.053-12.392c0.947-1.802,2.098-3.388,3.343-4.714l6.609,6.619c1.367,1.363,2.993,2.354,4.766,2.965
			C18.914,212.758,18.571,213.546,18.162,214.322z M19.848,210.193c-0.223-0.064-0.439-0.127-0.642-0.203l0.953-0.959
			C20.069,209.415,19.961,209.799,19.848,210.193z M15.259,207.573c-0.058-0.051-0.108-0.103-0.159-0.152l-1.97-1.963l5.827-5.822
			c0.541,0.611,0.973,1.372,1.258,2.303c0.051,0.169,0.082,0.368,0.121,0.543L15.259,207.573z M21.843,199.312
			c0.362,0.196,0.757,0.357,1.162,0.513l-1.055,1.05c-0.304-0.834-0.686-1.588-1.168-2.22
			C21.112,198.889,21.467,199.116,21.843,199.312z M22.802,210.605c-0.324,0-0.648-0.016-0.966-0.039
			c0.394-1.353,0.654-2.688,0.763-3.972l2.008-2.008c-0.286,1.314,0.083,2.751,1.124,3.767l1.944,1.1
			C26.183,210.203,24.522,210.605,22.802,210.605z M27.722,201.472l0.623-0.622c1.697,0.045,3.494-0.135,5.312-0.521
			c-0.076,1.459-0.438,2.864-1.066,4.154l-1.17-1.943C30.402,201.551,29.011,201.193,27.722,201.472z M29.456,210.986
			c0.159-0.098,0.324-0.166,0.476-0.26l3.535-3.591l5.592,9.269L29.456,210.986z M45.545,190.519
			c-1.601,3.031-5.439,5.793-10.041,7.251c-0.477-2.404-1.646-4.614-3.413-6.381l-6.177-6.17c1.462-0.871,3.114-1.607,4.868-2.154
			c7.079-2.18,14.107-0.641,15.341,3.356C46.504,187.667,46.307,189.082,45.545,190.519z M47.058,177.961l5.458-9.658
			c0.013,0.019,0.019,0.043,0.032,0.069l3.959,3.89L47.058,177.961z M54.918,164.171l-1.1,1.951c-0.75-1.5-1.15-3.159-1.15-4.88
			c0-0.326,0.013-0.649,0.038-0.967c1.354,0.394,2.681,0.655,3.978,0.763l2.008,2.014C57.372,162.761,55.936,163.137,54.918,164.171
			z M58.793,171.028l1.938-1.17c0.991-1.011,1.34-2.409,1.067-3.699l0.629,0.623c-0.051,1.697,0.127,3.495,0.515,5.319
			C61.49,172.02,60.078,171.657,58.793,171.028z M63.447,161.446l-1.042-1.055c0.826-0.305,1.587-0.68,2.211-1.17
			c-0.229,0.337-0.458,0.688-0.656,1.062C63.762,160.651,63.604,161.046,63.447,161.446z M64.514,168.869l2.643,2.649
			c-0.699,0.248-1.437,0.413-2.173,0.515C64.742,170.964,64.59,169.903,64.514,168.869z M76.855,184.563
			c-1.245,0.382-2.656,0.185-4.099-0.581c-3.032-1.593-5.795-5.438-7.251-10.04c2.401-0.476,4.613-1.638,6.38-3.412l6.177-6.17
			c0.864,1.461,1.601,3.107,2.148,4.862C82.382,176.309,80.852,183.33,76.855,184.563z"/>
	</g>
</g>
<g>
</g>
<g>
</g>
<g>
</g>
<g>
</g>
<g>
</g>
<g>
</g>
<g>
</g>
<g>
</g>
<g>
</g>
<g>
</g>
<g>
</g>
<g>
</g>
<g>
</g>
<g>
</g>
<g>
</g>
</svg>
