<?xml version="1.0" encoding="utf-8"?>
<!-- Generator: Adobe Illustrator 21.1.0, SVG Export Plug-In . SVG Version: 6.00 Build 0)  -->
<svg version="1.1" id="Layer_1" xmlns:svg="http://www.w3.org/2000/svg"
	 xmlns="http://www.w3.org/2000/svg" xmlns:xlink="http://www.w3.org/1999/xlink" x="0px" y="0px" viewBox="0 0 256 256"
	 style="enable-background:new 0 0 256 256;" xml:space="preserve">
<style type="text/css">
	.st0{fill:#F59B43;}
</style>
<g>
	<path class="st0" d="M59.1,167.7L37,234.8H8.5L81,21.6h33.2l72.8,213.2h-29.4l-22.8-67.1H59.1z M129.1,146.2l-20.9-61.4
		c-4.7-13.9-7.9-26.6-11.1-38.9h-0.6c-3.2,12.7-6.6,25.6-10.8,38.6l-20.9,61.7H129.1z"/>
	<path class="st0" d="M247.5,38.6c0.3,9.5-6.6,17.1-17.7,17.1c-9.8,0-16.8-7.6-16.8-17.1c0-9.8,7.3-17.4,17.4-17.4
		C240.8,21.2,247.5,28.8,247.5,38.6z M216.5,234.8V81.7h27.8v153.1H216.5z"/>
</g>
</svg>
