<?xml version="1.0" encoding="utf-8"?>
<!-- Generator: Adobe Illustrator 21.1.0, SVG Export Plug-In . SVG Version: 6.00 Build 0)  -->
<svg version="1.1" id="Layer_1" xmlns:svg="http://www.w3.org/2000/svg"
	 xmlns="http://www.w3.org/2000/svg" xmlns:xlink="http://www.w3.org/1999/xlink" x="0px" y="0px" viewBox="0 0 256 256"
	 style="enable-background:new 0 0 256 256;" xml:space="preserve">
<style type="text/css">
	.st0{fill:#54A0F7;}
</style>
<g>
	<path class="st0" d="M5.8,136.9v-17.9c5.4,0,9.5-1.7,12.2-4.8c2.7-3.2,4.1-10.2,4.1-21.3c0-8.4,0.3-14.6,0.9-18.7
		c0.6-4,2.1-7.4,4.5-10.2c2.4-2.7,5.5-4.7,9.2-5.9c3.8-1.2,9.1-1.8,16-1.8h3.9v17.8c-7.2,0-11.5,0.7-12.9,2.2
		c-1.4,1.5-2.2,4.4-2.3,8.7c-0.3,11.9-0.7,19.7-1.2,23.2c-0.5,3.6-1.6,7-3.3,10.2c-1.7,3.3-4.9,6.4-9.6,9.4c4.4,2.7,7.6,5.9,9.6,9.6
		c2,3.7,3.2,9.1,3.5,16.1l1.1,21.7c0.4,2.1,1.5,3.7,3.2,4.7c1.7,1.1,5.6,1.6,11.6,1.6v17.9h-3.9c-7.9,0-14.1-0.9-18.4-2.7
		c-4.3-1.8-7.5-4.8-9.4-8.9c-1.9-4.1-2.9-10.8-2.9-20c0-10.1-0.3-16.6-1-19.4c-0.7-2.8-2-5.4-4-7.8C15.1,138.4,11.3,137.1,5.8,136.9
		z"/>
	<path class="st0" d="M111.8,152.4V177H89.1v-24.6H111.8z"/>
	<path class="st0" d="M166.9,152.4V177h-22.7v-24.6H166.9z"/>
	<path class="st0" d="M250.2,136.9c-5.4,0-9.5,1.7-12.2,4.8c-2.7,3.2-4.1,10.2-4.1,21.2c0,8.4-0.3,14.7-0.9,18.7s-2.1,7.4-4.5,10.2
		c-2.4,2.7-5.5,4.7-9.2,5.9c-3.8,1.2-9.1,1.8-16,1.8h-3.9v-17.9c6.9,0,11.1-0.7,12.7-2.2c1.6-1.4,2.4-4.4,2.5-8.8
		c0.3-12.7,0.8-20.9,1.4-24.5c0.6-3.6,1.9-7,3.7-10.1c1.9-3.1,4.8-5.9,8.8-8.2c-4.3-2.8-7.3-5.5-8.9-8.2s-2.8-5.6-3.4-8.8
		s-1-9-1.3-17.6c-0.3-8.6-0.6-13.5-1-14.7c-0.4-1.2-1.4-2.3-2.9-3.2s-5.4-1.3-11.6-1.3V56.4h3.9c7.9,0,14.1,0.9,18.4,2.7
		c4.3,1.8,7.5,4.8,9.4,8.9s2.9,10.8,2.9,20c0,10.5,0.4,17.2,1.2,19.9c0.8,2.7,2.1,5.2,4.1,7.5s5.7,3.5,11.1,3.7V136.9z"/>
</g>
</svg>
