<?xml version="1.0" encoding="utf-8"?>
<!-- Generator: Adobe Illustrator 21.1.0, SVG Export Plug-In . SVG Version: 6.00 Build 0)  -->
<svg version="1.1" id="Layer_1" xmlns:svg="http://www.w3.org/2000/svg"
	 xmlns="http://www.w3.org/2000/svg" xmlns:xlink="http://www.w3.org/1999/xlink" x="0px" y="0px" viewBox="0 0 256 256"
	 style="enable-background:new 0 0 256 256;" xml:space="preserve">
<style type="text/css">
	.st0{fill:#54A0F7;}
</style>
<g>
	<path class="st0" d="M56.6,228L5.9,28h27.3l23.7,101.2c5.9,24.9,11.3,49.8,14.8,69.1h0.6c3.3-19.9,9.5-43.6,16.3-69.4L115.4,28h27
		l24.3,101.5c5.6,23.7,11,47.5,14,68.6h0.6c4.2-22,9.8-44.2,16-69.1L223.7,28h26.4l-56.7,200h-27l-25.2-104.2
		c-6.2-25.5-10.4-45.1-13.1-65.3h-0.6c-3.6,19.9-8,39.5-15.4,65.3L83.6,228H56.6z"/>
</g>
</svg>
