<?xml version="1.0" encoding="utf-8"?>
<!-- Generator: Adobe Illustrator 21.1.0, SVG Export Plug-In . SVG Version: 6.00 Build 0)  -->
<svg version="1.1" id="Capa_1" xmlns="http://www.w3.org/2000/svg" xmlns:xlink="http://www.w3.org/1999/xlink" x="0px" y="0px"
	 viewBox="0 0 256 256" style="enable-background:new 0 0 256 256;" xml:space="preserve">
<style type="text/css">
	.st0{fill:#54A0F7;}
</style>
<path class="st0" d="M162.7,9.5H36v237H220V66.7L162.7,9.5z M76.9,62.6h40.9c2.3,0,4.1,1.8,4.1,4.1c0,2.3-1.8,4.1-4.1,4.1H76.9
	c-2.3,0-4.1-1.8-4.1-4.1C72.8,64.4,74.7,62.6,76.9,62.6z M179.1,201.6H76.9c-2.3,0-4.1-1.8-4.1-4.1s1.8-4.1,4.1-4.1h102.2
	c2.3,0,4.1,1.8,4.1,4.1S181.3,201.6,179.1,201.6z M179.1,168.9H76.9c-2.3,0-4.1-1.8-4.1-4.1s1.8-4.1,4.1-4.1h102.2
	c2.3,0,4.1,1.8,4.1,4.1S181.3,168.9,179.1,168.9z M179.1,136.2H76.9c-2.3,0-4.1-1.8-4.1-4.1s1.8-4.1,4.1-4.1h102.2
	c2.3,0,4.1,1.8,4.1,4.1S181.3,136.2,179.1,136.2z M179.1,103.5H76.9c-2.3,0-4.1-1.8-4.1-4.1s1.8-4.1,4.1-4.1h102.2
	c2.3,0,4.1,1.8,4.1,4.1S181.3,103.5,179.1,103.5z"/>
</svg>
