<?xml version="1.0" encoding="utf-8"?>
<!-- Generator: Adobe Illustrator 21.1.0, SVG Export Plug-In . SVG Version: 6.00 Build 0)  -->
<svg version="1.1" id="Layer_1" xmlns:svg="http://www.w3.org/2000/svg"
	 xmlns="http://www.w3.org/2000/svg" xmlns:xlink="http://www.w3.org/1999/xlink" x="0px" y="0px" viewBox="0 0 256 256"
	 style="enable-background:new 0 0 256 256;" xml:space="preserve">
<style type="text/css">
	.st0{fill:#F5BA42;}
</style>
<g>
	<path class="st0" d="M6.5,139.3v-22.6c6.9-0.1,12-2.1,15.5-6.1s5.2-13,5.2-26.9c0-10.6,0.4-18.5,1.2-23.6S31,50.6,34,47.2
		s6.9-6,11.7-7.5s11.5-2.3,20.3-2.3h5v22.5c-9.1,0-14.6,0.9-16.4,2.8c-1.8,1.9-2.8,5.6-2.9,11c-0.4,15.1-0.9,24.9-1.5,29.4
		c-0.6,4.5-2,8.9-4.2,13c-2.2,4.1-6.2,8.1-12.1,11.8c5.6,3.4,9.7,7.5,12.2,12.2c2.5,4.7,4,11.5,4.5,20.4l1.4,27.4
		c0.6,2.6,1.9,4.6,4.1,6c2.1,1.4,7,2,14.7,2v22.6H66c-10.1,0-17.8-1.1-23.3-3.4s-9.4-6.1-11.9-11.3s-3.7-13.6-3.7-25.3
		c0-12.8-0.4-21-1.3-24.6c-0.9-3.6-2.6-6.9-5.1-9.9C18.2,141.2,13.4,139.6,6.5,139.3z"/>
	<path class="st0" d="M144.1,90.6v31h-28.8v-31H144.1z M142.5,160.2v13.7c0,7.2-0.8,13-2.5,17.6c-1.7,4.6-4.6,8.5-8.8,11.7
		s-8.9,5.3-14.2,6.4v-10.9c3.8-2.1,5.9-5,6.4-8.6h-6.4v-29.9H142.5z"/>
	<path class="st0" d="M249.5,139.3c-6.9,0.1-12,2.1-15.5,6.1c-3.5,4-5.2,13-5.2,26.8c0,10.7-0.4,18.6-1.1,23.7
		c-0.8,5.1-2.6,9.4-5.7,12.9c-3,3.5-6.9,6-11.7,7.5c-4.8,1.5-11.5,2.3-20.3,2.3h-5V196c8.7,0,14.1-0.9,16.1-2.7s3-5.5,3.2-11.1
		c0.4-16.1,1-26.4,1.7-31c0.8-4.6,2.4-8.8,4.7-12.8c2.4-4,6.1-7.4,11.2-10.4c-5.4-3.5-9.2-7-11.3-10.4c-2.1-3.4-3.6-7.1-4.3-11.1
		s-1.3-11.4-1.7-22.3s-0.8-17.1-1.3-18.6c-0.5-1.6-1.7-2.9-3.6-4.1c-1.9-1.1-6.8-1.7-14.7-1.7V37.4h5c10.1,0,17.8,1.1,23.3,3.4
		s9.4,6.1,11.9,11.3c2.5,5.2,3.7,13.6,3.7,25.3c0,13.3,0.5,21.7,1.5,25.2s2.7,6.6,5.2,9.5s7.2,4.4,14,4.7V139.3z"/>
</g>
</svg>
