<?xml version="1.0" encoding="utf-8"?>
<!-- Generator: Adobe Illustrator 21.1.0, SVG Export Plug-In . SVG Version: 6.00 Build 0)  -->
<svg version="1.1" id="Layer_1" xmlns="http://www.w3.org/2000/svg" xmlns:xlink="http://www.w3.org/1999/xlink" x="0px" y="0px"
	 viewBox="0 0 256 256" style="enable-background:new 0 0 256 256;" xml:space="preserve">
<style type="text/css">
	.st0{fill:#DA4D43;}
</style>
<g id="XMLID_238_">
	<path id="XMLID_239_" class="st0" d="M204.8,146c-15.1,0-34,2.6-40.2,3.6c-25.6-26.7-32.9-41.9-34.5-45.9c2.2-5.7,9.9-27.4,11-55.2
		c0.5-13.9-2.4-24.3-8.7-30.9c-6.3-6.6-14-7.1-16.2-7.1c-7.7,0-20.6,3.9-20.6,30c0,22.6,10.6,46.7,13.5,52.9
		c-15.4,44.8-31.9,75.4-35.4,81.7C11.8,198.4,7,220.9,7,227.2c0,11.5,8.2,18.3,21.8,18.3c33.2,0,63.5-55.7,68.5-65.4
		c23.6-9.4,55.1-15.2,63.2-16.6c23,21.9,49.6,27.8,60.7,27.8c8.3,0,27.8,0,27.8-20C249,152.6,225.2,146,204.8,146z M203.2,159.2
		c17.9,0,22.7,5.9,22.7,9.1c0,2-0.7,8.4-10.4,8.4c-8.6,0-23.5-5-38.1-15.8C183.4,160.1,192.5,159.2,203.2,159.2z M115.2,23.2
		c1.6,0,2.7,0.5,3.6,1.8c5.2,7.2,1,30.5-4.1,48.8c-4.9-15.7-8.6-39.8-3.4-48.2C112.4,23.9,113.5,23.2,115.2,23.2z M106.5,163.3
		c6.5-13.1,13.8-32.2,17.7-43c7.9,13.3,18.6,25.6,24.8,32.3C129.8,156.6,115.3,160.6,106.5,163.3z M19.9,229
		c-0.4-0.5-0.5-1.6-0.2-2.9c0.7-2.7,5.8-16,43.2-32.7c-5.4,8.4-13.7,20.5-22.9,29.5c-6.5,6.1-11.5,9.1-15,9.1
		C23.8,232,22.1,231.6,19.9,229z"/>
</g>
</svg>
