<?xml version="1.0" encoding="utf-8"?>
<!-- Generator: Adobe Illustrator 21.1.0, SVG Export Plug-In . SVG Version: 6.00 Build 0)  -->
<svg version="1.1" id="Layer_1" xmlns:svg="http://www.w3.org/2000/svg"
	 xmlns="http://www.w3.org/2000/svg" xmlns:xlink="http://www.w3.org/1999/xlink" x="0px" y="0px" viewBox="0 0 256 256"
	 style="enable-background:new 0 0 256 256;" xml:space="preserve">
<style type="text/css">
	.st0{fill:#B377D9;}
</style>
<g>
	<path class="st0" d="M73.5,163l-67-27.9v-14.2l67-28v18.4L32.1,128l41.4,16.6V163z"/>
	<path class="st0" d="M112,109.2H83.8c0.1-9.9,0.9-17.1,2.5-21.7c1.6-4.6,5-8.5,10.3-11.9s12-5.1,20.2-5.1c5.9,0,11.1,0.9,15.5,2.8
		c4.4,1.9,7.9,4.4,10.5,7.8c2.6,3.3,4.5,6.9,5.7,10.8s1.8,9.9,1.8,18.1v13.8c0,6.3-0.6,11.3-1.7,15.1c-1.2,3.8-3.7,7.2-7.6,10
		c-3.9,2.9-8.5,4.3-13.7,4.3c-6.8,0-11.9-2.7-15.3-8v12.1H85.7v-31h25.6c0.1,4.3,1.6,6.4,4.6,6.4c2.3,0,3.8-0.9,4.4-2.8
		c0.6-1.9,0.9-6.5,0.9-13.8V97.2c0-4.1-0.3-6.9-0.9-8.3c-0.6-1.4-1.7-2.1-3.4-2.1c-2.1,0-3.5,0.9-4.1,2.8c-0.6,1.9-0.9,6.1-0.9,12.7
		V109.2z M112,163v22.6H85.7V163H112z"/>
	<path class="st0" d="M182.5,92.9l67,27.9V135l-67,28v-18.4l41.4-16.7l-41.4-16.6V92.9z"/>
</g>
</svg>
