<?xml version="1.0" encoding="utf-8"?>
<!-- Generator: Adobe Illustrator 21.1.0, SVG Export Plug-In . SVG Version: 6.00 Build 0)  -->
<svg version="1.1" id="Layer_1" xmlns:svg="http://www.w3.org/2000/svg"
	 xmlns="http://www.w3.org/2000/svg" xmlns:xlink="http://www.w3.org/1999/xlink" x="0px" y="0px" viewBox="0 0 256 256"
	 style="enable-background:new 0 0 256 256;" xml:space="preserve">
<style type="text/css">
	.st0{fill:#DA4D43;}
</style>
<g>
	<path class="st0" d="M54,11.6C69,9.1,88.6,7,113.6,7c30.6,0,53.1,7.1,67.4,20c13.2,11.4,21,28.9,21,50.2c0,21.7-6.4,38.8-18.5,51.3
		C167,146,140.3,154.9,110,154.9c-9.3,0-17.8-0.3-24.9-2.1V249H54V11.6z M85.1,127.5c6.8,1.8,15.3,2.5,25.7,2.5
		c37.4,0,60.2-18.2,60.2-51.3c0-31.7-22.4-47-56.7-47c-13.6,0-23.9,1.1-29.2,2.5V127.5z"/>
</g>
</svg>
