<?xml version="1.0" encoding="utf-8"?>
<!-- Generator: Adobe Illustrator 21.1.0, SVG Export Plug-In . SVG Version: 6.00 Build 0)  -->
<svg version="1.1" id="Layer_1" xmlns:svg="http://www.w3.org/2000/svg"
	 xmlns="http://www.w3.org/2000/svg" xmlns:xlink="http://www.w3.org/1999/xlink" x="0px" y="0px" viewBox="0 0 256 256"
	 style="enable-background:new 0 0 256 256;" xml:space="preserve">
<style type="text/css">
	.st0{fill:#B377D9;}
</style>
<g>
	<path class="st0" d="M8.9,28.1c12.6-2.1,29.2-3.9,50.3-3.9c25.9,0,44.9,6,56.9,16.9c11.2,9.6,17.8,24.4,17.8,42.5
		c0,18.4-5.4,32.8-15.7,43.4c-13.9,14.8-36.5,22.3-62.1,22.3c-7.8,0-15.1-0.3-21.1-1.8v81.4H8.9V28.1z M35.1,126
		c5.7,1.5,13,2.1,21.7,2.1c31.6,0,50.9-15.4,50.9-43.4c0-26.8-19-39.8-47.9-39.8c-11.5,0-20.2,0.9-24.7,2.1
		C35.1,47,35.1,126,35.1,126z"/>
	<path class="st0" d="M158.2,201.7c7.8,5.1,21.7,10.6,35,10.6c19.3,0,28.3-9.6,28.3-21.7c0-12.7-7.5-19.6-27.1-26.8
		c-26.2-9.3-38.6-23.8-38.6-41.3c0-23.5,19-42.8,50.3-42.8c14.8,0,27.7,4.2,35.9,9l-6.6,19.3c-5.7-3.6-16.3-8.4-29.8-8.4
		c-15.7,0-24.4,9-24.4,19.9c0,12,8.7,17.5,27.7,24.7c25.3,9.6,38.3,22.3,38.3,44c0,25.6-19.9,43.7-54.5,43.7c-16,0-30.7-3.9-41-9.9
		L158.2,201.7z"/>
</g>
</svg>
