<?xml version="1.0" encoding="utf-8"?>
<!-- Generator: Adobe Illustrator 21.1.0, SVG Export Plug-In . SVG Version: 6.00 Build 0)  -->
<svg version="1.1" id="Layer_1" xmlns:svg="http://www.w3.org/2000/svg"
	 xmlns="http://www.w3.org/2000/svg" xmlns:xlink="http://www.w3.org/1999/xlink" x="0px" y="0px" viewBox="0 0 256 256"
	 style="enable-background:new 0 0 256 256;" xml:space="preserve">
<style type="text/css">
	.st0{fill:#82C250;}
</style>
<g>
	<path class="st0" d="M65.5,207.5c13.4,8.2,33,15.1,53.6,15.1c30.6,0,48.4-16.1,48.4-39.5c0-21.6-12.4-34-43.6-46
		c-37.8-13.4-61.1-33-61.1-65.6c0-36,29.9-62.8,74.8-62.8c23.7,0,40.9,5.5,51.2,11.3l-8.2,24.4c-7.5-4.1-23-11-43.9-11
		C105,33.4,93,52.3,93,68.1c0,21.6,14.1,32.3,46,44.6c39.1,15.1,59.1,34,59.1,68c0,35.7-26.4,66.6-81,66.6c-22.3,0-46.7-6.5-59-14.8
		L65.5,207.5z"/>
</g>
</svg>
