<?xml version="1.0" encoding="utf-8"?>
<!-- Generator: Adobe Illustrator 21.1.0, SVG Export Plug-In . SVG Version: 6.00 Build 0)  -->
<svg version="1.1" id="Layer_1" xmlns="http://www.w3.org/2000/svg" xmlns:xlink="http://www.w3.org/1999/xlink" x="0px" y="0px"
	 viewBox="0 0 512 512" style="enable-background:new 0 0 512 512;" xml:space="preserve">
<style type="text/css">
	.st0{fill:#F0B7B3;}
	.st1{fill:#DA4D43;}
</style>
<path class="st0" d="M312.1,117.2c0,59-47.8,106.8-106.8,106.8S98.5,176.1,98.5,117.2S146.3,10.3,205.3,10.3S312.1,58.2,312.1,117.2
	z"/>
<path class="st0" d="M259.4,454.7c-11.1-19.3-8.9-43,4.3-59.8c-13.2-16.8-15.5-40.5-4.3-59.8l17.3-29.9
	c9.5-16.5,27.2-26.7,46.3-26.7c2.6,0,5.2,0.2,7.7,0.6c0.7-1.8,1.6-3.4,2.5-5.1c-11.5-4.5-24-7.2-37.1-7.2H114.5
	C58.5,266.7,13,312.2,13,368.1v74.8c0,8.8,7.2,16,16,16h232.8L259.4,454.7z"/>
<path class="st1" d="M476.6,404.9c0.4-3.3,1-6.6,1-10c0-3.4-0.6-6.7-1-10l19.2-14.6c4.3-3.2,5.5-9.2,2.8-13.9l-17.3-29.9
	c-2.7-4.7-8.4-6.6-13.4-4.5l-22.2,9.3c-5.4-4.1-11.2-7.8-17.5-10.4l-2.9-23.5c-0.7-5.3-5.2-9.4-10.6-9.4h-34.5
	c-5.4,0-9.9,4-10.6,9.4l-2.9,23.5c-6.3,2.7-12.1,6.3-17.5,10.4l-22.2-9.3c-5-2.1-10.7-0.2-13.4,4.5l-17.3,29.9
	c-2.7,4.7-1.5,10.6,2.8,13.9l19.2,14.6c-0.4,3.3-1,6.6-1,10c0,3.4,0.6,6.7,1,10l-19.2,14.6c-4.3,3.2-5.5,9.2-2.8,13.9l17.3,29.9
	c2.7,4.7,8.4,6.6,13.4,4.5l22.2-9.4c5.4,4.1,11.2,7.8,17.5,10.4l2.9,23.5c0.7,5.3,5.2,9.4,10.6,9.4h34.5c5.4,0,9.9-4,10.6-9.4
	l2.9-23.5c6.3-2.7,12.1-6.3,17.5-10.4l22.2,9.3c5,2.1,10.7,0.2,13.4-4.5l17.3-29.9c2.7-4.7,1.5-10.6-2.8-13.9L476.6,404.9z
	 M397.5,437.6c-23.6,0-42.7-19.1-42.7-42.7c0-23.6,19.1-42.7,42.7-42.7c23.6,0,42.7,19.1,42.7,42.7
	C440.2,418.5,421.1,437.6,397.5,437.6z"/>
</svg>
