<?xml version="1.0" encoding="utf-8"?>
<!-- Generator: Adobe Illustrator 21.1.0, SVG Export Plug-In . SVG Version: 6.00 Build 0)  -->
<svg version="1.1" id="Layer_1" xmlns="http://www.w3.org/2000/svg" xmlns:xlink="http://www.w3.org/1999/xlink" x="0px" y="0px"
	 viewBox="0 0 512 374.1" style="enable-background:new 0 0 512 374.1;" xml:space="preserve">
<style type="text/css">
	.Drop_x0020_Shadow{fill:none;}
	.Outer_x0020_Glow_x0020_5_x0020_pt{fill:none;}
	.Jive_GS{fill:#A6D0E4;}
	.st0{opacity:0.2;fill:#68A7DD;}
	.st1{fill:none;stroke:#B0B0AF;stroke-width:0.5;stroke-miterlimit:10;}
	.st2{fill:#4570B3;}
	.st3{fill:#F5F5F5;}
	.st4{fill:#B0B0AF;}
	.st5{fill:none;stroke:#222221;stroke-width:0.6698;stroke-miterlimit:10;}
	.st6{fill:#DB901B;}
	.st7{fill:#EAB9B9;}
	.st8{fill:#CA4F24;}
	.st9{fill:#68A7DD;}
	.st10{fill:#E5A3A3;}
	.st11{fill:#3F2D1F;}
	.st12{fill:#5F3E1B;}
	.st13{fill:#2C285B;}
	.st14{fill:#9AABB7;}
	.st15{fill:#73848E;}
	.st16{fill:#313280;}
</style>
<g>
	<ellipse class="st0" cx="254.9" cy="342.1" rx="243.8" ry="27.1"/>
	<path class="st0" d="M75.6,130.2c-29.2-4.4-39.8-33.4-42.6-41.4C23,61,28.1,26.4,56.9,11.4c21.9-11.3,57.3,0.5,75.7,14.4
		c16.8,12.7,27.2,29.4,45.8,39.6c47.3,26,89.4-20.3,130.2-39c28.4-13,61.6-20.8,91-6.3c25.7,12.7,22.2,39.2,2.4,55.6
		c-12.1,10-53,25.4-48.9,47.3c3.7,20.2,43.1-3.5,51.3-8.7c23.7-15.2,39.1-17.8,64.6-4c20.3,11.1,26.3,28.7,31.2,50.9
		c4.2,19.2,10.7,48,0.8,66c-12.2,22.1-36,39.3-61.1,42.3c-32.6,3.9-73.9,9.6-105.4-0.4c-22.8-7.2-41.3-25.7-64.3-31.5
		c-21.1-5.3-39.3,3.5-57.2,13.5c-18.9,10.6-40.1,19.2-60.9,25.4C111,288.5,35.6,290.2,12.7,243.8c-7.8-15.8-9.6-36.3-1.4-52.3
		c8-15.7,23.4-18.7,38.5-25.7c7.8-3.6,51.7-17.8,38.8-32.4c-2.2-2.5-7.5-2.9-10.7-3L75.6,130.2z"/>
	<g>
		<g>
			<polygon class="st1" points="183.3,81.6 254.9,36.8 316.2,81.4 254.9,122.4 			"/>
			<circle class="st2" cx="253.6" cy="38.7" r="5.1"/>
		</g>
		<rect x="180.8" y="80.2" class="st3" width="137.2" height="114"/>
		<g>
			<g>
				<path class="st4" d="M198.5,117.3c3.8-0.2,7.5-0.2,11.3-0.2c3.8,0,7.5,0,11.3,0.2c-3.8,0.2-7.5,0.2-11.3,0.2
					C206,117.5,202.3,117.5,198.5,117.3z"/>
			</g>
			<g>
				<path class="st4" d="M198.5,108.5c3.8-0.2,7.5-0.2,11.3-0.2c3.8,0,7.5,0,11.3,0.2c-3.8,0.2-7.5,0.2-11.3,0.2
					C206,108.7,202.3,108.7,198.5,108.5z"/>
			</g>
			<g>
				<path class="st4" d="M198.5,99.4c3.3-0.2,6.7-0.2,10-0.2c3.3,0,6.7,0,10,0.2c-3.3,0.2-6.7,0.2-10,0.2
					C205.2,99.6,201.9,99.6,198.5,99.4z"/>
			</g>
		</g>
		<g>
			<line class="st5" x1="193.7" y1="169.4" x2="306.6" y2="169.4"/>
			<g>
				<rect x="203.5" y="139.3" class="st6" width="12.5" height="27.4"/>
				<rect x="228.8" y="117.3" class="st2" width="12.6" height="49.4"/>
				<rect x="255.1" y="133.9" class="st6" width="11" height="32.8"/>
				<rect x="279.8" y="110.4" class="st2" width="19.8" height="56.3"/>
			</g>
		</g>
	</g>
	<g>
		<g>
			<path class="st7" d="M118.5,246.1l-8.1,84.8l-0.6,6l-27.3,3.4c2.7-4.5,8.1-7.1,12.6-8.7c3.9-1.4,7.1-1.8,7.1-1.8l7-85
				L118.5,246.1z"/>
			<path class="st2" d="M110.3,330.9l-0.6,6l-27.3,3.4c2.7-4.5,8.1-7.1,12.6-8.7c-1.4,1.5-2,3,1.2,3.2
				C100.9,335.1,107,332.5,110.3,330.9z"/>
		</g>
		<g>
			<path class="st7" d="M162.7,334.8h-27.2l-0.2-5.8l-3-84.3h10.2l-1.1,79.4c6,0,10.9,2.2,14.5,4.5
				C160.3,331.6,162.7,334.8,162.7,334.8z"/>
			<path class="st2" d="M162.7,334.8h-27.2l-0.2-5.8c5.9,1.1,18.5,2.9,20.6-0.4C160.3,331.6,162.7,334.8,162.7,334.8z"/>
		</g>
		<path class="st8" d="M119.3,186c0,0-21.1,35.8-20.2,75.2c0,0,23.8,9.3,50.8,0c0,0-0.1-67.2-17.6-80L119.3,186z"/>
		<g>
			<path class="st7" d="M112.7,199.4c0,0,3.3-6.2,8.1-5.1c4.8,1.1-7.5,5.9-1.6,7.2c5.9,1.3,13.1,0,13.1,0s6.2,5.1,2.1,9.4
				c-4,4.3-13.8,3.2-24.7-4.4c-10.9-7.6-3.4-5.2-3.4-5.2L112.7,199.4z"/>
			<path class="st2" d="M110.9,207.3l1.7-7.9c0,0-23.8-8-23.3-12.9c0.5-4.8,11.6-25.5,11.6-25.5l4.7-11l-8.4-13.6c0,0-20,45.3-17,53
				C83.2,197.3,110.9,207.3,110.9,207.3z"/>
		</g>
		<g>
			<path class="st7" d="M185.4,149.3c0,0-0.2-0.2-0.5-0.6c-1.6-2.1-3.6-9.8,2.9-14.3c7.8-5.4-2.4,9.4,2.4,7
				c4.8-2.4,7.5-9.8,13.7-9.2c6.2,0.5,6.2,7.2,6.2,7.2l-22.8,11.8C187.3,151.1,185.6,149.5,185.4,149.3"/>
			<path class="st2" d="M128,134.2c0,0,2.4-2.1,10.2,5.1c7.8,7.2,18.5,25.5,24.5,24.8c6-0.7,21.4-16.9,21.4-16.9l3.1,3.9
				c0,0-15,24.1-26,24.7c-11,0.5-30.8-31.1-30.8-31.1L128,134.2z"/>
		</g>
		<path class="st9" d="M143.1,162.1L143.1,162.1c-1.3,3.6-4.1,5.6-4.1,5.6l-1.4,19.9c0,0-9.7,11.8-19.1,4.6
			c-9.5-7.2-21.2-55.8-21.2-55.8s-1-1.1,4.7-1.8c1.1-0.2,2.4-0.3,4-0.4c0,0,0.1,0,0.2,0c2.1-0.1,4.6-0.2,7.7-0.3c2.6,0,4.8,0,6.7,0
			c0,0,0.1,0,0.1,0h0.1c3.8,0,6.2,0,7.7,0.1h0.4c0.7,0,1.2,0.1,1.4,0.1c0.2,0,0.3,0,0.3,0s0,0,0,0c0.7,1,12.3,16.8,13.3,23.2
			C143.9,159.2,143.6,160.7,143.1,162.1z"/>
		<path class="st10" d="M124.5,152.5c-4.9-0.3-17.6-12.9-22.5-17.9c1.1-0.2,2.4-0.3,4-0.4l0.2,0v-0.1l1.7-18.2
			c0,0,14.9,3.6,14.9,4.2c0,0.5-2.2,13-2.3,13.7c0,0,0,0,0,0l0.1,0h0.1c3.8,0,6.2,0,7.7,0.1c0,0,0,0.1,0,0.1c0,0.5,0.1,1.2,0.1,1.8
			v0C128.7,142.4,128.6,152.7,124.5,152.5z"/>
		<circle class="st11" cx="89.7" cy="85.2" r="14.1"/>
		<path class="st12" d="M106.3,113c0,0-14.9-5.1-13.5-22.7c1.3-17.6,14.5-22.9,25.1-24.3c10.6-1.3,37.7,10.9,22.9,33.3L106.3,113z"
			/>
		<path class="st7" d="M100.3,99.4c0,0,18-2.7,23.3-14.1c0,0,10.3,7.8,20.8,6.3c0,0,3.8,26.5-13.6,32.7c-17.4,6.2-28.8-9.6-28.8-9.6
			s-9.1,4.6-13.1-4.8C84.8,100.4,93.5,95.9,100.3,99.4z"/>
	</g>
	<path class="st13" d="M405.2,181.2c0,0,29.1-1.1,46.4,2.9c0,0-10.6,55.9-12.2,72.8h-49.1L405.2,181.2z"/>
	<g>
		<path class="st8" d="M384.2,187.6c0,0-8.3,32.6-23.3,44.4l7.5,3.5c0,0,19.8-17.2,23.3-42.4L384.2,187.6z"/>
		<path class="st6" d="M384.2,187.6c0,0,19.8-8.6,46.7,0.3V251h-46.7V187.6z"/>
		<path class="st10" d="M414.4,187.9l-2.4-18.7l-12.1,1.7l2.4,17C402.3,187.9,404.3,194.4,414.4,187.9z"/>
		<path class="st8" d="M380.2,217.4c0,0,23.1,7.5,31.4,13.4c0,0,12.1-40.5,17.4-42.1c5.4-1.6,8.3,3.8,6.2,11.5
			c-2.1,7.8-19.6,43.2-19.6,43.2l-36.5-19.8L380.2,217.4z"/>
		<path class="st12" d="M422.6,129.8c0,0,5.6-11.8-5.1-12.6c-10.7-0.8-14.5,8.3-14.5,8.3s-8.9-11.8-16.4-5.9
			c-7.5,5.9-2.4,10.2-2.4,10.2s-7.5-3.8-7.9,3.5c-0.4,7.2,4.2,8,4.2,8l9.2,16.2h37.2c0,0,14-12.4,9-20.2
			C430.9,129.5,422.6,129.8,422.6,129.8z"/>
		<path class="st7" d="M380.8,141.8c0,0,9.3,9.4,16.5,1.1c0,0,5.8,7.7,15.7,1.1c0,0,8.3,12.4,16.7,10.6c0,0,4-2.8,8.6,0.2
			s4.4,17.5-13.7,11.4c0,0-9.9,15.7-33.8,9.1C366.9,168.7,380.8,141.8,380.8,141.8z"/>
		<path class="st7" d="M380.1,224.3c0,0,6-10.3-2.8-12.5c-8.8-2.2-16,5.6-13.2,9.3C366.8,224.8,380.1,224.3,380.1,224.3z"/>
	</g>
	<g>
		<rect x="324.8" y="229" class="st14" width="50.5" height="9.3"/>
		<rect x="279.8" y="174.7" class="st15" width="58.7" height="63.6"/>
	</g>
	<g>
		<rect x="246" y="238.3" class="st16" width="223.3" height="10.5"/>
		<rect x="258.1" y="248.7" class="st13" width="198.3" height="86.1"/>
	</g>
</g>
</svg>
