<?xml version="1.0" encoding="utf-8"?>
<!-- Generator: Adobe Illustrator 21.1.0, SVG Export Plug-In . SVG Version: 6.00 Build 0)  -->
<svg version="1.1" id="Layer_1" xmlns="http://www.w3.org/2000/svg" xmlns:xlink="http://www.w3.org/1999/xlink" x="0px" y="0px"
	 viewBox="0 0 512 370.8" style="enable-background:new 0 0 512 370.8;" xml:space="preserve">
<style type="text/css">
	.Drop_x0020_Shadow{fill:none;}
	.Outer_x0020_Glow_x0020_5_x0020_pt{fill:none;}
	.Jive_GS{fill:#A6D0E4;}
	.st0{opacity:0.2;fill:#68A7DD;}
	.st1{fill:none;stroke:#B0B0AF;stroke-width:0.5;stroke-miterlimit:10;}
	.st2{fill:#F5F5F5;}
	.st3{fill:#4570B3;}
	.st4{fill:#B0B0AF;}
	.st5{fill:#68A7DD;}
	.st6{fill:#CA4F24;}
	.st7{fill:#DB901B;}
	.st8{fill:#BF812E;}
	.st9{fill:#E5A3A3;}
	.st10{fill:#EAB9B9;}
	.st11{fill:#2C285B;}
	.st12{fill:#313280;}
	.st13{fill:#9AABB7;}
	.st14{fill:#73848E;}
	.st15{fill:#5F3E1B;}
</style>
<g>
	<ellipse class="st0" cx="257" cy="340.5" rx="248.9" ry="23.1"/>
	<path class="st0" d="M75.7,290.9c-21.6-4.9-42.8-4.9-56.3-23.3C7.4,251.4,2.8,223.3,8.7,204c5.5-18,22.1-18.3,37.2-26.2
		c12.5-6.5,15.1-16.3,11.5-29.4c-4-14.7-8.7-33.3-4.4-48.7c10.1-36.1,56.2-69.2,83.2-43.1c10.8,10.4,7.8,24,21.9,32.1
		c9.8,5.6,21.8,8.9,32.8,5.9c12.4-3.4,29.5-12.7,35.9-24.1c9.7-17.4,16.2-32.6,31-47.2C280.4,1.2,367-3.7,380.1,41.5
		c5.3,18.4-5.4,37.8-17.5,50.6c-13,13.8-20.3,28.9-2.6,43.2c17.1,13.7,48.3,13.3,68.9,15c29,2.4,48.1,24,61.3,48.8
		c11.6,21.9,0.1,56.1-16.3,73c-13.8,14.2-32.1,11.4-50.3,11.2c-18.5-0.2-33.3-7.3-47.6-18.1c-15.1-11.4-98.1-13.6-123.2-3.7
		c-21,8.3-43.9,27-65.7,29.6C152,295.4,91.7,294.5,75.7,290.9z"/>
	<g>
		<g>
			<g>
				<path class="st1" d="M222.2,89.8L278.6,33l62.9,56.7c0,0-50.6,34.6-52.4,37.2C287.4,129.6,222.2,89.8,222.2,89.8z"/>
				<rect x="222.2" y="89.8" class="st2" width="119.3" height="116.8"/>
				<circle class="st3" cx="278.1" cy="33.7" r="3.8"/>
			</g>
			<g>
				<g>
					<polygon class="st4" points="324.9,188.3 304,188.4 283.1,188.4 241.4,188.5 241.2,188.5 241.2,188.3 241.2,149.1 241.3,129.6 
						241.4,110 241.5,129.6 241.6,149.1 241.7,188.3 241.4,188 283.1,188.1 304,188.1 					"/>
				</g>
				<g>
					<rect x="248.9" y="163.8" class="st5" width="10" height="22.4"/>
					<rect x="268.4" y="151.9" class="st3" width="10" height="34.2"/>
					<rect x="289.5" y="127.1" class="st6" width="10" height="59.1"/>
					<rect x="308.4" y="106.7" class="st7" width="10" height="79.4"/>
				</g>
			</g>
		</g>
	</g>
	<g>
		<g>
			<path class="st8" d="M113.3,157.9c0,5.3-4.3,9.6-9.6,9.6c-5.3,0-9.6-4.3-9.6-9.6c0-5.3,4.3-9.6,9.6-9.6
				C109,148.3,113.3,152.6,113.3,157.9z"/>
			<path class="st7" d="M149.1,168.6l-3.9,0.6l-25.9,22.1c0,0-21.6-9.9-12.9-26.7c10.9-21.3,25.3-9.3,25.3-9.3
				S148,147.1,149.1,168.6z"/>
		</g>
		<path class="st9" d="M117.6,199.5c0,0,2.6-12.4,2.8-13c0.2-0.6,11.3,0,11.3,0l-1.7,13.9l-7.4,5.5l-5-5.4V199.5z"/>
		<g>
			<path class="st10" d="M176.8,244.6c0,0,3.2-10.5,20.2,3.9l-19-0.4L176.8,244.6z"/>
			<path class="st7" d="M139,203.9l15.3,35.5c0,0,26.6,1.5,27.4,1.5v7.1l-32,0.5l-20-36.7C129.8,211.8,129.5,204.8,139,203.9z"/>
		</g>
		<path class="st6" d="M143.7,216.6c-3-9.1-4.7-12.7-4.7-12.7c-21.4-12.3-42.7-0.7-42.7-0.7c7.4,9.6,4.6,49.9,4.6,49.9H133
			c4.1-4.2,6.8-12.2,8.5-20.7c1.4-0.5,2.8-1.8,3.9-4.2C146.8,225.2,145.5,220.7,143.7,216.6z"/>
		<g>
			<path class="st10" d="M121.2,248.5c0,0,0.6-6.4,5.7-7.1c5.1-0.6,15.1,7.1,15.1,7.1H121.2z"/>
			<path class="st7" d="M102.2,203.9c-0.3-1.9-6.1-2.8-8.8,2.8c-2.6,5.7-4.3,41.8-4.3,41.8h37.2v-7c0,0-25.6-1.5-28.7-0.9
				C97.6,240.6,103.9,212.9,102.2,203.9z"/>
		</g>
		<path class="st10" d="M146.3,176.3c0,10-6.4,18.2-14.4,18.2c-6.5,0-11.9-5.4-13.7-12.9c0-0.1-10.2-0.1-9.2-8.5
			c1-8.3,9.3-2.6,9.3-2.6h0l26.8-1.3c0.2,0.5,0.3,0.9,0.4,1.4C146.1,172.4,146.3,174.3,146.3,176.3z"/>
	</g>
	<g>
		<rect x="39.8" y="257.8" class="st11" width="224.2" height="76.7"/>
		<rect x="26.2" y="248.5" class="st12" width="252.4" height="9.3"/>
	</g>
	<g>
		<rect x="190.9" y="233.3" class="st13" width="8.3" height="12.6"/>
		<path class="st14" d="M178,248.1c0,0,5.7-4.2,17-4.4c11.3-0.2,17.6,4.8,17.6,4.8L178,248.1z"/>
		<rect x="165.9" y="193" class="st14" width="58.3" height="42.4"/>
		<circle class="st5" cx="195.8" cy="215.2" r="8.7"/>
	</g>
	<g>
		<path class="st3" d="M415.9,149.1c0,0,6.8-5.6,14.7,7.5c7.8,13,20.2,40.8,20.2,40.8l-41.1,20.5l-1.6-7.5c0,0,28.4-16.2,29-17.4
			c0.6-1.2-21.8-31.5-21.8-31.5L415.9,149.1z"/>
		<path class="st10" d="M412.9,212.4c0,0-3.5-7.9-12.4,0c-8.8,7.9-1.6,12.3,0,13.8C402.2,227.7,421,221.1,412.9,212.4z"/>
	</g>
	<g>
		<path class="st3" d="M375,147c0,0-36.1,34.3-34.8,34.5c1.3,0.2,29.6,32.7,29.6,32.7l5.2-7.7l-20.1-27.7c0,0,22.2-14.4,26.1-22.2
			C384.9,148.8,375,147,375,147z"/>
		<path class="st10" d="M368.7,207c0,0,5.5-6.6,11.9,3.3c6.4,9.9-1.7,12.3-3.7,13.3C375,224.6,358.6,213.3,368.7,207z"/>
	</g>
	<path class="st5" d="M421.6,148.4c-7,26.6-8.9,99.7-8.9,99.7c-12.2,7.7-38.1,1-38.1,1c-11.1-44.8,0.3-102,0.3-102
		c3.3-1.3,6.6-2.3,9.8-2.9c1.3-0.3,2.6-0.5,3.9-0.7c0,0,0,0,0,0c9.2-1.2,17.3-0.1,23.2,1.5c0.2,0.1,0.5,0.1,0.7,0.2
		C418.2,146.6,421.6,148.4,421.6,148.4z"/>
	<polygon class="st9" points="392.4,146.5 392.4,131.2 406.1,131.2 404.8,148.1 	"/>
	<g>
		<path class="st6" d="M440.6,346.1c-7.8,0.3-25.9-4.2-25.9-4.2l-0.7-5.2l-10.9-85.4h0c-5.5,0.8-11.6,0.5-16.8-0.1l5.9,86l0.3,5
			l-25.9,1.3c6.1-7.8,17.4-8.9,17.4-8.9l0-0.5l-9.5-85c-1.9-7.8-3.2-15.9-3.9-24.1c13,3.5,29.8,4.3,42.8,4.3
			c-0.5,11.2-0.7,18.8-0.7,18.8l8.3,86.4v0.1C436.1,334.4,440.6,346.1,440.6,346.1z"/>
		<g>
			<path class="st11" d="M440.6,346.1c-7.8,0.3-25.9-4.2-25.9-4.2l-0.7-5.2c2-0.2,4.6-0.8,7-2.2v0.1
				C436.1,334.4,440.6,346.1,440.6,346.1z"/>
			<path class="st11" d="M392.7,342.2l-25.9,1.3c6.1-7.8,17.4-8.9,17.4-8.9l0-0.5c1.5,1.2,4.3,2.8,8.3,3.1L392.7,342.2z"/>
		</g>
	</g>
	<g>
		<path class="st2" d="M411.8,144.9c-4.4,25-19.5,34.6-19.5,34.6c-7.5-13-5.1-29.5-3.7-36.1c0,0,0,0,0,0
			C397.8,142.2,405.9,143.4,411.8,144.9z"/>
		<path class="st3" d="M393.7,147c-1.1,2-0.3,6.5,2,8.8c0,0-7.9,21-7.6,20.5c0.3-0.5,3.8,6.6,3.8,6.6s9.1-8.4,9.6-8.4
			c0.5,0-1.3-17.9-1.3-17.9s6.9-4.8,4.7-9.6c-0.7-1.6-3.9-4-5.6-4C397.5,143,394.5,145.5,393.7,147z"/>
		<path class="st11" d="M410.8,167.4c-4.6,7.2-19.8,16.5-19.8,16.5S377.6,167.2,380,155c1-5.3,2.9-8.7,4.8-10.8
			c1.3-0.3,2.6-0.5,3.9-0.7c-1.4,6.6-3.8,23.1,3.7,36.1c0,0,15.1-9.7,19.5-34.6c0.2,0.1,0.5,0.1,0.7,0.2
			C413.2,150,414.4,161.7,410.8,167.4z"/>
	</g>
	<g>
		<path class="st15" d="M379.7,120.2c0,0-9.3-15.2-3.4-23.9c0,0,21.1-15,48,0.7c0,0,6.6,5.2-7.8,23.3H379.7z"/>
		<path class="st10" d="M418.6,125.1c-3,7.8-10.5,13.4-19.4,13.4c-8.5,0-15.7-5.1-18.9-12.3l-0.6,0c-0.4,0-12.8,1-11.6-8.5
			c1.1-9.5,10.4-3,10.4-3s0.1,0,0.2,0c1.7,0,13.2-0.4,20.5-8c0,0,6,8.4,20.6,8.2h0.2c0,0,8.1-8.8,10.1,1.6
			C431.9,126.5,419.4,125.2,418.6,125.1z"/>
	</g>
</g>
</svg>
