<?xml version="1.0" encoding="utf-8"?>
<!-- Generator: Adobe Illustrator 21.1.0, SVG Export Plug-In . SVG Version: 6.00 Build 0)  -->
<svg version="1.1" id="Layer_1" xmlns="http://www.w3.org/2000/svg" xmlns:xlink="http://www.w3.org/1999/xlink" x="0px" y="0px"
	 viewBox="0 0 512 352" style="enable-background:new 0 0 512 352;" xml:space="preserve">
<style type="text/css">
	.Drop_x0020_Shadow{fill:none;}
	.Outer_x0020_Glow_x0020_5_x0020_pt{fill:none;}
	.Jive_GS{fill:#A6D0E4;}
	.st0{opacity:0.2;fill:#68A7DD;}
	.st1{fill:#2C285B;}
	.st2{fill:#5F3E1B;}
	.st3{fill:#CA4F24;}
	.st4{fill:#DB901B;}
	.st5{fill:#F5F5F5;}
	.st6{fill:#EAB9B9;}
	.st7{fill:#E5A3A3;}
	.st8{fill:#313280;}
	.st9{fill:#4570B3;}
	.st10{fill:#A54325;}
	.st11{fill:#68A7DD;}
</style>
<g>
	<ellipse class="st0" cx="254.6" cy="323.7" rx="248" ry="22"/>
	<path class="st0" d="M229.9,256.2c13.1-4.8,27.9-7.6,42-5.5c21.3,3.2,38.9,18.7,57.7,27.5c31.7,14.9,76,11.4,109.8,6.1
		c30.3-4.8,52.2-16.4,61.8-45.8c6-18.5,6.3-39.9-3.6-56.5c-13.2-22.1-35.3-27.1-60.6-32.5c-25.5-5.4-46.2-24.8-28.5-49.3
		c11.8-16.4,34.4-23.2,38-45.2c4.4-26.9-25.2-48.6-51.1-49.9c-29.1-1.4-34.2,20.7-46.3,40.1c-13.8,22.1-48.2,27-68.4,10.8
		c-14-11.2-23.9-28.5-38.7-37.6c-19.5-12-41.6-11.2-63-5.3c-27.8,7.6-66,17.7-71.5,49.2c-2.1,11.9-0.9,27.1,2.3,38.7
		c3,10.9,9,21.2,5.3,32.7c-8.3,25.2-39.8,29.3-60.6,40.3c-19.8,10.5-37.1,33.7-34.9,56c1.9,19.7,18.9,40.7,34.4,53.2
		c18.8,15,48.6,14.7,71.9,11c25.9-4.1,52.4-9.1,74.8-22.3C210.9,266.1,219.4,260.1,229.9,256.2z"/>
	<path class="st1" d="M129.6,243.8c0,0-3.8-71.5-6-76.4c-2.2-4.9,33.1-8.7,60.7-3.8l7.6,80.2H129.6z"/>
	<g>
		<path class="st2" d="M163.1,101.2c0,0,44.4-12.5,54.8,3.3c10.4,15.7,12.6,66.1-25.9,88.2c-38.5,22.1-81.5-4.7-68.4-39.5
			C136.7,118.3,164.6,127.2,163.1,101.2z"/>
		<path class="st3" d="M197.8,161.3c0,0,24.8,29.9,33.2,33.4l-3.8,9.5c0,0-26.6-15.7-33.9-28.5L197.8,161.3z"/>
		<path class="st4" d="M204.7,197.9c-2,7.3-10.2,7.3-10.2,7.3l-2.6,22h-37.2c0,0-6.5-56.1-0.8-67.9c0,0,4.5-1.1,11-1.9
			c8.4-1,20.2-1.2,29.8,2.6c1.1,0.4,2.1,0.9,3.1,1.4C197.8,161.3,206.7,190.5,204.7,197.9z"/>
		<path class="st5" d="M216.9,166c0,0-1.9,32.3-7,48.5h33.3c0,0,8.4-37.7,5.2-49.9L216.9,166z"/>
		<g>
			<path class="st6" d="M205,197.2c0,0,5.2-11.7,8.4-13.3c3.2-1.5-3.8,7.9,0,8c3.8,0.1,15.7-9.2,15.7-9.2s3.7,7.4,1.9,12
				c-1.8,4.6-23.8,7.8-23.8,7.8L205,197.2z"/>
			<path class="st3" d="M153.9,159.2c0,0-5.7,3-3.9,15.7c1.7,12.7,11.1,46.9,11.1,46.9s21.1-2.3,48.8-19.3l-3-8.1l-39.3,14.9
				C167.6,209.4,165.4,165.2,153.9,159.2z"/>
		</g>
		<path class="st6" d="M240.7,197.7c0,0,4.1-10.3,9.8-8.1c5.7,2.2,1.1,17.9-4.9,16C239.7,203.7,240.7,197.7,240.7,197.7z"/>
		<path class="st7" d="M194.7,142.3l-14.9-2.2c0,0-3.6,11.3-6.4,16.6c-3,0.1-5.9,0.3-8.5,0.6c1.4,8.1,21.3,25.4,21.3,25.4
			c4.8-4.7,7.5-17,8.5-22.8c-1.9-0.8-4-1.3-6.1-1.8C190.9,154.8,194,149.1,194.7,142.3z"/>
		<path class="st6" d="M217.9,130.5c0,12.5-10.1,22.6-22.7,22.6c-11.9,0-21.7-9.3-22.5-21c-0.1,0-0.1,0-0.1,0
			c-10.7-1.6-11.9-12.6-5.9-16.1c6.1-3.5,9.8,1.7,9.8,1.7l0,0c6.7,7.6,28.4,3.2,28.4,3.2c6.1,6.4,11.2,6.8,12.7,6.3
			c0,0.1,0.1,0.2,0,0.3C217.8,128.5,217.9,129.5,217.9,130.5z"/>
	</g>
	<g>
		<rect x="46.5" y="221.8" class="st8" width="286.3" height="10.6"/>
		<rect x="62" y="232.4" class="st1" width="254.4" height="87"/>
	</g>
	<path class="st1" d="M368,260.9v58.5h-11.8V250c0,0,69.5,1.8,69.5,0c0-1.8,0.4-75.8,6.9-88.4l13.8,2.4c0,0-14.6,86.2-13,94.7v60.6
		h-11v-60.2L368,260.9z"/>
	<g>
		<path class="st9" d="M394.5,157.5l-2.8,43.7c0,0-13.4,33.7-22.7,40.8l8.7,4.5c0,0,17.3-17.4,25.4-45.1
			C403,201.4,412.8,140.7,394.5,157.5z"/>
		<g>
			<path class="st10" d="M407.2,243.4c-0.8-0.5-43.9,11.4-43.9,11.4c-3.3,19.5-14.6,49-14.6,49s0,0.4-0.1,1.1
				c-0.1,2.1-0.5,6.5-1.3,6.5c-1.1,0-24.4-2.2-24.4-2.2c8.1-8.1,19.8-6.5,19.8-6.5s0-0.1,0.1-0.3c0.8-4.1,10.3-50.1,12.4-55
				c2.2-5.2,34-12.2,34-12.2l9.6-7.1C398.8,228.2,408,243.9,407.2,243.4z"/>
			<path class="st1" d="M348.6,304.9c-0.1,2.1-0.5,6.5-1.3,6.5c-1.1,0-24.4-2.2-24.4-2.2c8.1-8.1,19.8-6.5,19.8-6.5s0-0.1,0.1-0.3
				L348.6,304.9z"/>
			<g>
				<path class="st3" d="M424.1,238.1l-3.3,12.6l-51.6,4.1l-6.6,56.2l-0.8,6.4l-32.1-4.9c0,0,8.4-8.3,24.6-6.2
					c0.2,0,0.5,0.1,0.7,0.1c0,0,1.9-52.8,4.8-57.3c2.9-4.5,42.3-12.8,42.3-12.8l8.5-10.8L424.1,238.1z"/>
				<path class="st1" d="M362.7,310.9l-0.8,6.4l-32.1-4.9c0,0,8.4-8.3,24.6-6.2L362.7,310.9z"/>
			</g>
		</g>
		<path class="st4" d="M355.4,125.7c0,0-24.7-14.6-12-27.6c12.7-13,41.3-3.8,46.2,6.5c0,0,24-1.5,2,37.8L355.4,125.7z"/>
		<path class="st7" d="M395.1,145.6c0,0-6.6-6-10.1-13l-11.4,6.5c0,0,9.3,15,10.8,16.7l12.5-6.4L395.1,145.6z"/>
		<path class="st11" d="M380.6,155.2l15.4-10.2c0,0,37.8,22.4,28.1,93.2l-35-2.8c0,0-2-18.9,0.8-31.6
			C390,203.6,372.9,177.9,380.6,155.2z"/>
		<g>
			<path class="st6" d="M327.8,182.1c0,0-21.7,2.1-22.8-4.6c0,0,18.8-5.8,24.8-2.8l2.3,5L327.8,182.1z"/>
			<path class="st9" d="M399.1,155.8c0,0-3.7-1.7-11.7,9.8c-7.9,11.5-16.3,24.9-16.3,24.9l-41.3-15.7l-2,7.4c0,0,39.3,20,44.5,18.2
				c5.1-1.7,26.8-30.2,26.8-30.2S406.9,161.3,399.1,155.8z"/>
		</g>
		<path class="st6" d="M385,135.4c-1.2,9.6-6.3,17-13.5,18.1c-9.6,1.5-19.2-8.7-21.4-22.9c-1-6.4-0.4-12.4,1.5-17.3
			c0.2-0.5,0.3-0.9,0.5-1.4c6.4,3.5,18.7,9.3,31,10.6c0,0,1-4.4,6.4-1.8c1.1,0.5,2,1.4,2.8,2.6C395.5,127.8,395.4,135.9,385,135.4z"
			/>
	</g>
</g>
</svg>
