<?xml version="1.0" encoding="utf-8"?>
<!-- Generator: Adobe Illustrator 21.1.0, SVG Export Plug-In . SVG Version: 6.00 Build 0)  -->
<svg version="1.1" id="Layer_1" xmlns="http://www.w3.org/2000/svg" xmlns:xlink="http://www.w3.org/1999/xlink" x="0px" y="0px"
	 viewBox="0 0 512 289.3" style="enable-background:new 0 0 512 289.3;" xml:space="preserve">
<style type="text/css">
	.Drop_x0020_Shadow{fill:none;}
	.Outer_x0020_Glow_x0020_5_x0020_pt{fill:none;}
	.Jive_GS{fill:#A6D0E4;}
	.st0{opacity:0.2;fill:#68A7DD;}
	.st1{fill:none;stroke:#2B285B;stroke-width:2;stroke-miterlimit:10;}
	.st2{fill:#F5F5F5;}
	.st3{fill:#DB901B;}
	.st4{fill:#CA4F24;}
	.st5{fill:#4570B3;}
	.st6{fill:#68A7DD;}
	.st7{fill:#B0B0AF;}
	.st8{fill:#2C285B;}
	.st9{fill:#EAB9B9;}
	.st10{fill:#E5A3A3;}
	.st11{fill:#A54325;}
	.st12{fill:#5F3E1B;}
	.st13{fill:#313280;}
</style>
<g>
	<ellipse class="st0" cx="253.8" cy="269.7" rx="246.7" ry="15.3"/>
	<path class="st0" d="M119.6,12.2c-15.9,1.8-35,15.2-45.8,33.5c-10.6,18-10.6,38.7-16.4,57.8c-3.9,12.9-10.3,30.5-21,39.4
		c-7.2,5.9-20.2,20.5-25.6,33.8c-6.3,15.7-5.6,30.6,2.3,41.9c14.4,20.8,44.5,19.5,66.8,17.5c26.7-2.4,50.9-12.4,75-23.5
		c19.6-9.1,45.3-18.4,66.9-10.8c19.6,7,41.2,12.6,59.8,22.3c27.4,14.3,56.7,25.6,87.9,25.6c31.2,0,60.9-6,89.6-18.5
		c19.3-8.4,47.6-29.2,46.2-53.2c-1.1-20-13.6-38.7-32.3-45.6c-18.7-6.9-37.7-5.2-57.4-5.2c-18.8,0-63.1,8.2-58.6-22.8
		c4.9-34.1,48.6-37.1,65.7-62C440.1,17.1,401.4,3.9,382.6,5c-27.7,1.6-55.5,19.3-68.7,43.7c-12.9,23.7-21.9,55.4-50.9,64.6
		c-22.3,7.1-45.4-4.5-56.7-23.7c-3.6-6.2-5.2-26.5-12.7-38.5C173.5,19.1,132.7,10.7,119.6,12.2z"/>
	<g>
		<polyline class="st1" points="84.6,265 98.6,175.5 130.9,175.5 143.5,263.5 		"/>
		<line class="st1" x1="91.3" y1="222.5" x2="137.3" y2="222.5"/>
		<g>
			<rect x="70.8" y="81.4" class="st2" width="83.1" height="109.1"/>
			<g>
				<path class="st3" d="M112.2,95.3v20.4l-14.6-14.6C101.5,97.5,106.6,95.3,112.2,95.3z"/>
				<path class="st4" d="M127,100.9l-14.8,14.8V95.3h0.1C118,95.3,123.2,97.4,127,100.9z"/>
				<path class="st5" d="M112.2,115.7l-16,16c-3.5-3.9-5.6-9-5.6-14.6c0-6.3,2.7-12,7-16L112.2,115.7z"/>
				<path class="st6" d="M134.1,117c0,12-9.7,21.7-21.7,21.7c-6.4,0-12.1-2.8-16.1-7.1l16-16l14.8-14.8
					C131.4,104.9,134.1,110.6,134.1,117z"/>
			</g>
			<g>
				<g>
					<path class="st7" d="M85.8,147.6c4.4-0.1,8.8-0.2,13.2-0.2l13.2-0.1l13.2,0.1c4.4,0,8.8,0.1,13.2,0.2
						c-4.4,0.1-8.8,0.2-13.2,0.2l-13.2,0.1L99,147.8C94.6,147.7,90.2,147.7,85.8,147.6z"/>
				</g>
				<g>
					<path class="st7" d="M85.8,158.8c4.4-0.1,8.8-0.2,13.2-0.2l13.2-0.1l13.2,0.1c4.4,0,8.8,0.1,13.2,0.2
						c-4.4,0.1-8.8,0.2-13.2,0.2l-13.2,0.1L99,159C94.6,159,90.2,158.9,85.8,158.8z"/>
				</g>
				<g>
					<path class="st7" d="M85.8,169.6c4.4-0.1,8.8-0.2,13.2-0.2l13.2-0.1l13.2,0.1c4.4,0,8.8,0.1,13.2,0.2
						c-4.4,0.1-8.8,0.2-13.2,0.2l-13.2,0.1L99,169.8C94.6,169.7,90.2,169.7,85.8,169.6z"/>
				</g>
				<g>
					<path class="st7" d="M85.8,180.3c4.4-0.1,8.8-0.2,13.2-0.2l13.2-0.1l13.2,0.1c4.4,0,8.8,0.1,13.2,0.2
						c-4.4,0.1-8.8,0.2-13.2,0.2l-13.2,0.1L99,180.5C94.6,180.5,90.2,180.4,85.8,180.3z"/>
				</g>
			</g>
		</g>
	</g>
	<polygon class="st8" points="314.9,155.4 361.2,156.4 357.2,196.4 321.7,198.7 	"/>
	<polygon class="st8" points="396.1,154.4 442.3,155.4 438.3,195.4 402.8,197.7 	"/>
	<g>
		<path class="st3" d="M314.9,173.1c0,0-20.8-34.4-8.9-47.3c11.9-12.9,27.3-4.3,31.1,2.1c3.8,6.3,24,43,6.2,46.6
			C325.6,178.2,314.9,173.1,314.9,173.1z"/>
		<g>
			<path class="st9" d="M272.7,180.9l2.3,4.8l-4.3,1.7c0,0-13.8-0.8-15.2-6.5c-1.4-5.7-0.8-7.5,2.1-7c2.9,0.5,6.5,5.7,9.1,3.7
				c2.5-2.1-1.1-5.2,1.9-5.6C271.6,171.7,272.7,180.9,272.7,180.9z"/>
			<path class="st6" d="M272.7,180.9l-1.9,6.5c0,0,28.7,2.7,29.2,2.7c0.5,0,13.2-19.5,14.9-28.6c0,0-4.3-2.4-7.8,2.7
				c-3.5,5.1-4.9,16.2-9.2,18.6C293.7,185.2,272.7,180.9,272.7,180.9z"/>
		</g>
		<path class="st5" d="M311.5,162c0,0,12.7-10.6,28.1-4.9c0,0,2.7,35.6,8.6,39.7h-30.8l-4.8-14.1C312.6,182.6,304,184.4,311.5,162z"
			/>
		<g>
			<path class="st9" d="M324.3,190.1c0,0-9.2-5.4-13.3-2.7c-4.1,2.7-4.9,5.2-4.9,5.2l18.3-0.6V190.1z"/>
			<path class="st6" d="M320.2,192.7v-4.5c0,0,18.6,1,22.7-1.5c0,0-8.7-27.7-5-30.1c3.7-2.4,13.6,31.4,13.6,36.1H320.2z"/>
		</g>
		<path class="st10" d="M318.3,149.6c0,0,2.1,5.5,3,7.3c0,0-3.1,1.1-4.2,1.7l7.2,12.6l9.5-15.5l-3.1-0.2c0,0-3.8-8.7-3.9-11
			L318.3,149.6z"/>
		<path class="st9" d="M311.5,124.4c0,0-8.3,5.9-6.8,15.9c1.4,10,15.2,17.6,25.1,4.1c0,0,6.4,0.2,6.1-5.1c-0.2-5.2-7.6-4-7.6-4
			S315.9,137.4,311.5,124.4z"/>
	</g>
	<g>
		<g>
			<path class="st9" d="M226.4,185.8l4.4-1.1c0,0,2.6,17.7,0,21.5c-2.6,3.9-7.7,0-7.7,0s4.4-10.3,2.6-13.2c-1.8-2.8-6.3,4.3-6.2,1
				c0.1-2.5,4.3-6.2,6.2-7.7c0.6-0.5,1-0.8,1-0.8"/>
			<path class="st4" d="M214.4,117.3c0,0,2-5.2,8.3-2.6c6.3,2.6,8.3,71,8.3,71l-5.2,0.6C225.8,186.3,220.9,121.3,214.4,117.3z"/>
		</g>
		<g>
			<path class="st9" d="M142,114.7l5.1-2.6c0,0-0.2-9.3,2-12c2.2-2.6-5.7-2-7.1,2.5c-1.4,4.6-13.4-8.6-17,2.5
				C125,105.2,136.1,109.3,142,114.7z"/>
			<path class="st4" d="M185.4,112.1c0,0-14.4,17-18.9,17.2c-4.5,0.2-19.5-17.2-19.5-17.2l-5.9,1.9c0,0,20.3,23.7,24.6,23.9
				c4.3,0.2,22.9-15.6,22.9-15.6L185.4,112.1z"/>
		</g>
		<path class="st10" d="M209.1,112.1c0,0,0.2-9.3,0.3-14.1l-12.8,1.3l1,11.1C197.6,110.4,206.6,111,209.1,112.1z"/>
		<g>
			<path class="st3" d="M214.4,178.9l-19.6,9.1l-19.2-9.1c0,0,2.9-51.9,9.8-66.8c0,0,3.1-1.1,8.8-1.6c4.9-0.4,11.8-0.2,20.3,1.8
				c2.6,0.6,5.4,1.4,8.3,2.4C222.8,114.7,212.5,147.7,214.4,178.9z"/>
			<path class="st2" d="M214.5,112.3L195.1,151c-2.4-5.4-1.4-31.3-0.9-40.5C199.1,110.1,206,110.3,214.5,112.3z"/>
			<path class="st4" d="M198.4,113.1c0,0-1.4,6,1.2,7.6c0,0-5.7,10.4-6.9,15.6c0,0.1-0.6-1.5-0.1,0.4c1.3,5,2.5,14.4,2.5,14.4
				l8.9-13.1c0,0-0.8-14.3-0.8-17c0,0,4.1-2.1,3.9-7.3C206.9,108.3,198.8,109.1,198.4,113.1z"/>
			<g>
				<path class="st11" d="M194.2,110.5c0,0-4.3,7.5-4,16.3c0.3,9.1,4.9,24.5,4.9,24.5L194.2,110.5z"/>
				<path class="st11" d="M195.1,151c0,0,14.5-29.6,19.4-38.7c0,0,0.1,11.9-4,19.2c-4.1,7.3-4.1,7.3-4.1,7.3L195.1,151z"/>
			</g>
		</g>
		<g>
			<path class="st8" d="M234.8,261.8l-22.8-0.9l-1.1-6.4l-10.5-61.6c0,0-4.6,1.8-12.9,0.3l5.1,60.7l0.5,6.1l-23,2.4
				c0,0,1.8-7.6,15.2-8.2c0,0,0-0.1,0-0.3c-0.4-4.3-6.1-60.6-5.9-61c0.1-0.5-6.1-4-3.8-14h38.8c0,0,1.7,8.1-0.9,10.3
				c-2.6,2.3-4.6,2.7-4.6,2.7l8.2,61.2c0,0,0.1,0,0.4,0C220.5,253.4,236.9,255.2,234.8,261.8z"/>
			<g>
				<path class="st4" d="M193.1,260l-23,2.4c0,0,1.8-7.6,15.2-8.2c0,0,0-0.1,0-0.3c1.3,0.5,3.6,0.9,7.3,0L193.1,260z"/>
				<path class="st4" d="M234.8,261.8l-22.8-0.9l-1.1-6.4c1.6,0,4.3-0.3,6.7-1.3C220.5,253.4,236.9,255.2,234.8,261.8z"/>
			</g>
		</g>
		<g>
			<path class="st3" d="M188.7,85c0,0-10.4-6.3-5.5-10.4c4.9-4.1,20.5-5.1,26.7,0c6.2,5.1,9.5,13.8,7.4,19.1
				C215.3,99,188.7,85,188.7,85z"/>
			<path class="st9" d="M212.6,98.6c-2.5,4.9-7.7,8.3-13.6,8.3c-8.5,0-15.3-6.8-15.3-15.3c0-3.1,0.9-6,2.6-8.5
				c0,0,12.4,4.4,21.7,1.3c0,0,2.9,6.4,6.4,7.1c0,0,3.5-5.5,6.7-0.9C224.2,95.2,218.1,102.3,212.6,98.6z"/>
		</g>
	</g>
	<g>
		<path class="st4" d="M390,198.7c0,0-12.6-43-7.6-45.8c5-2.8,35.9-8.6,42.8-2.5c7,6-1.3,46.3-1.3,46.3L390,198.7z"/>
		<polygon class="st10" points="409.6,148.7 403.7,135 393,137.6 397.4,151.7 		"/>
		<g>
			<path class="st3" d="M399,155.2c0,0,0.5,4.6,2.3,6.4l1.6,23l6.7,6l3.1-7.5l-7.2-22.5c0,0,1.9-5.9,1.3-8.5
				c-0.6-2.6-4.7-4.4-4.7-4.4L399,155.2z"/>
			<polygon class="st2" points="394.6,147.7 409.6,144.3 409.6,158 402.1,150.5 397.4,159.9 			"/>
		</g>
		<g>
			<path class="st9" d="M405.5,189.3c0,0-4.9-5.7-11.3-2.3c-6.4,3.4-5.9,5.4-5.9,5.4h19.6L405.5,189.3z"/>
			<path class="st3" d="M424.4,149.7c0,0-3.3,6,0,13.3c3.3,7.4,6.9,21.7,6.9,21.7l-28.5,2.2v5.4h38.7
				C441.5,192.4,434.2,146.2,424.4,149.7z"/>
		</g>
		<g>
			<path class="st9" d="M398.2,175.9c0,0,2.6-7.3,5.6-8.5c3-1.2,8.9,2,8.9,2s3.1,4.1-1.3,5.6c-4.4,1.5-10.3,5.9-10.3,5.9
				L398.2,175.9z"/>
			<path class="st3" d="M402,181.5c0,0-7,3-15,5.9c-8.4,3.1-17.8,6-21,5.4c-5.5-1.1,11.3-31,15.5-38.3c-0.6,2.9,0.1,8.9,1.4,15.6
				c-4,7-8.5,13.9-8.5,13.9l10.4-5l13-6.3L402,181.5z"/>
		</g>
		<g>
			<path class="st12" d="M385,122.3c0,0-7.3-8.3-3.7-11.6c3.6-3.3,23.9-0.5,28.3,2.6c4.4,3.1,0,18.7,0,18.7L385,122.3z"/>
			<path class="st9" d="M405.8,135.5c-2.2,4.8-6.6,8-11.6,8.8c-10.9,1.7-13-7.1-13-16c0-2.5,0.5-4.9,1.3-7c0.2-0.7,0.5-1.3,0.9-1.8
				c4.4-0.3,12.5-1,16.5-1.9l7.2,8.7l0.1,0.2c0,0,2.3-3.8,5.4,0C415.8,130.2,415.1,138.6,405.8,135.5z"/>
		</g>
	</g>
	<g>
		<rect x="260.2" y="191.7" class="st13" width="210.6" height="7.8"/>
		<rect x="271.6" y="199.5" class="st8" width="187.1" height="64"/>
	</g>
</g>
</svg>
