<?xml version="1.0" encoding="utf-8"?>
<!-- Generator: Adobe Illustrator 21.1.0, SVG Export Plug-In . SVG Version: 6.00 Build 0)  -->
<svg version="1.1" id="Capa_1" xmlns="http://www.w3.org/2000/svg" xmlns:xlink="http://www.w3.org/1999/xlink" x="0px" y="0px"
	 viewBox="0 0 512 512" style="enable-background:new 0 0 512 512;" xml:space="preserve">
<style type="text/css">
	.st0{fill:#FBE3B3;}
	.st1{fill:#F5BA42;}
</style>
<g>
	<g>
		<path class="st0" d="M333.5,194c-3.9,0-7.7-0.7-11.4-1.6c8.3,8.5,15.9,17.7,22.6,27.5c2.6-2.8,4.2-6.4,4.2-10.4
			C348.9,201,342,194,333.5,194z"/>
	</g>
</g>
<g>
	<g>
		<path class="st0" d="M333.5,8.1c-78.1,0-143.9,52.7-163.9,124.4c3-0.2,6-0.5,9-0.5c41.7,0,80.4,12.7,112.6,34.5
			c-2.6-5.8-4.2-12.2-4.2-19c0-20.2,13-37.2,31-43.6V85.6c0-8.6,6.9-15.5,15.5-15.5s15.5,6.9,15.5,15.5v15.5h15.5
			c8.6,0,15.5,6.9,15.5,15.5s-6.9,15.5-15.5,15.5h-31c-8.6,0-15.5,7-15.5,15.5s6.9,15.5,15.5,15.5c25.6,0,46.5,20.9,46.5,46.5
			c0,15.6-7.9,29.2-19.7,37.6c12.5,26.2,19.7,55.4,19.7,86.4c0,3-0.3,6-0.5,9c71.7-20.1,124.4-85.8,124.4-163.9
			C503.9,84.4,427.6,8.1,333.5,8.1z"/>
	</g>
</g>
<g>
	<path class="st1" d="M178.5,163.1c-94.1,0-170.4,76.3-170.4,170.4c0,1.3,0,2.6,0,3.9c0,0.4,0,0.7,0,1.1c0,1,0.1,2,0.1,3.1
		c0,0.3,0,0.6,0,0.9c0.1,1.2,0.1,2.5,0.2,3.7c0,0.4,0.1,0.8,0.1,1.3c0.1,0.8,0.1,1.7,0.2,2.5c0,0.5,0.1,1,0.2,1.5
		c0.1,0.9,0.2,1.8,0.3,2.7c0.1,0.8,0.2,1.6,0.3,2.5c0.1,0.6,0.2,1.2,0.2,1.8c0.1,0.7,0.2,1.5,0.3,2.2c0.1,0.4,0.1,0.7,0.2,1.1
		c0.3,1.6,0.6,3.2,0.9,4.7c0.1,0.3,0.1,0.6,0.2,0.8c0.3,1.5,0.6,2.9,0.9,4.4c0,0.1,0,0.2,0.1,0.2c0.3,1.5,0.7,2.9,1.1,4.4
		c0.1,0.2,0.1,0.4,0.2,0.6c0.4,1.4,0.8,2.8,1.2,4.3c0,0.2,0.1,0.3,0.1,0.5c20.8,70.7,86.1,122.3,163.5,122.3
		c72.9,0,135-45.7,159.4-110c0,0,0,0,0,0c0.4-1.1,0.8-2.2,1.2-3.3c0-0.1,0-0.1,0.1-0.2c0.4-1.1,0.8-2.2,1.1-3.3
		c0-0.1,0.1-0.2,0.1-0.3c0.4-1.2,0.8-2.3,1.1-3.5c0-0.1,0-0.1,0.1-0.2c0.4-1.2,0.7-2.4,1.1-3.7c0.1-0.2,0.1-0.4,0.2-0.7
		c0.3-1.1,0.6-2.2,0.9-3.3c0.1-0.3,0.1-0.6,0.2-0.9c0.3-1.1,0.5-2.2,0.8-3.2c0.1-0.3,0.1-0.6,0.2-0.8c0.3-1.3,0.6-2.7,0.8-4.1
		c0.1-0.3,0.1-0.6,0.2-0.9c0.3-1.4,0.5-2.8,0.7-4.1c0.1-0.3,0.1-0.7,0.2-1c0.5-3.3,1-6.7,1.3-10.1c0-0.4,0.1-0.8,0.1-1.2
		c0.1-1.3,0.2-2.5,0.3-3.8c0-0.5,0.1-1.1,0.1-1.6c0.1-1.2,0.1-2.4,0.2-3.6c0-0.5,0-1,0.1-1.5c0-1.7,0.1-3.4,0.1-5.1
		C348.9,239.3,272.7,163.1,178.5,163.1z M132.1,271.5c0-8.6,6.9-15.5,15.5-15.5h15.5v-15.5c0-8.6,6.9-15.5,15.5-15.5
		c8.6,0,15.5,6.9,15.5,15.5V256h15.5c25.6,0,46.5,20.9,46.5,46.5c0,12-4.6,22.7-12.1,31c7.4,8.2,12.1,19,12.1,31
		c0,25.6-20.9,46.5-46.5,46.5H194v15.5c0,8.6-6.9,15.5-15.5,15.5c-8.6,0-15.5-6.9-15.5-15.5v-15.5h-15.5c-8.6,0-15.5-6.9-15.5-15.5
		V271.5z"/>
	<path class="st1" d="M225,302.5c0-8.6-7-15.5-15.5-15.5h-46.5v31h46.5C218,318,225,311,225,302.5z"/>
	<path class="st1" d="M225,364.4c0-8.6-7-15.5-15.5-15.5h-46.5v31h46.5C218,379.9,225,373,225,364.4z"/>
</g>
</svg>
