<?xml version="1.0" encoding="utf-8"?>
<!-- Generator: Adobe Illustrator 21.1.0, SVG Export Plug-In . SVG Version: 6.00 Build 0)  -->
<svg version="1.1" id="Layer_1" xmlns="http://www.w3.org/2000/svg" xmlns:xlink="http://www.w3.org/1999/xlink" x="0px" y="0px"
	 viewBox="0 0 512 512" style="enable-background:new 0 0 512 512;" xml:space="preserve">
<style type="text/css">
	.st0{fill:#8A9EAE;}
	.st1{fill:#D0D8DE;}
</style>
<path class="st0" d="M316.9,337.1c1-6.6,1.5-13.5,1.5-20.3c0-6.8-0.5-13.5-1.5-20.1l33.5-26.3c7.9-6.2,10-17.4,5.1-26.1l-21.6-37.5
	c-5-8.7-15.8-12.4-25.2-8.7l-39.5,15.9c-10.8-8.7-22.5-15.5-34.9-20.2l-6-42.2c-1.4-9.9-10-17.4-20.1-17.4H165
	c-10,0-18.7,7.5-20.1,17.4l-6,42.2c-12.4,4.8-24.2,11.6-34.7,20.1l-39.7-15.9c-9.3-3.7-20.1,0-25.1,8.7l-21.6,37.5
	c-5,8.7-2.8,20,5.1,26.1l33.5,26.1c-1,6.6-1.5,13.5-1.5,20.3c0,6.8,0.5,13.5,1.5,20.1l-33.5,26.3c-7.9,6.2-10,17.4-5.1,26.1
	l21.6,37.5c5,8.7,15.8,12.4,25.2,8.7l39.5-15.9c10.8,8.7,22.5,15.5,34.9,20.2l6,42.2c1.4,9.9,10.1,17.4,20.1,17.4h43.3
	c10,0,18.7-7.5,20.1-17.4l6-42.2c12.4-4.8,24.2-11.6,34.7-20.1l39.7,15.9c9.4,3.8,20.1,0,25.1-8.7l21.6-37.5c5-8.7,2.8-20-5.1-26.1
	L316.9,337.1z M186.6,387.9c-39.2,0-71-31.9-71-71s31.9-71,71-71c39.2,0,71,31.9,71,71S225.7,387.9,186.6,387.9z"/>
<path class="st1" d="M474.7,123.5c0.4-3.1,1-6.2,1-9.5c0-3.3-0.6-6.4-1-9.5L493,90.6c4.1-3.1,5.2-8.7,2.7-13.2l-16.4-28.4
	c-2.6-4.4-8-6.3-12.7-4.3l-21,8.9c-5.1-3.9-10.6-7.4-16.6-9.9l-2.8-22.3c-0.7-5.1-5-8.9-10.1-8.9h-32.8c-5.1,0-9.4,3.8-10.1,8.9
	l-2.8,22.3c-6,2.5-11.5,6-16.6,9.9l-21-8.9c-4.7-2-10.2-0.2-12.7,4.3l-16.4,28.4c-2.6,4.4-1.4,10.1,2.7,13.2l18.3,13.8
	c-0.4,3.1-1,6.2-1,9.5c0,3.3,0.6,6.4,1,9.5l-18.3,13.8c-4.1,3.1-5.2,8.7-2.7,13.2l16.4,28.4c2.6,4.4,8,6.3,12.7,4.3l21-8.9
	c5.1,3.9,10.6,7.4,16.6,9.9l2.8,22.3c0.7,5.1,5,8.9,10.1,8.9H416c5.1,0,9.4-3.8,10.1-8.9l2.8-22.3c6-2.5,11.5-6,16.6-9.9l21,8.9
	c4.7,2,10.2,0.2,12.7-4.3l16.4-28.4c2.6-4.4,1.4-10.1-2.7-13.2L474.7,123.5z M399.6,154.6c-22.4,0-40.6-18.2-40.6-40.6
	c0-22.4,18.2-40.6,40.6-40.6c22.4,0,40.6,18.2,40.6,40.6C440.2,136.4,422,154.6,399.6,154.6z"/>
</svg>
