<?xml version="1.0" encoding="utf-8"?>
<!-- Generator: Adobe Illustrator 21.1.0, SVG Export Plug-In . SVG Version: 6.00 Build 0)  -->
<svg version="1.1" id="Capa_1" xmlns="http://www.w3.org/2000/svg" xmlns:xlink="http://www.w3.org/1999/xlink" x="0px" y="0px"
	 viewBox="0 0 512 512" style="enable-background:new 0 0 512 512;" xml:space="preserve">
<style type="text/css">
	.st0{fill:#F0B7B3;}
	.st1{fill:#DA4D43;}
</style>
<g>
	<g>
		<path class="st0" d="M225.5,164.5V134h-183c-16.8,0-30.5,13.7-30.5,30.5v61h219.9C227.7,206.9,225.5,186.8,225.5,164.5z"/>
	</g>
</g>
<g>
	<g>
		<path class="st0" d="M498.7,286.5c-20.8,32-52.5,59.3-97.9,85.4c-7,4-14.9,6.1-22.8,6.1c-7.9,0-15.8-2.1-22.7-6
			c-45.4-26.2-77.1-53.5-98-85.5H12.1V439c0,16.8,13.7,30.5,30.5,30.5h426.9c16.8,0,30.5-13.7,30.5-30.5V286.5L498.7,286.5
			L498.7,286.5z M149.3,378h-61c-8.4,0-15.2-6.8-15.2-15.2s6.8-15.2,15.2-15.2h61c8.4,0,15.2,6.8,15.2,15.2S157.7,378,149.3,378z"/>
	</g>
</g>
<g>
	<g>
		<path class="st1" d="M490.7,89.5L384,43.8c-3.9-1.6-8.2-1.6-12,0L265.2,89.5c-5.6,2.4-9.2,7.9-9.2,14v61
			c0,83.9,31,132.9,114.4,180.9c2.3,1.3,5,2,7.6,2s5.2-0.7,7.6-2c83.4-47.9,114.4-96.9,114.4-180.9v-61
			C499.9,97.4,496.3,91.9,490.7,89.5z M435.6,158.8l-61,76.2c-2.9,3.6-7.3,5.7-11.9,5.7c-0.2,0-0.5,0-0.6,0c-4.8-0.2-9.3-2.7-12-6.8
			l-30.5-45.7c-4.7-7-2.8-16.5,4.2-21.1c7-4.6,16.4-2.8,21.1,4.2l18.9,28.4l47.9-60c5.3-6.6,14.9-7.6,21.4-2.4
			C439.8,142.6,440.9,152.2,435.6,158.8z"/>
	</g>
</g>
</svg>
