<?xml version="1.0" encoding="utf-8"?>
<!-- Generator: Adobe Illustrator 21.1.0, SVG Export Plug-In . SVG Version: 6.00 Build 0)  -->
<svg version="1.1" id="Layer_1" xmlns="http://www.w3.org/2000/svg" xmlns:xlink="http://www.w3.org/1999/xlink" x="0px" y="0px"
	 viewBox="0 0 512 512" style="enable-background:new 0 0 512 512;" xml:space="preserve">
<style type="text/css">
	.st0{fill:#BAD9FB;}
	.st1{fill:#54A0F7;}
</style>
<path class="st0" d="M362.4,53.3h-25.3V33c0-11.2-9.1-20.3-20.3-20.3s-20.3,9.1-20.3,20.3v20.3H134.4V33c0-11.2-9.1-20.3-20.3-20.3
	S93.8,21.8,93.8,33v20.3H68.5c-30.8,0-55.7,25-55.7,55.7v228.1c0,33.5,27.3,60.8,60.8,60.8h101.4c11.2,0,20.3-9.1,20.3-20.3
	s-9.1-20.3-20.3-20.3H73.6c-11.2,0-20.3-9.1-20.3-20.3V174.9h324.4c0,11.2,9.1,20.3,20.3,20.3s20.3-9.1,20.3-20.3V109
	C418.2,78.3,393.2,53.3,362.4,53.3z"/>
<path class="st1" d="M367.5,235.7c-72.7,0-131.8,59.1-131.8,131.8c0,72.7,59.1,131.8,131.8,131.8c72.7,0,131.8-59.1,131.8-131.8
	C499.3,294.8,440.2,235.7,367.5,235.7z M418.2,387.8h-30.4v30.4c0,11.2-9.1,20.3-20.3,20.3c-11.2,0-20.3-9.1-20.3-20.3v-30.4h-30.4
	c-11.2,0-20.3-9.1-20.3-20.3c0-11.2,9.1-20.3,20.3-20.3h30.4v-30.4c0-11.2,9.1-20.3,20.3-20.3c11.2,0,20.3,9.1,20.3,20.3v30.4h30.4
	c11.2,0,20.3,9.1,20.3,20.3C438.4,378.7,429.4,387.8,418.2,387.8z"/>
</svg>
