<?xml version="1.0" encoding="utf-8"?>
<!-- Generator: Adobe Illustrator 21.1.0, SVG Export Plug-In . SVG Version: 6.00 Build 0)  -->
<svg version="1.1" id="Capa_1" xmlns="http://www.w3.org/2000/svg" xmlns:xlink="http://www.w3.org/1999/xlink" x="0px" y="0px"
	 viewBox="0 0 50.1 31.3" style="enable-background:new 0 0 50.1 31.3;" xml:space="preserve">
<style type="text/css">
	.st0{fill:#FFFFFF;}
</style>
<g>
	<g>
		<path class="st0" d="M11.9,16.9c-1.1,0-1.4,0.5-1.4,0.9c0,0.2,0.1,0.6,0.6,0.6c0.9,0,1.1-1.2,1.1-1.5
			C12.2,16.9,12.1,16.9,11.9,16.9z"/>
	</g>
</g>
<g>
	<g>
		<path class="st0" d="M23.6,14.8c-0.8,0-1,1-1,1.1h1.7C24.3,15.8,24.4,14.8,23.6,14.8z"/>
	</g>
</g>
<g>
	<g>
		<path class="st0" d="M44.6,15c-0.7,0-1.2,0.8-1.2,2c0,0.7,0.3,1.2,0.8,1.2c0.8,0,1.2-1.1,1.2-1.9C45.4,15.4,45.1,15,44.6,15z"/>
	</g>
</g>
<g>
	<g>
		<path class="st0" d="M36.9,16.9c-1.1,0-1.4,0.5-1.4,0.9c0,0.2,0.1,0.6,0.6,0.6c0.9,0,1.1-1.2,1.1-1.5
			C37.2,16.9,37.1,16.9,36.9,16.9z"/>
	</g>
</g>
<path class="st0" d="M34.8,1.4c-3.7,0-7.2,1.4-9.7,3.7c-2.6-2.3-6-3.7-9.7-3.7c0,0-0.1,0-0.1,0C7.3,1.4,0.8,7.9,0.8,15.9
	c0,8,6.5,14.5,14.5,14.5c3.7,0,7.1-1.4,9.7-3.7c-0.5-0.5-1-1-1.5-1.6h3c-0.5,0.6-0.9,1.1-1.5,1.6h0c0,0,0,0,0,0
	c2.6,2.3,6,3.8,9.7,3.7c8,0,14.5-6.5,14.5-14.5c0,0,0,0,0,0C49.3,7.9,42.8,1.4,34.8,1.4z M23.7,6.6h2.8c0.4,0.5,0.8,1,1.1,1.6h-4.9
	C23,7.7,23.4,7.1,23.7,6.6z M21.8,9.7h6.6c0.2,0.5,0.4,1,0.6,1.6h-8C21.1,11.1,21.4,10.5,21.8,9.7z M6.8,19.6L7.6,14l-2,5.5H4.6
	L4.5,14l-0.9,5.5H2l1.2-7.4h2.3l0.1,4.5l1.5-4.5h2.4l-1.2,7.4H6.8z M12,19.6l0.1-0.6c0,0-0.5,0.7-1.6,0.7C9.9,19.7,9,19.4,9,18
	c0-1.7,1.4-2.3,2.7-2.3c0.2,0,0.7,0,0.7,0s0.1-0.1,0.1-0.4c0-0.5-0.4-0.5-1-0.5c-1,0-1.7,0.3-1.7,0.3l0.2-1.3c0,0,0.8-0.3,1.9-0.3
	c0.5,0,2.1,0.1,2.1,1.9l-0.6,4.3H12z M17.8,17.7c0,2.1-2,2-2.3,2c-1.3,0-1.7-0.2-1.7-0.2l0.2-1.3c0,0,0.7,0.2,1.4,0.2
	c0.4,0,1,0,1-0.5c0-0.7-1.9-0.6-1.9-2.3c0-1.6,1.2-2,2.3-2c0.9,0,1.4,0.1,1.4,0.1l-0.2,1.4c0,0-0.8-0.1-1.1-0.1
	c-0.5,0-0.8,0.1-0.8,0.5C15.9,16.1,17.8,15.8,17.8,17.7z M20.2,18.2c0.1,0,0.3,0,0.4,0l-0.2,1.3c-0.2,0-0.6,0.2-1.2,0.2
	c-0.7,0-1.2-0.4-1.2-1.3c0-0.6,0.9-5.7,0.9-5.7h1.5l-0.2,0.9H21L20.8,15H20l-0.4,2.7C19.6,17.9,19.6,18.2,20.2,18.2z M23.6,13.4
	c1.7,0,2.2,1.2,2.2,2.3c0,0.4-0.2,1.4-0.2,1.4h-3.1c0,0-0.3,1.2,1.4,1.2c0.8,0,1.6-0.4,1.6-0.4l-0.3,1.5c0,0-0.5,0.3-1.6,0.3
	c-1.2,0-2.7-0.5-2.7-2.7C20.9,15.1,22,13.4,23.6,13.4z M27.6,23.5h-5.1c-0.3-0.5-0.6-1-0.9-1.6h6.8C28.2,22.5,27.9,23,27.6,23.5z
	 M27.3,19.6h-1.6l1-6h1.4L28,14.5c0,0,0.5-0.9,1.2-0.9c0.2,0,0.3,0,0.3,0c-0.2,0.4-0.4,0.8-0.6,1.8C27.8,14.9,27.7,17,27.3,19.6z
	 M33.3,19.5c0,0-0.8,0.2-1.3,0.2c-1.8,0-2.8-1.3-2.8-3.2c0-2.9,1.7-4.4,3.5-4.4c0.8,0,1.7,0.4,1.7,0.4l-0.3,1.6c0,0-0.6-0.4-1.4-0.4
	c-1.1,0-2,1-2,2.8c0,0.9,0.4,1.7,1.5,1.7c0.5,0,1.3-0.4,1.3-0.4L33.3,19.5z M37,19.6l0.1-0.6c0,0-0.5,0.7-1.6,0.7
	c-0.6,0-1.5-0.3-1.5-1.7c0-1.7,1.4-2.3,2.7-2.3c0.2,0,0.7,0,0.7,0s0.1-0.1,0.1-0.4c0-0.5-0.4-0.5-1-0.5c-1,0-1.7,0.3-1.7,0.3
	l0.2-1.3c0,0,0.8-0.3,1.9-0.3c0.5,0,2.1,0.1,2.1,1.9l-0.6,4.3C38.4,19.6,37,19.6,37,19.6z M40.3,19.6h-1.6l1-6h1.4l-0.1,0.9
	c0,0,0.5-0.9,1.2-0.9c0.2,0,0.3,0,0.3,0c-0.2,0.4-0.4,0.8-0.6,1.8C40.8,14.9,40.7,17,40.3,19.6z M45,19.6L45,19c0,0-0.5,0.6-1.4,0.6
	c-1.3,0-1.9-1.2-1.9-2.5c0-2,1.2-3.7,2.6-3.7c0.9,0,1.5,0.8,1.5,0.8l0.3-2.1l1.5,0l-1.2,7.3H45z"/>
</svg>
