<?xml version="1.0" encoding="utf-8"?>
<!-- Generator: Adobe Illustrator 21.1.0, SVG Export Plug-In . SVG Version: 6.00 Build 0)  -->
<svg version="1.1" id="Capa_1" xmlns="http://www.w3.org/2000/svg" xmlns:xlink="http://www.w3.org/1999/xlink" x="0px" y="0px"
	 viewBox="0 0 49.4 16.8" style="enable-background:new 0 0 49.4 16.8;" xml:space="preserve">
<style type="text/css">
	.st0{fill:#FFFFFF;}
</style>
<g>
	<g>
		<polygon class="st0" points="19.9,1.4 17.4,15.7 21.3,15.7 23.8,1.4 		"/>
	</g>
</g>
<g>
	<g>
		<path class="st0" d="M14.2,1.4l-3.8,9.7L10,9.7C9.2,7.9,7.1,5.4,4.6,3.8l3.5,11.9l4.1,0l6.1-14.2L14.2,1.4z"/>
	</g>
</g>
<g>
	<g>
		<path class="st0" d="M8.5,2.5C8.3,1.6,7.6,1.3,6.8,1.3h-6L0.7,1.6c4.7,1.1,7.8,3.9,9.1,7.2L8.5,2.5z"/>
	</g>
</g>
<g>
	<g>
		<path class="st0" d="M31.6,4.2c1.3,0,2.2,0.3,2.9,0.5l0.4,0.2l0.5-3.1c-0.8-0.3-2-0.6-3.5-0.6c-3.8,0-6.6,1.9-6.6,4.7
			c0,2,1.9,3.2,3.4,3.9c1.5,0.7,2,1.1,2,1.8c0,1-1.2,1.4-2.3,1.4c-1.6,0-2.4-0.2-3.7-0.7L24.3,12l-0.5,3.2c0.9,0.4,2.6,0.7,4.3,0.8
			c4.1,0,6.7-1.9,6.8-4.9c0-1.6-1-2.9-3.3-3.9c-1.4-0.7-2.2-1.1-2.2-1.8C29.4,4.8,30.1,4.2,31.6,4.2z"/>
	</g>
</g>
<g>
	<g>
		<path class="st0" d="M45.4,1.4h-3c-0.9,0-1.6,0.3-2,1.2l-5.8,13.1h4.1c0,0,0.7-1.8,0.8-2.1c0.4,0,4.4,0,5,0
			c0.1,0.5,0.5,2.1,0.5,2.1h3.6L45.4,1.4z M40.6,10.6c0.3-0.8,1.5-4,1.5-4c0,0,0.3-0.8,0.5-1.4l0.3,1.2c0,0,0.7,3.4,0.9,4.1H40.6z"
			/>
	</g>
</g>
</svg>
